<?xml version="1.0" standalone="no"?>
<!DOCTYPE svg PUBLIC "-//W3C//DTD SVG 1.1//EN" "http://www.w3.org/Graphics/SVG/1.1/DTD/svg11.dtd" >
<svg xmlns="http://www.w3.org/2000/svg" xmlns:xlink="http://www.w3.org/1999/xlink" version="1.1">
<metadata></metadata>
<defs>
<font id="go_smallcapsitalic" horiz-adv-x="1139" >
<font-face units-per-em="2048" ascent="1638" descent="-410" />
<missing-glyph horiz-adv-x="569" />
<glyph horiz-adv-x="0" />
<glyph horiz-adv-x="0" />
<glyph unicode="&#xd;" horiz-adv-x="569" />
<glyph unicode=" "  horiz-adv-x="569" />
<glyph unicode="&#x09;" horiz-adv-x="569" />
<glyph unicode="&#xa0;" horiz-adv-x="569" />
<glyph unicode="!" horiz-adv-x="569" d="M200 0l41 207h217l-41 -207h-217zM316 407l130 777l59 296h197l-59 -296l-179 -777h-148z" />
<glyph unicode="&#x22;" horiz-adv-x="727" d="M328 1056l79 523h197l-128 -523h-148zM673 1056l79 523h198l-129 -523h-148z" />
<glyph unicode="#" d="M113 444l49 124h218l156 345h-236l50 123h241l200 444h127l-199 -444h263l199 444h128l-199 -444h211l-49 -123h-218l-156 -345h236l-49 -124h-242l-199 -444h-128l199 444h-263l-199 -444h-128l199 444h-211zM507 568h264l156 345h-264z" />
<glyph unicode="$" d="M139 83l34 170q204 -105 384 -105l106 531q-187 124 -242.5 218.5t-29.5 227.5q30 148 146 245.5t286 109.5l25 124h99l-25 -124q154 0 318 -67l-32 -161q-175 83 -313 93l-105 -527q46 -33 70 -49q152 -93 193 -168t18 -186q-31 -158 -146.5 -270t-297.5 -145l-25 -123 h-99l25 123q-187 0 -389 83zM564 1129q-26 -131 140 -246l91 456q-198 -43 -231 -210zM658 160q198 42 234 225q15 71 -9 116.5t-132 119.5z" />
<glyph unicode="%" horiz-adv-x="1821" d="M250 0l1447 1480h154l-1446 -1480h-155zM342 1116q34 167 139.5 265.5t260.5 98.5q157 0 223 -99t31 -271q-34 -171 -139.5 -270.5t-261.5 -99.5q-159 0 -223.5 100t-29.5 276zM506 1115q-23 -116 6.5 -191t103.5 -75t134 74.5t82 186.5q23 113 -7 187.5t-104 74.5 q-73 0 -133 -74t-82 -183zM1138 413q33 167 144 265.5t257 98.5q147 0 217 -99.5t36 -270.5t-139 -270.5t-262 -99.5q-159 0 -223.5 100t-29.5 276zM1300 402q-21 -106 8.5 -181t104.5 -75q73 0 132.5 74.5t80.5 176.5q24 123 -6 197.5t-103 74.5q-74 0 -133.5 -74 t-83.5 -193z" />
<glyph unicode="&#x26;" horiz-adv-x="1366" d="M143 440q68 340 442 464q-56 159 -32 279q31 154 141.5 244t267.5 90q149 0 219.5 -81t43.5 -219q-50 -247 -398 -385q106 -305 233 -504q124 126 158 295l16 80h195q-52 -262 -298 -482q65 -112 162 -221h-268l-56 87q-219 -124 -402 -124q-223 0 -344 136t-80 341z M349 478q-31 -154 50 -260.5t229 -106.5q112 0 278 91q-152 223 -274 588q-240 -99 -283 -312zM749 1205q-20 -100 29 -249q227 85 261 257q31 156 -108 156q-149 0 -182 -164z" />
<glyph unicode="'" horiz-adv-x="391" d="M328 1036l59 543h247l-158 -543h-148z" />
<glyph unicode="(" horiz-adv-x="682" d="M259 642q57 285 234 537.5t422 399.5l-27 -136q-179 -160 -278.5 -344t-153.5 -457q-55 -274 -29 -458t141 -344l-28 -136q-186 147 -262 399.5t-19 538.5z" />
<glyph unicode=")" horiz-adv-x="682" d="M22 -296l28 136q179 160 277.5 344.5t153.5 457.5q54 273 29 457t-140 344l27 136q187 -147 263 -399.5t19 -537.5q-57 -286 -234 -538.5t-423 -399.5z" />
<glyph unicode="*" horiz-adv-x="1196" d="M285 722l51 97l52 100l297 -158q-24 -19 -39 -49q-16 -27 -16 -53zM330 383l303 263q8 -23 30 -42q19 -19 45 -21l-234 -321l-71 59zM698 765l21 360h208l-120 -360q-21 13 -53 13q-30 1 -56 -13zM722 582q28 4 57 22t43 40l202 -261l-97 -62l-95 -59zM816 757l358 161 l12 -100l12 -98l-370 -66q9 27 6 57q-3 29 -18 46z" />
<glyph unicode="+" horiz-adv-x="1196" d="M207 518l30 148h419l84 420h148l-84 -420h420l-30 -148h-420l-84 -419h-148l84 419h-419z" />
<glyph unicode="," horiz-adv-x="648" d="M130 -350l14 74q102 27 148 256l4 20h-96l49 247h247l-43 -214q-76 -383 -323 -383z" />
<glyph unicode="-" horiz-adv-x="1196" d="M207 518l30 148h988l-30 -148h-988z" />
<glyph unicode="." horiz-adv-x="648" d="M200 0l51 257h257l-51 -257h-257z" />
<glyph unicode="/" horiz-adv-x="569" d="M-27 -140l736 1620h155l-737 -1620h-154z" />
<glyph unicode="0" d="M228 741q155 776 644 776q483 0 334 -776q-156 -778 -645 -778t-333 778zM397 395q4 -284 194 -284q285 0 410 626q11 58 19.5 114t12.5 110zM402 521l635 565q-5 283 -195 283q-284 0 -410 -629q-12 -60 -19.5 -114t-10.5 -105z" />
<glyph unicode="1" d="M210 0l29 148h316l233 1168l-331 -79l30 152l540 128l-274 -1369h316l-29 -148h-830z" />
<glyph unicode="2" d="M102 0l34 173q100 159 296 329l130 110l118 100q232 198 270 387q54 271 -188 271q-142 0 -374 -120l35 174q215 93 398 93q193 0 285.5 -112.5t54.5 -303.5q-26 -130 -105.5 -230.5t-274.5 -250.5l-81 -62q-246 -189 -326 -385h593l-34 -173h-831z" />
<glyph unicode="3" d="M155 11l36 184q27 -12 41 -17q154 -67 244 -67q301 0 359 292q30 152 -54 234t-270 82h-78l27 133l68 1q169 0 281 78.5t140 215.5q44 222 -199 222q-124 0 -321 -83l35 172q188 59 324 59q432 0 363 -345q-52 -259 -382 -370q340 -82 278 -392q-40 -204 -197 -325.5 t-380 -121.5q-113 0 -315 48z" />
<glyph unicode="4" d="M114 419l30 149l839 912h185l-180 -900h198l-32 -161h-198l-83 -419h-185l83 419h-657zM339 580h477l132 658z" />
<glyph unicode="5" d="M161 -6l35 176q137 -59 269 -59q82 0 146 24.5t111 68t76.5 102.5t43.5 128q15 72 4.5 129t-50 97t-110.5 61t-180 21h-170l147 738h748l-34 -172h-575l-83 -415h65q129 0 223.5 -30t152 -88t76.5 -143.5t-4 -197.5q-25 -126 -87.5 -215.5t-149.5 -146.5t-191.5 -83 t-214.5 -26q-56 0 -117.5 7.5t-130.5 23.5z" />
<glyph unicode="6" d="M221 690q78 390 277 609t475 219q130 0 266 -56l-35 -172q-161 80 -261 80q-372 0 -490 -592q165 172 369 172q184 0 264.5 -123.5t37.5 -339.5q-51 -252 -196.5 -388t-367.5 -136q-225 0 -315.5 194.5t-23.5 532.5zM403 491q-34 -166 24 -273t181 -107q247 0 312 329 q74 368 -173 368q-128 0 -221.5 -86t-122.5 -231z" />
<glyph unicode="7" d="M237 0q63 173 141.5 299t243.5 346l534 650h-762l37 185h950l-37 -185q-738 -840 -895 -1295h-212z" />
<glyph unicode="8" d="M172 370q53 261 382 436q-187 151 -151 334q34 168 178 272.5t342 104.5q184 0 279 -88.5t66 -234.5q-42 -211 -353 -388q302 -164 250 -423q-37 -186 -201 -303t-386 -117q-220 0 -331.5 111t-74.5 296zM375 396q-26 -128 40.5 -206.5t200.5 -78.5q129 0 223.5 67 t116.5 174q17 86 -21 145.5t-167 145.5l-123 83q-138 -92 -194 -160.5t-76 -169.5zM589 1176q-16 -82 32.5 -148t195.5 -160q234 137 266 295q19 95 -38 150.5t-174 55.5q-110 0 -187 -52.5t-95 -140.5z" />
<glyph unicode="9" d="M166 18l34 172q163 -79 263 -79q372 0 490 591q-166 -172 -370 -172q-184 0 -264 123.5t-37 340.5q50 251 196 387.5t367 136.5q225 0 316 -195t23 -533q-78 -390 -276.5 -609t-474.5 -219q-131 0 -267 56zM485 1040q-73 -368 174 -368q128 0 221.5 86t122.5 231 q33 166 -25 273t-181 107q-246 0 -312 -329z" />
<glyph unicode=":" horiz-adv-x="627" d="M200 0l49 247h247l-49 -247h-247zM370 851l49 247h247l-49 -247h-247z" />
<glyph unicode=";" horiz-adv-x="627" d="M130 -350l14 74q102 27 148 256l4 20h-96l49 247h247l-43 -214q-76 -383 -323 -383zM370 851l49 247h247l-49 -247h-247z" />
<glyph unicode="&#x3c;" horiz-adv-x="1196" d="M222 592l1086 494l-34 -166l-719 -327v-2l588 -327l-33 -165z" />
<glyph unicode="=" horiz-adv-x="1196" d="M88 294l34 170h1136l-34 -170h-1136zM173 720l34 170h1136l-34 -170h-1136z" />
<glyph unicode="&#x3e;" horiz-adv-x="1196" d="M123 99l33 165l720 327v2l-589 327l34 166l888 -494z" />
<glyph unicode="?" d="M396 0l39 197h197l-39 -197h-197zM429 1300l34 167q189 50 384 50q470 0 400 -346q-35 -180 -250 -300l-81 -50q-112 -62 -155 -127t-68 -189l-22 -110h-197l11 54q49 245 228 373l93 69q203 137 232 281q39 197 -236 197q-174 0 -373 -69z" />
<glyph unicode="@" horiz-adv-x="2079" d="M368 576q74 374 413 657.5t710 283.5q280 0 432 -180t98 -447q-49 -248 -234.5 -421t-401.5 -173q-166 0 -143 115q8 41 42 105l65 126h-12q-250 -346 -456 -346q-193 0 -149 221q51 256 253 458.5t404 202.5q31 0 78 -3q49 -3 78 -3h137l-253 -636q-13 -32 -19 -62 q-13 -67 62 -67q134 0 266.5 142t168.5 324q46 230 -82.5 382t-370.5 152q-317 0 -613 -249.5t-360 -570.5q-45 -226 80.5 -369.5t367.5 -143.5q158 0 317 72l15 -102q-196 -81 -369 -81q-281 0 -429.5 173.5t-94.5 439.5zM895 561q-29 -142 53 -142q135 0 451 414l78 195 q-85 33 -153 33q-141 0 -264 -143t-165 -357z" />
<glyph unicode="A" horiz-adv-x="1366" d="M19 0l857 1480h208l258 -1480h-226l-73 410h-594l-235 -410h-195zM541 566h476l-111 634z" />
<glyph unicode="B" horiz-adv-x="1366" d="M165 0l295 1480h474q292 0 398 -76q78 -56 78 -171q0 -40 -10 -88q-54 -270 -402 -374q315 -91 315 -323q0 -37 -8 -77q-29 -143 -129 -240q-80 -78 -178 -104.5t-307 -26.5h-526zM406 157h155q296 0 396 43.5t128 183.5q7 35 7 67q0 103 -79 165q-103 80 -328 81h-171z M540 830h179q402 0 458 281q7 32 7 59q0 76 -53 109q-71 44 -298 44h-194z" />
<glyph unicode="C" horiz-adv-x="1479" d="M263 739q76 378 310 578t601 200q213 0 466 -65l-40 -197q-285 105 -465 105q-255 0 -420.5 -159.5t-226.5 -463.5q-20 -100 -19 -184q0 -161 72 -267q111 -160 372 -159q223 0 490 129l-36 -180q-242 -113 -512 -113q-366 0 -517 198q-100 132 -100 344q0 107 25 234z " />
<glyph unicode="D" horiz-adv-x="1479" d="M165 0l295 1480h474q628 0 629 -499q0 -94 -23 -206q-73 -369 -308 -572t-590 -203h-477zM406 157h252q270 0 431.5 147.5t221.5 450.5q19 92 19 170q0 143 -63 240q-59 91 -159 124.5t-314 33.5h-155z" />
<glyph unicode="E" horiz-adv-x="1366" d="M190 0l295 1480h1073l-31 -157h-863l-95 -475h764l-31 -155h-764l-107 -536h907l-31 -157h-1117z" />
<glyph unicode="F" horiz-adv-x="1251" d="M191 0l295 1480h1005l-31 -157h-795l-99 -496h695l-31 -155h-695l-134 -672h-210z" />
<glyph unicode="G" horiz-adv-x="1593" d="M240 737q75 376 316.5 578t614.5 202q264 0 521 -67l-39 -194q-293 104 -514 104q-550 0 -674 -620q-20 -100 -20 -185q0 -168 79 -275q120 -160 403 -160q116 0 300 37l75 377h-247l31 154h456l-130 -648q-279 -77 -552 -77q-646 0 -646 537q0 108 26 237z" />
<glyph unicode="H" horiz-adv-x="1479" d="M165 0l295 1480h210l-124 -624h729l124 624h209l-295 -1480h-209l139 699h-729l-139 -699h-210z" />
<glyph unicode="I" horiz-adv-x="817" d="M124 0l31 157h180l233 1166h-180l31 157h569l-31 -157h-180l-233 -1166h180l-31 -157h-569z" />
<glyph unicode="J" horiz-adv-x="1015" d="M-26 -232l35 181q151 -77 300 -77q159 0 225 62.5t102 245.5l229 1144h-250l31 156h460l-258 -1293q-97 -483 -579 -483q-167 0 -295 64z" />
<glyph unicode="K" horiz-adv-x="1366" d="M191 0l295 1480h197l-145 -728l760 728h211l-737 -706l545 -774h-266l-514 750l-149 -750h-197z" />
<glyph unicode="L" d="M165 0l295 1480h210l-264 -1323h726l-31 -157h-936z" />
<glyph unicode="M" horiz-adv-x="1706" d="M165 0l295 1480h291l178 -1145l647 1145h260l-295 -1480h-196l240 1203l-625 -1104h-203l-170 1108l-241 -1207h-181z" />
<glyph unicode="N" horiz-adv-x="1479" d="M165 0l295 1480h205l535 -1143l228 1143h180l-295 -1480h-206l-534 1143l-228 -1143h-180z" />
<glyph unicode="O" horiz-adv-x="1593" d="M240 740q71 355 305 566t555 211q320 0 470 -211q102 -144 101 -353q0 -98 -22 -210q-72 -360 -306 -570t-564 -210q-313 0 -461 213q-100 145 -100 353q0 98 22 211zM465 740q-22 -112 -22 -205q1 -149 57 -250q92 -165 313 -165q233 0 392 162.5t219 460.5 q22 111 22 203q0 150 -58 251q-94 163 -320 163q-227 0 -385.5 -163t-217.5 -457z" />
<glyph unicode="P" horiz-adv-x="1366" d="M167 0l295 1480h540q228 0 322.5 -26t143.5 -103q38 -61 38 -154q0 -53 -12 -115q-103 -514 -736 -514h-268l-113 -568h-210zM522 727h259q420 0 488 340q8 43 8 78q0 89 -54 127q-76 52 -318 51h-264z" />
<glyph unicode="Q" horiz-adv-x="1593" d="M240 740q71 353 304.5 565t551.5 212q324 0 474 -211q102 -144 102 -354q0 -100 -23 -214q-102 -508 -530 -708q225 -111 494 -159l-167 -167q-326 114 -530 269q-101 -11 -155 -11q-298 0 -443 218q-100 148 -100 354q0 97 22 206zM465 740q-22 -112 -22 -205 q0 -149 57 -251q93 -164 315 -164q227 0 388 162t219 449q23 118 23 214q0 151 -57 251q-93 164 -325 164q-222 0 -380.5 -164.5t-217.5 -455.5z" />
<glyph unicode="R" horiz-adv-x="1479" d="M165 0l295 1480h618q393 0 393 -273q0 -44 -10 -94q-59 -296 -383 -420l356 -693h-258l-296 626h-380l-125 -626h-210zM531 783h235q214 0 328.5 74t146.5 235q6 32 6 59q1 79 -51 119q-70 54 -257 53h-300z" />
<glyph unicode="S" horiz-adv-x="1366" d="M130 52l41 208q257 -140 562 -140q317 0 365 239q6 31 6 58q0 63 -35 103q-50 56 -226 117l-188 66q-313 111 -313 339q0 35 8 73q81 402 621 402q244 0 470 -63l-39 -193q-228 99 -476 99q-324 0 -368 -220q-4 -23 -5 -43q-1 -59 37 -99q50 -53 202 -107l192 -67 q218 -76 294 -174q53 -68 52 -167q0 -44 -10 -93q-39 -198 -207.5 -312.5t-417.5 -114.5q-269 0 -565 89z" />
<glyph unicode="T" horiz-adv-x="1251" d="M284 1323l31 157h1210l-31 -157h-500l-264 -1323h-210l264 1323h-500z" />
<glyph unicode="U" horiz-adv-x="1479" d="M275 548l186 932h210l-186 -934q-24 -118 -23 -188q0 -24 2 -44q11 -74 72 -124q84 -70 254 -70q200 0 299.5 93.5t145.5 325.5l188 941h184l-187 -938q-40 -198 -99.5 -300t-179.5 -178q-160 -101 -394 -101q-307 0 -420 140q-73 91 -73 251q0 87 21 194z" />
<glyph unicode="V" horiz-adv-x="1366" d="M331 1480h216l229 -1215l695 1215h179l-845 -1480h-198z" />
<glyph unicode="W" horiz-adv-x="1933" d="M320 1480h212l59 -1170l581 1170h202l88 -1170l551 1170h190l-711 -1480h-208l-102 1141l-568 -1141h-208z" />
<glyph unicode="X" horiz-adv-x="1366" d="M28 0l691 735l-372 745h248l286 -575l542 575h199l-671 -710l387 -770h-248l-301 598l-563 -598h-198z" />
<glyph unicode="Y" horiz-adv-x="1366" d="M325 1480h240l284 -685l588 685h195l-737 -858l-124 -622h-210l123 617z" />
<glyph unicode="Z" horiz-adv-x="1251" d="M101 0l33 169l1026 1154h-746l31 157h998l-31 -157l-1026 -1154h795l-33 -169h-1047z" />
<glyph unicode="[" horiz-adv-x="569" d="M50 -296l375 1875h395l-30 -148h-222l-315 -1579h222l-30 -148h-395z" />
<glyph unicode="\" horiz-adv-x="569" d="M285 1430h155l101 -1570h-155z" />
<glyph unicode="]" horiz-adv-x="569" d="M4 -296l30 148h222l315 1579h-222l30 148h395l-375 -1875h-395z" />
<glyph unicode="^" horiz-adv-x="960" d="M210 703l573 814l247 -814h-166l-148 483l-341 -483h-165z" />
<glyph unicode="_" d="M-29 -148l29 148h1139l-30 -148h-1138z" />
<glyph unicode="`" horiz-adv-x="682" d="M426 1604h228l177 -321h-148z" />
<glyph unicode="a" horiz-adv-x="1138" d="M12 0l690 1184h207l214 -1184h-217l-57 322h-463l-186 -322h-188zM469 463h354l-78 480z" />
<glyph unicode="b" horiz-adv-x="1174" d="M155 0l236 1184h404q39 0 74 -1t68 -2q167 -7 233 -71q47 -45 47 -124q0 -31 -8 -68q-43 -216 -332 -300q262 -73 262 -261q0 -30 -7 -63q-25 -126 -121 -204q-32 -26 -64.5 -43t-72 -27.5t-89 -15t-115.5 -4.5h-515zM384 146h136q109 0 181 6t117 24t68 51.5t33 86.5 q5 23 5 45q0 27 -8 51q-14 42 -50 72t-93 46.5t-132 16.5h-178zM490 678h186q133 0 214 53.5t101 153.5q5 24 5 43q0 55 -37 79q-23 15 -74.5 24t-135.5 9h-187z" />
<glyph unicode="c" horiz-adv-x="1190" d="M190 326q-6 42 -6 88q0 82 19 177q30 151 93.5 267.5t159 195.5t220.5 119.5t279 40.5q94 0 188.5 -12.5t192.5 -36.5l-35 -175q-218 80 -367 80q-205 0 -334 -121t-176 -357q-16 -78 -16 -144q0 -30 4 -58q10 -88 53.5 -148t118.5 -90.5t181 -30.5q183 0 388 96 l-33 -163q-191 -84 -425 -84q-149 0 -256 41t-169.5 120t-79.5 195z" />
<glyph unicode="d" horiz-adv-x="1219" d="M155 0l236 1184h395q286 0 406 -145q82 -99 83 -260q0 -74 -18 -161q-29 -147 -92 -261.5t-155 -194t-210 -121t-259 -41.5h-386zM391 146h144q205 0 328.5 113t169.5 344q14 69 14 127q0 86 -30 148q-19 44 -46 75t-66 50t-92.5 28t-125.5 9h-118z" />
<glyph unicode="e" horiz-adv-x="1110" d="M155 0l236 1184h864l-29 -144h-657l-71 -355h573l-28 -142h-573l-79 -397h693l-29 -146h-900z" />
<glyph unicode="f" horiz-adv-x="1009" d="M155 0l236 1184h814l-29 -144h-607l-75 -378h523l-29 -144h-523l-103 -518h-207z" />
<glyph unicode="g" horiz-adv-x="1291" d="M185 390q-1 14 -1 28q0 81 19 173q57 288 245 453q51 45 107.5 77.5t119.5 52.5t136 30t159 10q112 0 215 -12.5t201 -37.5l-35 -174q-116 40 -217.5 60t-190.5 20q-212 0 -342 -120t-177 -359q-15 -77 -15 -142q0 -32 3 -61q12 -89 57 -149.5t123 -91.5t187 -31 q38 0 87 5t110 16l56 283h-199l29 142h406l-107 -532q-231 -60 -431 -60q-94 0 -170 11.5t-133 32.5q-77 29 -129.5 82.5t-80.5 127t-32 166.5z" />
<glyph unicode="h" horiz-adv-x="1222" d="M155 0l236 1184h207l-98 -490h499l98 490h206l-236 -1184h-206l109 550h-499l-109 -550h-207z" />
<glyph unicode="i" horiz-adv-x="748" d="M115 0l29 146h156l178 891h-156l29 147h518l-29 -147h-156l-178 -891h156l-29 -146h-518z" />
<glyph unicode="j" horiz-adv-x="783" d="M-20 -204l29 149q133 -31 206 -31q51 0 89.5 10.5t68 37t49 71.5t33.5 113l178 892h-216l29 146h423l-204 -1022q-41 -204 -162.5 -301.5t-315.5 -97.5q-82 0 -207 33z" />
<glyph unicode="k" horiz-adv-x="1136" d="M155 0l236 1184h196l-115 -578l608 578h207l-587 -562l421 -622h-260l-392 591l-118 -591h-196z" />
<glyph unicode="l" horiz-adv-x="974" d="M155 0l236 1184h207l-207 -1038h592l-29 -146h-799z" />
<glyph unicode="m" horiz-adv-x="1405" d="M155 0l236 1184h279l95 -939l473 939h248l-236 -1184h-192l198 995l-460 -916h-181l-93 916l-198 -995h-169z" />
<glyph unicode="n" horiz-adv-x="1222" d="M155 0l236 1184h191l373 -892l178 892h170l-236 -1184h-192l-371 892l-178 -892h-171z" />
<glyph unicode="o" horiz-adv-x="1307" d="M203 592q57 287 244 454q185 168 449 168q261 0 381 -168q81 -113 81 -281q0 -80 -18 -171q-58 -292 -245 -458q-186 -166 -456 -166q-257 0 -375 168q-80 114 -80 281q0 80 19 173zM424 592q-18 -91 -19 -166q0 -110 40 -184q65 -128 225 -128q170 0 286 125 q117 124 163 355q18 90 18 164q0 110 -40 186q-66 126 -230 126q-165 0 -282 -126q-116 -126 -161 -352z" />
<glyph unicode="p" horiz-adv-x="1108" d="M155 0l236 1184h457q84 0 143.5 -5t95.5 -15q74 -19 115 -78q34 -51 34 -128q0 -42 -10 -91q-82 -408 -582 -408h-193l-91 -459h-205zM480 604h161q316 0 365 246q6 31 6 56q0 65 -40 93q-56 41 -218 41h-187z" />
<glyph unicode="q" horiz-adv-x="1322" d="M191 340q-6 41 -6 86q0 78 18 166q28 142 90.5 257.5t152 196t203.5 124.5t245 44q132 0 228 -44t154 -125t75 -196q6 -43 6 -91q0 -78 -17 -166q-80 -398 -413 -566q99 -43 179.5 -68t191.5 -48l-91 -147q-300 87 -470 214q-37 -3 -64.5 -5t-46.5 -2q-123 0 -215 45.5 t-148 127.5t-72 197zM407 392q5 -89 37 -151t90 -94.5t139 -32.5q83 0 154.5 33t129 94t98.5 149t63 198q19 92 19 168q0 18 -1 36q-6 89 -38.5 150.5t-91.5 94.5t-142 33q-81 0 -151.5 -32.5t-127 -94t-97.5 -149.5t-64 -199q-18 -92 -18 -169q0 -17 1 -34z" />
<glyph unicode="r" horiz-adv-x="1195" d="M155 0l236 1184h505q312 0 313 -218q0 -35 -9 -76q-47 -236 -301 -336l281 -554h-242l-237 492h-248l-98 -492h-200zM482 636h159q152 0 236.5 56.5t108.5 175.5q5 22 5 42q-1 58 -41 88q-54 42 -189 42h-199z" />
<glyph unicode="s" horiz-adv-x="1124" d="M105 26l36 184q209 -96 426 -96q263 0 298 175q6 29 4 50.5t-11.5 39t-24.5 32.5t-36 31q-23 12 -53.5 24.5t-64.5 25.5t-69.5 26t-70.5 27q-85 32 -141 66.5t-87 76.5t-38 90q-3 18 -3 37q0 34 8 73q65 326 523 326q199 0 377 -46l-34 -171q-91 37 -183.5 54.5 t-187.5 17.5q-134 0 -201.5 -36.5t-84.5 -120.5q-6 -28 -3.5 -49t15 -39t36.5 -34t61 -31l78 -32q88 -31 155.5 -58.5t117 -55t81.5 -56.5t48 -64q18 -35 20 -77v-16q0 -36 -9 -80q-34 -170 -176.5 -259.5t-380.5 -89.5q-96 0 -202.5 14.5t-222.5 40.5z" />
<glyph unicode="t" horiz-adv-x="1003" d="M237 1036l29 148h943l-29 -148h-368l-207 -1036h-207l207 1036h-368z" />
<glyph unicode="u" horiz-adv-x="1222" d="M221 322q4 56 18 127l147 735h208l-147 -737q-17 -88 -17 -146q0 -22 2 -39q8 -68 65.5 -108t157.5 -40q66 0 115.5 18.5t88.5 57.5t65.5 99.5t43.5 145.5l150 749h190l-148 -739q-32 -161 -80 -245q-29 -50 -74 -92t-104.5 -73t-130.5 -48t-151 -17q-114 0 -193.5 26 t-129.5 77q-30 29 -48 65t-25 82q-4 29 -4 62q0 19 1 40z" />
<glyph unicode="v" horiz-adv-x="1099" d="M261 1184h218l138 -928l505 928h193l-653 -1184h-203z" />
<glyph unicode="w" horiz-adv-x="1541" d="M256 1184h212l43 -949l427 949h183l36 -934l419 934h181l-561 -1184h-202l-41 890l-403 -890h-211z" />
<glyph unicode="x" horiz-adv-x="1093" d="M30 0l525 586l-270 598h242l194 -435l373 435h195l-506 -563l280 -621h-242l-204 455l-392 -455h-195z" />
<glyph unicode="y" horiz-adv-x="1097" d="M261 1184h232l196 -524l423 524h196l-568 -686l-99 -498h-207l98 494z" />
<glyph unicode="z" horiz-adv-x="1014" d="M85 0l30 151l799 889h-586l29 144h808l-29 -144l-799 -889h622l-30 -151h-844z" />
<glyph unicode="{" horiz-adv-x="684" d="M138 568l30 148h61q153 0 185 161q13 68 12 140l-2 87q-2 86 14 167q28 139 150 223.5t295 84.5l-30 -148h-53q-68 0 -120 -35.5t-63 -89.5q-4 -22 -5 -94l-4 -102q-2 -66 -20 -155q-37 -189 -209 -313q122 -125 84 -314q-18 -89 -42 -155l-37 -102q-28 -72 -32 -95 q-11 -53 27.5 -88.5t105.5 -35.5h53l-30 -148q-173 0 -261 85t-60 224q16 81 52 166l37 87q30 72 44 142q32 160 -121 160h-61z" />
<glyph unicode="|" horiz-adv-x="532" d="M127 -296l375 1875h158l-375 -1875h-158z" />
<glyph unicode="}" horiz-adv-x="684" d="M56 -296l30 148h52q68 0 120 35.5t63 89.5q4 22 7 94l2 102q2 67 20 155q38 189 210 314q-122 124 -85 313q18 89 42 155l39 102q26 72 31 96q10 52 -28.5 87.5t-105.5 35.5h-52l30 148q172 0 260.5 -84.5t60.5 -224.5q-16 -80 -52 -166l-37 -87q-30 -72 -43 -141 q-32 -160 120 -160h62l-30 -148h-62q-152 0 -184 -162q-14 -68 -13 -140l2 -87q2 -85 -14 -167q-28 -139 -150.5 -223.5t-294.5 -84.5z" />
<glyph unicode="~" horiz-adv-x="1196" d="M192 444q66 328 337 328q94 0 180 -69l97 -77l56 -46q30 -20 73 -20q119 0 155 180h148q-65 -328 -335 -328q-94 0 -180 69l-97 77l-58 46q-29 20 -72 20q-120 0 -156 -180h-148z" />
<glyph unicode="&#xa1;" horiz-adv-x="682" d="M163 -395l59 296l183 790h148l-134 -790l-59 -296h-197zM419 888l40 198h197l-40 -198h-197z" />
<glyph unicode="&#xa2;" d="M320 738q47 236 196 382t373 175l37 185h99l-37 -185q132 -6 275 -46l-33 -166q-165 60 -270 70l-168 -840q136 0 297 67l-29 -149q-161 -58 -296 -58l-34 -173h-99l34 173q-199 20 -295 177t-50 388zM535 732q-66 -330 160 -408l164 820q-246 -22 -324 -412z" />
<glyph unicode="&#xa3;" d="M121 0l34 173q223 67 273 316l46 227h-179l29 148h179l43 215q43 213 166.5 325.5t314.5 112.5q105 0 221 -30l-34 -167q-113 49 -229 49q-184 0 -230 -230l-55 -275h216l-29 -148h-216l-26 -127q-31 -158 -84.5 -245t-171.5 -171h611l-34 -173h-845z" />
<glyph unicode="&#xa4;" d="M197 380l187 156q-43 100 -23 204q21 104 105 204l-125 156l105 88l125 -156q106 63 216 63t192 -63l187 156l69 -88l-187 -156q44 -100 23 -204q-20 -104 -103 -204l123 -156l-104 -87l-125 156q-108 -64 -217 -64t-191 64l-187 -156zM484 740q-19 -97 34 -164.5 t149 -67.5q100 0 181 67t101 166q19 97 -34.5 164t-151.5 67t-178.5 -67t-100.5 -165z" />
<glyph unicode="&#xa5;" d="M225 345l23 114h296l34 168h-296l22 113h296l-280 740h228l211 -558h2l434 558h177l-575 -740h296l-22 -113h-296l-34 -168h296l-23 -114h-296l-68 -345h-197l68 345h-296z" />
<glyph unicode="&#xa6;" horiz-adv-x="532" d="M132 -296l148 740h148l-148 -740h-148zM359 839l148 740h148l-148 -740h-148z" />
<glyph unicode="&#xa7;" d="M77 -260l36 180q223 -105 388 -105q130 0 221 50t107 130q13 67 -22.5 105.5t-166.5 100.5l-162 76q-264 125 -222 336q30 151 206 299q-122 94 -93 240q33 165 182.5 265t360.5 100q150 0 335 -47l-32 -160q-189 59 -334 59q-130 0 -220 -51t-107 -134 q-21 -108 140 -178l125 -55q190 -83 253.5 -162t38.5 -204q-28 -142 -210 -308q145 -95 110 -268q-31 -157 -183 -250t-379 -93q-153 0 -372 74zM438 661q-27 -133 184 -230l194 -90q93 99 112 194q15 72 -23.5 118.5t-152.5 99.5l-203 93q-92 -90 -111 -185z" />
<glyph unicode="&#xa8;" horiz-adv-x="682" d="M313 1283l34 173h173l-34 -173h-173zM708 1283l34 173h173l-34 -173h-173z" />
<glyph unicode="&#xa9;" horiz-adv-x="1509" d="M162 740q62 307 322 523.5t566 216.5t480 -216.5t113 -521.5q-62 -311 -322.5 -526.5t-574.5 -215.5q-299 0 -471.5 218.5t-112.5 521.5zM268 740q-51 -259 96.5 -446.5t402.5 -187.5q269 0 493.5 185t277.5 450q52 261 -97.5 447.5t-411.5 186.5t-485 -186.5 t-276 -448.5zM519 735q39 193 174 307.5t323 114.5q89 0 211 -24l23 -5l-24 -118q-116 53 -221 53q-125 0 -220 -89t-124 -235t33.5 -231t199.5 -85q108 0 227 59l-24 -118q-144 -47 -251 -47q-181 0 -272 117t-55 301z" />
<glyph unicode="&#xaa;" horiz-adv-x="758" d="M287 1009q46 228 388 228h48l14 70q22 110 -97 110q-103 0 -224 -59l22 111q133 49 248 49q242 0 200 -207l-59 -298q-18 -91 39 -91q9 0 24 2l-10 -83q-53 -19 -100 -19q-101 0 -108 93h-5q-118 -93 -221 -93q-86 0 -130.5 53t-28.5 134zM439 1029q-19 -97 79 -97 q69 0 157 64l30 154h-38q-204 0 -228 -121z" />
<glyph unicode="&#xab;" d="M223 543l484 444l83 -74l-370 -370l222 -370l-113 -74zM618 543l484 444l83 -74l-370 -370l222 -370l-113 -74z" />
<glyph unicode="&#xac;" horiz-adv-x="1196" d="M233 740l30 148h987l-118 -592h-148l88 444h-839z" />
<glyph unicode="&#xad;" horiz-adv-x="682" d="M191 518l30 148h506l-30 -148h-506z" />
<glyph unicode="&#xae;" horiz-adv-x="1509" d="M162 740q62 307 322 523.5t566 216.5t480 -216.5t113 -521.5q-62 -311 -322.5 -526.5t-574.5 -215.5q-299 0 -471.5 218.5t-112.5 521.5zM268 740q-51 -259 96.5 -446.5t402.5 -187.5q269 0 493.5 185t277.5 450q52 261 -97.5 447.5t-411.5 186.5t-485 -186.5 t-276 -448.5zM578 337l160 800h252q242 0 203 -196q-29 -144 -187 -232l167 -372h-149l-149 334h-101l-67 -334h-129zM785 770h36q212 0 244 157q25 128 -152 128h-71z" />
<glyph unicode="&#xaf;" d="M389 1456l30 148h941l-30 -148h-941z" />
<glyph unicode="&#xb0;" horiz-adv-x="819" d="M357 1221q25 123 129.5 209.5t226.5 86.5t191.5 -86.5t45.5 -208.5q-25 -124 -129.5 -210.5t-230.5 -86.5q-119 0 -188 87.5t-45 208.5zM480 1221q-14 -70 26.5 -121t110.5 -51q73 0 134 50t76 123q14 71 -27 121.5t-112 50.5t-132 -50.5t-76 -122.5z" />
<glyph unicode="&#xb1;" horiz-adv-x="1196" d="M104 0l29 148h987l-29 -148h-987zM237 666l29 148h419l74 370h149l-74 -370h419l-29 -148h-419l-74 -370h-149l74 370h-419z" />
<glyph unicode="&#xb2;" horiz-adv-x="682" d="M192 592l24 122q92 117 226 219l82 62q184 138 208 257q29 149 -134 149q-96 0 -236 -69l23 117q138 54 263 54q131 0 197.5 -68t44.5 -178q-28 -139 -242 -290l-62 -44q-155 -109 -198 -209h389l-24 -122h-561z" />
<glyph unicode="&#xb3;" horiz-adv-x="682" d="M193 599l25 122q120 -51 198 -51q184 0 217 164q36 181 -224 181h-51l19 93h44q244 0 277 166q26 129 -130 129q-92 0 -212 -50l22 112q118 38 234 38q282 0 240 -210q-32 -157 -235 -222q210 -50 172 -238q-24 -122 -125 -192.5t-251 -70.5q-107 0 -220 29z" />
<glyph unicode="&#xb4;" horiz-adv-x="682" d="M363 1283l305 321h228l-385 -321h-148z" />
<glyph unicode="&#xb5;" d="M70 -395l296 1481h197l-144 -716q-26 -131 -8 -178t95 -47q167 0 364 237l141 704h197l-217 -1086h-197l40 203q-196 -222 -364 -222q-64 0 -120 44l-83 -420h-197z" />
<glyph unicode="&#xb6;" horiz-adv-x="1100" d="M330 1154q35 177 146 251.5t338 74.5h375l-355 -1776h-113l331 1653h-168l-331 -1653h-114l207 1036q-174 14 -263 123t-53 291z" />
<glyph unicode="&#xb7;" horiz-adv-x="547" d="M317 839l50 247h247l-50 -247h-247z" />
<glyph unicode="&#xb8;" horiz-adv-x="682" d="M85 -411l17 81q43 -15 102 -15q103 0 117 74q20 96 -167 96l130 175h97l-82 -109q78 0 126.5 -47.5t35.5 -111.5q-14 -69 -82 -116.5t-152 -47.5q-71 0 -142 21z" />
<glyph unicode="&#xb9;" horiz-adv-x="682" d="M383 1302l22 114l363 87l-182 -911h-148l151 759z" />
<glyph unicode="&#xba;" horiz-adv-x="748" d="M307 1170q32 160 131.5 253.5t238.5 93.5q138 0 199.5 -93t29.5 -253q-32 -163 -131 -256t-241 -93q-136 0 -197 94.5t-30 253.5zM464 1170q-49 -246 92 -246q144 0 194 248q48 244 -94 244q-143 0 -192 -246z" />
<glyph unicode="&#xbb;" d="M170 173l370 370l-222 370l114 74l305 -444l-483 -444zM565 173l370 370l-222 370l113 74l306 -444l-484 -444z" />
<glyph unicode="&#xbc;" horiz-adv-x="1708" d="M183 -37l1399 1554h135l-1399 -1554h-135zM376 1302l22 114l363 87l-182 -911h-148l151 759zM966 242l22 113l510 533h140l-106 -529h123l-23 -117h-123l-48 -242h-136l48 242h-407zM1118 359h278l73 364z" />
<glyph unicode="&#xbd;" horiz-adv-x="1708" d="M132 -37l1399 1554h136l-1399 -1554h-136zM376 1302l22 114l363 87l-182 -911h-148l151 759zM1019 0l24 122q86 113 226 219l82 62q184 138 207 257q30 149 -133 149q-95 0 -237 -69l24 117q137 53 262 53q131 0 197.5 -67.5t44.5 -178.5q-28 -139 -242 -290l-61 -43 q-155 -109 -198 -209h389l-24 -122h-561z" />
<glyph unicode="&#xbe;" horiz-adv-x="1708" d="M230 599l25 122q120 -51 198 -51q184 0 217 164q36 181 -224 181h-51l19 93h44q244 0 277 166q26 129 -130 129q-92 0 -212 -50l22 112q118 38 234 38q282 0 240 -210q-32 -157 -235 -222q210 -50 172 -238q-24 -122 -125 -192.5t-251 -70.5q-107 0 -220 29zM276 -37 l1399 1554h135l-1399 -1554h-135zM979 242l22 113l510 533h139l-106 -529h124l-23 -117h-124l-48 -242h-135l48 242h-407zM1131 359h278l73 364z" />
<glyph unicode="&#xbf;" horiz-adv-x="1251" d="M168 -85q35 180 250 300l91 50q112 61 160 126.5t72 188.5l23 111h197l-11 -55q-49 -244 -238 -372l-103 -69q-203 -137 -232 -281q-39 -198 236 -198q174 0 406 75l-34 -167q-222 -56 -417 -56q-470 0 -400 347zM803 888l40 198h197l-40 -198h-197z" />
<glyph unicode="&#xc0;" horiz-adv-x="1366" d="M19 0l857 1480h208l258 -1480h-226l-73 410h-594l-235 -410h-195zM541 566h476l-111 634zM750 1935h228l177 -321h-148z" />
<glyph unicode="&#xc1;" horiz-adv-x="1366" d="M19 0l857 1480h208l258 -1480h-226l-73 410h-594l-235 -410h-195zM541 566h476l-111 634zM859 1614l305 321h228l-385 -321h-148z" />
<glyph unicode="&#xc2;" horiz-adv-x="1366" d="M19 0l857 1480h208l258 -1480h-226l-73 410h-594l-235 -410h-195zM541 566h476l-111 634zM657 1614l305 321h218l177 -321h-148l-161 202h-2l-241 -202h-148z" />
<glyph unicode="&#xc3;" horiz-adv-x="1366" d="M19 0l857 1480h208l258 -1480h-226l-73 410h-594l-235 -410h-195zM541 566h476l-111 634zM678 1634q59 234 232 234q73 0 127 -38l53 -37q49 -35 79 -35q68 0 99 110h123q-58 -234 -232 -234q-73 0 -127 39l-53 37q-49 34 -79 34q-68 0 -99 -110h-123z" />
<glyph unicode="&#xc4;" horiz-adv-x="1366" d="M19 0l857 1480h208l258 -1480h-226l-73 410h-594l-235 -410h-195zM541 566h476l-111 634zM727 1634l35 173h173l-35 -173h-173zM1122 1634l35 173h173l-35 -173h-173z" />
<glyph unicode="&#xc5;" horiz-adv-x="1366" d="M19 0l857 1480h81q-76 8 -121 67q-53 67 -34 162q19 93 98 159.5t174 66.5q94 0 147.5 -66t34.5 -160q-19 -96 -99 -162q-72 -60 -158 -67h85l258 -1480h-226l-73 410h-594l-235 -410h-195zM541 566h476l-111 634zM889 1709q-12 -58 20.5 -100t89.5 -42q60 0 109 41 t61 101q12 58 -21 98.5t-91 40.5q-59 0 -107.5 -40t-60.5 -99z" />
<glyph unicode="&#xc6;" horiz-adv-x="2048" d="M19 0l1235 1480h988l-31 -157h-722l-95 -475h622l-31 -155h-622l-107 -536h765l-31 -157h-975l82 414h-517l-344 -414h-217zM710 569h418l132 658z" />
<glyph unicode="&#xc7;" horiz-adv-x="1479" d="M263 739q76 378 310 578t601 200q213 0 466 -65l-40 -197q-285 105 -465 105q-255 0 -420.5 -159.5t-226.5 -463.5q-58 -291 53 -450.5t372 -159.5q223 0 490 129l-36 -180q-242 -113 -512 -113h-20l-53 -72q78 0 126.5 -47.5t35.5 -111.5q-14 -69 -82 -116.5t-152 -47.5 q-71 0 -142 21l17 81q43 -15 102 -15q103 0 117 74q20 96 -167 96l105 143q-277 27 -404 193q-151 198 -75 578z" />
<glyph unicode="&#xc8;" horiz-adv-x="1366" d="M190 0l295 1480h1073l-31 -157h-863l-95 -475h764l-31 -155h-764l-107 -536h907l-31 -157h-1117zM810 1935h228l177 -321h-148z" />
<glyph unicode="&#xc9;" horiz-adv-x="1366" d="M190 0l295 1480h1073l-31 -157h-863l-95 -475h764l-31 -155h-764l-107 -536h907l-31 -157h-1117zM919 1614l305 321h228l-385 -321h-148z" />
<glyph unicode="&#xca;" horiz-adv-x="1366" d="M190 0l295 1480h1073l-31 -157h-863l-95 -475h764l-31 -155h-764l-107 -536h907l-31 -157h-1117zM720 1614l305 321h218l177 -321h-148l-161 202h-2l-241 -202h-148z" />
<glyph unicode="&#xcb;" horiz-adv-x="1366" d="M190 0l295 1480h1073l-31 -157h-863l-95 -475h764l-31 -155h-764l-107 -536h907l-31 -157h-1117zM775 1634l35 173h173l-35 -173h-173zM1170 1634l35 173h173l-35 -173h-173z" />
<glyph unicode="&#xcc;" horiz-adv-x="817" d="M124 0l31 157h180l233 1166h-180l31 157h569l-31 -157h-180l-233 -1166h180l-31 -157h-569zM473 1935h228l177 -321h-148z" />
<glyph unicode="&#xcd;" horiz-adv-x="817" d="M124 0l31 157h180l233 1166h-180l31 157h569l-31 -157h-180l-233 -1166h180l-31 -157h-569zM582 1614l305 321h228l-385 -321h-148z" />
<glyph unicode="&#xce;" horiz-adv-x="817" d="M124 0l31 157h180l233 1166h-180l31 157h569l-31 -157h-180l-233 -1166h180l-31 -157h-569zM381 1614l305 321h218l177 -321h-148l-161 202h-2l-241 -202h-148z" />
<glyph unicode="&#xcf;" horiz-adv-x="817" d="M124 0l31 157h180l233 1166h-180l31 157h569l-31 -157h-180l-233 -1166h180l-31 -157h-569zM450 1634l35 173h173l-35 -173h-173zM846 1634l35 173h173l-35 -173h-173z" />
<glyph unicode="&#xd0;" horiz-adv-x="1489" d="M150 679l32 157h160l128 644h474q747 0 606 -705q-73 -369 -308 -572t-590 -203h-477l135 679h-160zM416 157h252q270 0 431.5 147.5t221.5 450.5q53 261 -44 410q-59 91 -159 124.5t-314 33.5h-155l-97 -487h333l-32 -157h-333z" />
<glyph unicode="&#xd1;" horiz-adv-x="1479" d="M165 0l295 1480h205l535 -1143l228 1143h180l-295 -1480h-206l-534 1143l-228 -1143h-180zM758 1634q59 234 232 234q73 0 127 -38l53 -37q49 -35 79 -35q68 0 99 110h123q-58 -234 -232 -234q-73 0 -127 39l-53 37q-49 34 -79 34q-68 0 -99 -110h-123z" />
<glyph unicode="&#xd2;" horiz-adv-x="1593" d="M240 740q71 355 305 566t555 211q320 0 469.5 -211t79.5 -563q-72 -360 -306 -570t-564 -210q-313 0 -461 213t-78 564zM465 740q-58 -290 34.5 -455t313.5 -165q233 0 392 162.5t219 460.5q58 291 -36 454t-320 163q-227 0 -385.5 -163t-217.5 -457zM861 1935h228 l177 -321h-148z" />
<glyph unicode="&#xd3;" horiz-adv-x="1593" d="M240 740q71 355 305 566t555 211q320 0 469.5 -211t79.5 -563q-72 -360 -306 -570t-564 -210q-313 0 -461 213t-78 564zM465 740q-58 -290 34.5 -455t313.5 -165q233 0 392 162.5t219 460.5q58 291 -36 454t-320 163q-227 0 -385.5 -163t-217.5 -457zM970 1614l305 321 h228l-385 -321h-148z" />
<glyph unicode="&#xd4;" horiz-adv-x="1593" d="M240 740q71 355 305 566t555 211q320 0 469.5 -211t79.5 -563q-72 -360 -306 -570t-564 -210q-313 0 -461 213t-78 564zM465 740q-58 -290 34.5 -455t313.5 -165q233 0 392 162.5t219 460.5q58 291 -36 454t-320 163q-227 0 -385.5 -163t-217.5 -457zM768 1614l305 321 h218l177 -321h-148l-161 202h-2l-241 -202h-148z" />
<glyph unicode="&#xd5;" horiz-adv-x="1593" d="M240 740q71 355 305 566t555 211q320 0 469.5 -211t79.5 -563q-72 -360 -306 -570t-564 -210q-313 0 -461 213t-78 564zM465 740q-58 -290 34.5 -455t313.5 -165q233 0 392 162.5t219 460.5q58 291 -36 454t-320 163q-227 0 -385.5 -163t-217.5 -457zM789 1634 q59 234 232 234q73 0 127 -38l53 -37q49 -35 79 -35q68 0 99 110h123q-58 -234 -232 -234q-73 0 -127 39l-53 37q-49 34 -79 34q-68 0 -99 -110h-123z" />
<glyph unicode="&#xd6;" horiz-adv-x="1593" d="M240 740q71 355 305 566t555 211q320 0 469.5 -211t79.5 -563q-72 -360 -306 -570t-564 -210q-313 0 -461 213t-78 564zM465 740q-58 -290 34.5 -455t313.5 -165q233 0 392 162.5t219 460.5q58 291 -36 454t-320 163q-227 0 -385.5 -163t-217.5 -457zM838 1634l35 173 h173l-35 -173h-173zM1233 1634l35 173h173l-35 -173h-173z" />
<glyph unicode="&#xd7;" horiz-adv-x="1196" d="M149 207l462 385l-308 385l126 105l308 -385l462 385l84 -105l-462 -385l308 -385l-126 -105l-308 385l-462 -385z" />
<glyph unicode="&#xd8;" horiz-adv-x="1593" d="M96 -37l218 221q-142 216 -73 557q70 354 304 565t554 211q251 0 400 -133l133 133h172l-225 -227q136 -217 69 -550q-71 -355 -304.5 -566t-554.5 -211q-242 0 -393 128l-128 -128h-172zM466 744q-49 -246 7 -399l884 895q-103 120 -289 120q-226 0 -385 -163t-217 -453 zM537 235q100 -115 283 -115q226 0 385.5 163t217.5 454q48 242 -4 390z" />
<glyph unicode="&#xd9;" horiz-adv-x="1479" d="M275 548l186 932h210l-186 -934q-32 -158 -21 -231.5t72 -124.5q84 -70 254 -70q200 0 299.5 93.5t145.5 325.5l188 941h184l-187 -938q-40 -198 -99.5 -300t-179.5 -178q-160 -101 -394 -101q-307 0 -420 140t-52 445zM817 1935h228l177 -321h-148z" />
<glyph unicode="&#xda;" horiz-adv-x="1479" d="M275 548l186 932h210l-186 -934q-32 -158 -21 -231.5t72 -124.5q84 -70 254 -70q200 0 299.5 93.5t145.5 325.5l188 941h184l-187 -938q-40 -198 -99.5 -300t-179.5 -178q-160 -101 -394 -101q-307 0 -420 140t-52 445zM926 1614l305 321h228l-385 -321h-148z" />
<glyph unicode="&#xdb;" horiz-adv-x="1479" d="M275 548l186 932h210l-186 -934q-32 -158 -21 -231.5t72 -124.5q84 -70 254 -70q200 0 299.5 93.5t145.5 325.5l188 941h184l-187 -938q-40 -198 -99.5 -300t-179.5 -178q-160 -101 -394 -101q-307 0 -420 140t-52 445zM724 1614l305 321h218l177 -321h-148l-161 202h-2 l-241 -202h-148z" />
<glyph unicode="&#xdc;" horiz-adv-x="1479" d="M275 548l186 932h210l-186 -934q-32 -158 -21 -231.5t72 -124.5q84 -70 254 -70q200 0 299.5 93.5t145.5 325.5l188 941h184l-187 -938q-40 -198 -99.5 -300t-179.5 -178q-160 -101 -394 -101q-307 0 -420 140t-52 445zM794 1634l35 173h173l-35 -173h-173zM1189 1634 l35 173h173l-35 -173h-173z" />
<glyph unicode="&#xdd;" horiz-adv-x="1366" d="M325 1480h240l284 -685l588 685h195l-737 -858l-124 -622h-210l123 617zM865 1614l305 321h228l-385 -321h-148z" />
<glyph unicode="&#xde;" horiz-adv-x="1366" d="M167 0l295 1480h210l-56 -279h370q228 0 322.5 -26.5t144.5 -103.5q60 -95 27 -258q-101 -505 -734 -505h-310l-61 -308h-208zM468 467h301q420 0 486 330q28 143 -48 194.5t-318 51.5h-306z" />
<glyph unicode="&#xdf;" horiz-adv-x="1323" d="M150 0l140 703q30 151 101.5 250t171.5 157t223 81t258 23q38 0 82 -2t88.5 -7t88.5 -13.5t81 -21.5l-32 -160q-15 8 -35.5 18.5t-46.5 19.5t-58 15.5t-71 6.5q-43 0 -78 -14.5t-61.5 -38t-43.5 -54t-23 -62.5q-6 -26 -4.5 -50t13 -48t34 -48.5t61.5 -51.5l63 -46 q47 -35 86.5 -69.5t66.5 -74t37.5 -88t-1.5 -109.5q-19 -92 -64.5 -157.5t-110.5 -107.5t-145.5 -61.5t-169.5 -19.5q-30 0 -66 4t-73.5 11t-73 17t-64.5 21l34 169q44 -23 84 -38t77 -24t71 -12.5t68 -3.5q43 0 79 13t63 35t44.5 52t24.5 64q8 39 0 68.5t-26.5 53.5 t-44.5 44.5t-54 41.5l-70 52q-49 36 -82 71.5t-51 72.5t-22 77.5t6 87.5q16 79 53.5 133t84.5 90q-62 -2 -119 -22t-105 -63t-84.5 -112.5t-56.5 -170.5l-140 -702h-208z" />
<glyph unicode="&#xe0;" horiz-adv-x="1138" d="M12 0l690 1184h207l214 -1184h-217l-57 322h-463l-186 -322h-188zM469 463h354l-78 480zM586 1694h228l177 -321h-148z" />
<glyph unicode="&#xe1;" horiz-adv-x="1138" d="M12 0l690 1184h207l214 -1184h-217l-57 322h-463l-186 -322h-188zM469 463h354l-78 480zM694 1373l305 321h228l-385 -321h-148z" />
<glyph unicode="&#xe2;" horiz-adv-x="1138" d="M12 0l690 1184h207l214 -1184h-217l-57 322h-463l-186 -322h-188zM469 463h354l-78 480zM493 1373l305 321h218l177 -321h-148l-161 202h-2l-241 -202h-148z" />
<glyph unicode="&#xe3;" horiz-adv-x="1138" d="M12 0l690 1184h207l214 -1184h-217l-57 322h-463l-186 -322h-188zM469 463h354l-78 480zM507 1383q59 234 232 234q73 0 127 -38l53 -37q49 -35 79 -35q68 0 99 110h123q-58 -234 -232 -234q-73 0 -127 39l-53 37q-49 34 -79 34q-68 0 -99 -110h-123z" />
<glyph unicode="&#xe4;" horiz-adv-x="1138" d="M12 0l690 1184h207l214 -1184h-217l-57 322h-463l-186 -322h-188zM469 463h354l-78 480zM562 1383l34 173h173l-34 -173h-173zM957 1383l34 173h173l-34 -173h-173z" />
<glyph unicode="&#xe5;" horiz-adv-x="1138" d="M12 0l690 1184h207l214 -1184h-217l-57 322h-463l-186 -322h-188zM469 463h354l-78 480zM662 1590q19 94 98.5 160.5t174.5 66.5q94 0 147 -66t34 -160q-19 -96 -98.5 -162t-176.5 -66q-92 0 -145 66.5t-34 160.5zM748 1590q-11 -58 21.5 -99.5t89.5 -41.5q60 0 109.5 41 t61.5 101q12 58 -21.5 98.5t-91.5 40.5q-59 0 -108 -40.5t-61 -99.5z" />
<glyph unicode="&#xe6;" horiz-adv-x="1643" d="M10 0l970 1184h808l-29 -144h-560l-71 -355h476l-28 -144h-476l-79 -395h596l-29 -146h-799l63 318h-397l-260 -318h-185zM569 457h311l100 501z" />
<glyph unicode="&#xe7;" horiz-adv-x="1190" d="M190 325.5q-17 115.5 13 265.5q30 151 93.5 267.5t159 195.5t220.5 119.5t279 40.5q94 0 188.5 -12.5t192.5 -36.5l-35 -175q-218 80 -367 80q-205 0 -334 -121t-176 -357q-23 -114 -12.5 -202t54 -148t118.5 -90.5t181 -30.5q183 0 388 96l-33 -163q-165 -72 -361 -82 l-60 -81q78 0 126.5 -47.5t35.5 -111.5q-14 -69 -82 -116.5t-152 -47.5q-71 0 -142 21l17 81q43 -15 102 -15q103 0 117 74q20 96 -167 96l108 146q-128 4 -223 40q-107 41 -169.5 120t-79.5 194.5z" />
<glyph unicode="&#xe8;" horiz-adv-x="1110" d="M155 0l236 1184h864l-29 -144h-657l-71 -355h573l-28 -142h-573l-79 -397h693l-29 -146h-900zM587 1694h228l177 -321h-148z" />
<glyph unicode="&#xe9;" horiz-adv-x="1110" d="M155 0l236 1184h864l-29 -144h-657l-71 -355h573l-28 -142h-573l-79 -397h693l-29 -146h-900zM696 1373l305 321h228l-385 -321h-148z" />
<glyph unicode="&#xea;" horiz-adv-x="1110" d="M155 0l236 1184h864l-29 -144h-657l-71 -355h573l-28 -142h-573l-79 -397h693l-29 -146h-900zM515 1373l305 321h218l177 -321h-148l-161 202h-2l-241 -202h-148z" />
<glyph unicode="&#xeb;" horiz-adv-x="1110" d="M155 0l236 1184h864l-29 -144h-657l-71 -355h573l-28 -142h-573l-79 -397h693l-29 -146h-900zM572 1383l34 173h173l-34 -173h-173zM967 1383l34 173h173l-34 -173h-173z" />
<glyph unicode="&#xec;" horiz-adv-x="748" d="M115 0l29 146h156l178 891h-156l29 147h518l-29 -147h-156l-178 -891h156l-29 -146h-518zM446 1694h228l177 -321h-148z" />
<glyph unicode="&#xed;" horiz-adv-x="709" d="M115 0l29 146h156l178 891h-156l29 147h518l-29 -147h-156l-178 -891h156l-29 -146h-518zM500 1373l305 321h228l-385 -321h-148z" />
<glyph unicode="&#xee;" horiz-adv-x="748" d="M115 0l29 146h156l178 891h-156l29 147h518l-29 -147h-156l-178 -891h156l-29 -146h-518zM299 1373l305 321h218l177 -321h-148l-161 202h-2l-241 -202h-148z" />
<glyph unicode="&#xef;" horiz-adv-x="748" d="M115 0l29 146h156l178 891h-156l29 147h518l-29 -147h-156l-178 -891h156l-29 -146h-518zM366 1383l34 173h173l-34 -173h-173zM761 1383l34 173h173l-34 -173h-173z" />
<glyph unicode="&#xf0;" horiz-adv-x="1187" d="M112 534l28 137h133l102 513h395q287 0 407 -144t64 -422q-29 -147 -92 -261.5t-155 -194t-210 -121t-259 -41.5h-386l106 534h-133zM375 146h94q25 0 49 1t47 3q185 12 297 124t155 329q41 203 -35 318q-22 32 -48.5 54.5t-63 37t-85.5 21t-114 6.5h-118l-73 -369h217 l-28 -137h-217z" />
<glyph unicode="&#xf1;" horiz-adv-x="1222" d="M155 0l236 1184h191l377 -872l174 872h170l-236 -1184h-192l-375 872l-174 -872h-171zM549 1383q59 234 232 234q73 0 127 -38l53 -37q49 -35 79 -35q68 0 99 110h123q-58 -234 -232 -234q-73 0 -127 39l-53 37q-49 34 -79 34q-68 0 -99 -110h-123z" />
<glyph unicode="&#xf2;" horiz-adv-x="1307" d="M203 592q57 287 244 454q185 168 449 168q261 0 381 -168q120 -167 63 -452q-58 -292 -245 -458q-186 -166 -456 -166q-257 0 -375 168q-118 169 -61 454zM424 592q-45 -225 21 -350q65 -128 225 -128q170 0 286 125q117 124 163 355q45 224 -22 350q-66 126 -230 126 q-165 0 -282 -126q-116 -126 -161 -352zM671 1694h228l177 -321h-148z" />
<glyph unicode="&#xf3;" horiz-adv-x="1307" d="M203 592q57 287 244 454q185 168 449 168q261 0 381 -168q120 -167 63 -452q-58 -292 -245 -458q-186 -166 -456 -166q-257 0 -375 168q-118 169 -61 454zM424 592q-45 -225 21 -350q65 -128 225 -128q170 0 286 125q117 124 163 355q45 224 -22 350q-66 126 -230 126 q-165 0 -282 -126q-116 -126 -161 -352zM780 1373l305 321h228l-385 -321h-148z" />
<glyph unicode="&#xf4;" horiz-adv-x="1307" d="M203 592q57 287 244 454q185 168 449 168q261 0 381 -168q120 -167 63 -452q-58 -292 -245 -458q-186 -166 -456 -166q-257 0 -375 168q-118 169 -61 454zM424 592q-45 -225 21 -350q65 -128 225 -128q170 0 286 125q117 124 163 355q45 224 -22 350q-66 126 -230 126 q-165 0 -282 -126q-116 -126 -161 -352zM579 1373l305 321h218l177 -321h-148l-161 202h-2l-241 -202h-148z" />
<glyph unicode="&#xf5;" horiz-adv-x="1307" d="M203 592q57 287 244 454q185 168 449 168q261 0 381 -168q120 -167 63 -452q-58 -292 -245 -458q-186 -166 -456 -166q-257 0 -375 168q-118 169 -61 454zM424 592q-45 -225 21 -350q65 -128 225 -128q170 0 286 125q117 124 163 355q45 224 -22 350q-66 126 -230 126 q-165 0 -282 -126q-116 -126 -161 -352zM597 1383q59 234 232 234q73 0 127 -38l53 -37q49 -35 79 -35q68 0 99 110h123q-58 -234 -232 -234q-73 0 -127 39l-53 37q-49 34 -79 34q-68 0 -99 -110h-123z" />
<glyph unicode="&#xf6;" horiz-adv-x="1307" d="M203 592q57 287 244 454q185 168 449 168q261 0 381 -168q120 -167 63 -452q-58 -292 -245 -458q-186 -166 -456 -166q-257 0 -375 168q-118 169 -61 454zM424 592q-45 -225 21 -350q65 -128 225 -128q170 0 286 125q117 124 163 355q45 224 -22 350q-66 126 -230 126 q-165 0 -282 -126q-116 -126 -161 -352zM646 1383l34 173h173l-34 -173h-173zM1041 1383l34 173h173l-34 -173h-173z" />
<glyph unicode="&#xf7;" horiz-adv-x="1196" d="M207 518l30 148h987l-30 -148h-987zM474 0l49 247h247l-49 -247h-247zM661 938l49 246h247l-49 -246h-247z" />
<glyph unicode="&#xf8;" horiz-adv-x="1274" d="M68 -30l175 178q-110 177 -56 444q57 287 244 454q185 168 449 168q206 0 322 -101l101 101h145l-180 -180q109 -177 56 -442q-58 -289 -245 -455q-185 -167 -449 -167q-202 0 -320 100l-98 -100h-144zM405 310l658 662q-72 98 -213 98q-164 0 -281 -126 q-116 -126 -161 -350q-33 -164 -3 -284zM450 210q69 -96 209 -96q165 0 281 126q117 124 162 350q33 162 4 280z" />
<glyph unicode="&#xf9;" horiz-adv-x="1222" d="M221 321.5q4 56.5 18 127.5l147 735h208l-147 -737q-24 -121 -15 -185q8 -68 65.5 -108t157.5 -40q66 0 115.5 18.5t88.5 57.5t65.5 99.5t43.5 145.5l150 749h190l-148 -739q-32 -161 -80 -245q-29 -50 -74 -92t-104.5 -73t-130.5 -48t-151 -17q-114 0 -193.5 26 t-129.5 77q-30 29 -48 65t-25 81.5t-3 102zM637 1694h228l177 -321h-148z" />
<glyph unicode="&#xfa;" horiz-adv-x="1222" d="M221 321.5q4 56.5 18 127.5l147 735h208l-147 -737q-24 -121 -15 -185q8 -68 65.5 -108t157.5 -40q66 0 115.5 18.5t88.5 57.5t65.5 99.5t43.5 145.5l150 749h190l-148 -739q-32 -161 -80 -245q-29 -50 -74 -92t-104.5 -73t-130.5 -48t-151 -17q-114 0 -193.5 26 t-129.5 77q-30 29 -48 65t-25 81.5t-3 102zM545 1373l305 321h218l177 -321h-148l-161 202h-2l-241 -202h-148z" />
<glyph unicode="&#xfb;" horiz-adv-x="1222" d="M221 321.5q4 56.5 18 127.5l147 735h208l-147 -737q-24 -121 -15 -185q8 -68 65.5 -108t157.5 -40q66 0 115.5 18.5t88.5 57.5t65.5 99.5t43.5 145.5l150 749h190l-148 -739q-32 -161 -80 -245q-29 -50 -74 -92t-104.5 -73t-130.5 -48t-151 -17q-114 0 -193.5 26 t-129.5 77q-30 29 -48 65t-25 81.5t-3 102zM746 1373l305 321h228l-385 -321h-148z" />
<glyph unicode="&#xfc;" horiz-adv-x="1222" d="M221 321.5q4 56.5 18 127.5l147 735h208l-147 -737q-24 -121 -15 -185q8 -68 65.5 -108t157.5 -40q66 0 115.5 18.5t88.5 57.5t65.5 99.5t43.5 145.5l150 749h190l-148 -739q-32 -161 -80 -245q-29 -50 -74 -92t-104.5 -73t-130.5 -48t-151 -17q-114 0 -193.5 26 t-129.5 77q-30 29 -48 65t-25 81.5t-3 102zM612 1383l34 173h173l-34 -173h-173zM1007 1383l34 173h173l-34 -173h-173z" />
<glyph unicode="&#xfd;" horiz-adv-x="1097" d="M261 1184h232l196 -524l423 524h196l-568 -686l-99 -498h-207l98 494zM684 1373l305 321h228l-385 -321h-148z" />
<glyph unicode="&#xfe;" horiz-adv-x="1093" d="M136 0l236 1184h205l-45 -225h265q172 0 247 -21q73 -19 113 -78q53 -76 26 -214q-81 -404 -589 -404h-206l-48 -242h-204zM417 386h175q324 0 372 242q21 106 -35 146t-226 40h-201z" />
<glyph unicode="&#xff;" horiz-adv-x="1097" d="M261 1184h232l196 -524l423 524h196l-568 -686l-99 -498h-207l98 494zM550 1383l34 173h173l-34 -173h-173zM945 1383l34 173h173l-34 -173h-173z" />
<glyph unicode="&#x152;" horiz-adv-x="2048" d="M240 740q72 356 303 566.5t549 210.5q185 0 321 -94l11 57h818l-31 -157h-608l-95 -475h509l-31 -155h-509l-107 -536h652l-31 -157h-862l11 58q-176 -95 -371 -95q-308 0 -453.5 213.5t-75.5 563.5zM463 740q-58 -294 34 -457t318 -163q337 0 427 449l69 342 q47 236 -13 342.5t-239 106.5q-223 0 -380 -163t-216 -457z" />
<glyph unicode="&#x153;" horiz-adv-x="1638" d="M174 335q-16 115 13 257q28 143 90 258t151.5 195.5t202.5 124.5t243 44q135 0 236 -53l5 23h676l-29 -144h-489l-71 -355h405l-28 -142h-405l-79 -397h525l-29 -146h-712l4 23q-122 -53 -262 -53q-128 0 -222.5 44t-151.5 125t-73 196zM389.5 390.5q5.5 -88.5 37.5 -150 t89 -94t138 -32.5q186 0 268 210l77 386q35 171 26 287q-61 73 -182 73q-80 0 -150.5 -33t-126 -94.5t-96.5 -150.5t-63 -200q-23 -113 -17.5 -201.5z" />
<glyph unicode="&#x178;" horiz-adv-x="1366" d="M325 1480h240l284 -685l588 685h195l-737 -858l-124 -622h-210l123 617zM748 1634l35 173h173l-35 -173h-173zM1143 1634l35 173h173l-35 -173h-173z" />
<glyph unicode="&#x2c6;" horiz-adv-x="682" d="M247 1283l305 321h218l177 -321h-148l-161 202h-2l-241 -202h-148z" />
<glyph unicode="&#x2dc;" horiz-adv-x="682" d="M266 1293q59 234 232 234q73 0 127 -38l53 -37q49 -35 79 -35q68 0 99 110h123q-58 -234 -232 -234q-73 0 -127 39l-53 37q-49 34 -79 34q-68 0 -99 -110h-123z" />
<glyph unicode="&#x2000;" horiz-adv-x="967" />
<glyph unicode="&#x2001;" horiz-adv-x="1935" />
<glyph unicode="&#x2002;" horiz-adv-x="967" />
<glyph unicode="&#x2003;" horiz-adv-x="1935" />
<glyph unicode="&#x2004;" horiz-adv-x="645" />
<glyph unicode="&#x2005;" horiz-adv-x="483" />
<glyph unicode="&#x2006;" horiz-adv-x="322" />
<glyph unicode="&#x2007;" horiz-adv-x="322" />
<glyph unicode="&#x2008;" horiz-adv-x="241" />
<glyph unicode="&#x2009;" horiz-adv-x="387" />
<glyph unicode="&#x200a;" horiz-adv-x="107" />
<glyph unicode="&#x2010;" horiz-adv-x="1196" d="M207 518l30 148h988l-30 -148h-988z" />
<glyph unicode="&#x2011;" horiz-adv-x="1196" d="M207 518l30 148h988l-30 -148h-988z" />
<glyph unicode="&#x2012;" horiz-adv-x="1196" d="M207 518l30 148h988l-30 -148h-988z" />
<glyph unicode="&#x2013;" horiz-adv-x="1024" d="M236 543l30 148h768l-30 -148h-768z" />
<glyph unicode="&#x2014;" horiz-adv-x="2048" d="M236 543l30 148h1792l-30 -148h-1792z" />
<glyph unicode="&#x2018;" horiz-adv-x="455" d="M294 1012l42 214q66 326 318 353l-15 -74q-101 -27 -141 -226l-4 -21h96l-49 -246h-247z" />
<glyph unicode="&#x2019;" horiz-adv-x="455" d="M318 1012l15 74q101 27 141 226l4 20h-96l49 247h247l-43 -214q-65 -329 -317 -353z" />
<glyph unicode="&#x201a;" horiz-adv-x="455" d="M44 -296l15 74q102 27 137 202l4 20h-96l49 247h247l-43 -214q-60 -303 -313 -329z" />
<glyph unicode="&#x201c;" horiz-adv-x="854" d="M262 1012l42 214q66 326 318 353l-15 -74q-101 -27 -141 -226l-4 -21h96l-49 -246h-247zM709 1012l42 214q66 326 318 353l-15 -74q-101 -27 -141 -226l-4 -21h96l-49 -246h-247z" />
<glyph unicode="&#x201d;" horiz-adv-x="854" d="M302 1012l15 74q101 27 141 226l4 20h-96l49 247h247l-43 -214q-65 -329 -317 -353zM749 1012l15 74q101 27 141 226l4 20h-96l49 247h247l-43 -214q-65 -329 -317 -353z" />
<glyph unicode="&#x201e;" horiz-adv-x="854" d="M36 -320l14 74q102 27 142 226l4 20h-96l49 247h247l-43 -214q-66 -329 -317 -353zM483 -320l14 74q102 27 142 226l4 20h-96l49 247h247l-43 -214q-66 -329 -317 -353z" />
<glyph unicode="&#x2022;" horiz-adv-x="717" d="M247 833q23 115 120.5 196t212.5 81t180 -81.5t42 -197.5q-23 -115 -121.5 -195.5t-216.5 -80.5q-111 0 -175.5 82t-41.5 196z" />
<glyph unicode="&#x2026;" horiz-adv-x="2048" d="M188 0l51 257h257l-51 -257h-257zM895 0l51 257h257l-51 -257h-257zM1602 0l51 257h257l-51 -257h-257z" />
<glyph unicode="&#x202f;" horiz-adv-x="387" />
<glyph unicode="&#x2039;" horiz-adv-x="682" d="M182 543l484 444l83 -74l-370 -370l222 -370l-113 -74z" />
<glyph unicode="&#x203a;" horiz-adv-x="682" d="M148 173l370 370l-222 370l114 74l305 -444l-483 -444z" />
<glyph unicode="&#x205f;" horiz-adv-x="483" />
<glyph unicode="&#x20ac;" d="M107 537l75 123h111l13 75q8 40 30 122h-165l76 124h132q216 534 707 534q128 0 286 -44l-36 -182q-149 71 -280 71q-301 0 -477 -379h567l-76 -124h-537q-21 -81 -29 -121l-14 -76h459l-75 -123h-390q8 -410 315 -410q129 0 320 72l-34 -172q-205 -64 -341 -64 q-485 0 -460 574h-177z" />
<glyph unicode="&#x2122;" horiz-adv-x="2048" d="M491 1357l24 123h666l-24 -123h-247l-124 -617h-172l124 617h-247zM1157 740l148 740h233l71 -427l235 427h213l-148 -740h-163l110 547l-270 -485h-108l-81 462l-105 -524h-135z" />
<glyph unicode="&#x25fc;" horiz-adv-x="1185" d="M0 0v1185h1185v-1185h-1185z" />
<glyph unicode="&#xfb01;" horiz-adv-x="1757" d="M155 0l236 1184h814l-29 -144h-607l-75 -378h523l-29 -144h-523l-103 -518h-207zM1124 0l27 140h156l180 900h-156l29 144h518l-29 -144h-156l-180 -900h156l-27 -140h-518z" />
<glyph unicode="&#xfb02;" horiz-adv-x="1983" d="M155 0l236 1184h814l-29 -144h-607l-75 -378h523l-29 -144h-523l-103 -518h-207zM1164 0l236 1184h207l-207 -1038h592l-29 -146h-799z" />
</font>
</defs>
</svg>
