<?xml version="1.0" standalone="no"?>
<!DOCTYPE svg PUBLIC "-//W3C//DTD SVG 1.1//EN" "http://www.w3.org/Graphics/SVG/1.1/DTD/svg11.dtd" >
<svg xmlns="http://www.w3.org/2000/svg" xmlns:xlink="http://www.w3.org/1999/xlink" version="1.1">
<metadata></metadata>
<defs>
<font id="go_monoregular" horiz-adv-x="1229" >
<font-face units-per-em="2048" ascent="1638" descent="-410" />
<missing-glyph horiz-adv-x="500" />
<glyph />
<glyph />
<glyph unicode="&#xd;" />
<glyph unicode=" " />
<glyph unicode="!" d="M500 0v262h267v-262h-267zM521 1086v394h225v-394l-37 -627h-151z" />
<glyph unicode="&#x22;" d="M240 1579h247l-50 -627h-148zM743 1579h246l-49 -627h-148z" />
<glyph unicode="#" d="M41 444l31 124h235l86 345h-284l31 123h284l111 444h136l-111 -444h259l111 444h136l-111 -444h234l-31 -123h-234l-87 -345h284l-31 -124h-283l-111 -444h-136l111 444h-259l-111 -444h-136l111 444h-235zM442 568h260l86 345h-259z" />
<glyph unicode="$" d="M143 86v299h123l25 -198q124 -56 234 -64v575l-90 53q-255 150 -255 372q0 174 129 273q90 69 241 84v124h124v-124q161 -1 328 -72v-284h-123l-25 198q-87 35 -159 35h-21v-534l87 -47q150 -81 210 -163t60 -204q0 -197 -138 -314q-93 -80 -244 -95v-123h-124v123 q-202 16 -382 86zM358 1133q0 -130 139 -211l53 -31v466q-105 -26 -150 -86q-42 -55 -42 -138zM649 123q81 9 133 69q70 80 70 196q0 132 -136 209l-67 38v-512z" />
<glyph unicode="%" d="M21 1110q0 168 73 269q72 101 197 101t191 -101q79 -102 79 -268q0 -169 -73 -270q-72 -101 -201 -101q-110 0 -179 83q-87 105 -87 287zM61 -37l973 1554h132l-976 -1554h-129zM163 1110q0 -246 128 -246t128 247q0 246 -128 246t-128 -247zM667 371q0 167 73 268 q72 101 197 101t191 -101q79 -101 79 -267q0 -170 -73 -271t-199 -101q-112 0 -181 82q-87 105 -87 289zM809 372q0 -249 128 -249q129 0 129 247t-129 247q-128 0 -128 -245z" />
<glyph unicode="&#x26;" d="M57 413q0 178 107 315q62 80 181 161q-72 167 -72 299q0 152 84 241t231 89q152 0 226 -82q64 -71 64 -196q0 -145 -111 -261q-67 -70 -195 -143q173 -332 307 -504q89 119 90 218l-2 67h-99v123h324v-123h-72q-9 -90 -41 -177q-31 -88 -121 -200l110 -117h124v-123h-264 l-94 110q-181 -147 -356 -147q-188 0 -304 125q-117 125 -117 325zM236 441q0 -154 75 -242q75 -89 204 -89q124 0 242 98q-177 225 -352 577q-169 -131 -169 -344zM452 1198q0 -139 59 -248q2 -4 7 -12q81 54 122 109q59 80 59 185q0 162 -115 162q-132 0 -132 -196z" />
<glyph unicode="'" d="M466 1579h296l-74 -627h-148z" />
<glyph unicode="(" d="M321 642q0 419 248 702q99 113 225 175q78 38 188 60v-123q-192 -58 -304 -232q-147 -228 -147 -582q0 -373 161 -604q109 -156 290 -211v-123q-152 30 -262 102q-183 120 -294 349q-105 217 -105 487z" />
<glyph unicode=")" d="M247 -173q193 58 305 232q147 228 147 583q0 372 -161 603q-109 156 -291 211v123q153 -30 263 -102q183 -120 293 -349q105 -216 105 -486q0 -421 -247 -703q-100 -113 -225 -175q-78 -38 -189 -60v123z" />
<glyph unicode="*" d="M104 832l66 214l362 -170q-34 -36 -34 -76q0 -9 2 -26zM247 435l265 305q24 -45 85 -61l-157 -362zM506 1290h222l-58 -395q-39 15 -56 15q-19 0 -57 -15zM623 678q57 7 90 56l274 -290l-183 -128zM696 875l365 172l64 -217l-396 -54q0 3 1 9v3v4q0 49 -34 83z" />
<glyph unicode="+" d="M99 543v148h442v442h148v-442h441v-148h-441v-442h-148v442h-442z" />
<glyph unicode="," d="M447 0v336h336v-220q0 -511 -336 -511v99q112 12 134 67q20 48 26 229h-160z" />
<glyph unicode="-" d="M99 543v148h1031v-148h-1031z" />
<glyph unicode="." d="M446 0v336h336v-336h-336z" />
<glyph unicode="/" d="M99 -296l868 1875h164l-869 -1875h-163z" />
<glyph unicode="0" d="M96 741q0 361 139 568q139 208 379 208t379 -208q139 -207 139 -567q0 -366 -139 -572q-139 -207 -387 -207q-211 0 -343 169q-167 214 -167 609zM309 742q0 -135 14 -243l559 606q-17 67 -41 120q-80 169 -227 169t-226 -170q-79 -171 -79 -482zM347 376q17 -66 41 -118 q78 -172 225 -172q307 0 307 654q0 135 -15 241z" />
<glyph unicode="1" d="M113 0v123h444v1182l-444 -177v132l642 257v-1394h444v-123h-1086z" />
<glyph unicode="2" d="M133 0v173q110 186 258 320l103 93l122 112q238 218 238 421q0 125 -76 200q-75 75 -201 75q-118 0 -259 -86l-24 -235h-124v350q246 94 446 94q207 0 328 -108q120 -107 120 -291q0 -132 -55 -229q-57 -101 -201 -221l-85 -71q-220 -186 -282 -268q-56 -72 -85 -156h752 v-173h-975z" />
<glyph unicode="3" d="M185 10v374h123l25 -246q86 -52 205 -52q153 0 243 87t90 236q0 319 -416 319h-135v123h114q395 0 395 296q0 114 -73 180q-72 67 -199 67q-118 0 -202 -39l-12 -209h-124v318q193 53 358 53q453 0 453 -353q0 -163 -105 -263q-64 -59 -183 -103q105 -31 160 -65 q179 -111 179 -334q0 -194 -138 -315t-367 -121q-155 0 -306 30z" />
<glyph unicode="4" d="M84 419v149l629 912h197v-912h222v-149h-222v-296h198v-123h-642v123h272v296h-654zM238 568h500v724z" />
<glyph unicode="5" d="M249 0v321h123l25 -198q92 -37 159 -37q133 0 221 98q89 99 89 249q0 167 -119 266q-119 98 -320 98q-65 0 -147 -14v697h765v-172h-620v-392q49 3 75 3q261 0 418 -131q158 -130 158 -348q0 -208 -146 -342q-146 -135 -371 -135q-115 0 -310 37z" />
<glyph unicode="6" d="M122 710q0 385 163 596t453 211q128 0 326 -71v-317h-124l-23 210q-87 55 -178 55q-215 0 -324 -216q-77 -151 -80 -405q64 88 134 132q103 64 237 64q190 0 308 -134q118 -133 118 -349q0 -231 -137 -377t-353 -146q-244 0 -382 198q-138 199 -138 549zM350 480 q0 -160 93 -277t224 -117q111 0 179 79q86 100 86 298q0 376 -263 376q-135 0 -227 -103q-92 -102 -92 -256z" />
<glyph unicode="7" d="M145 1295v185h913v-185l-87 -119q-255 -352 -376 -711q-83 -250 -84 -465h-247q61 432 407 949l125 184l109 162h-760z" />
<glyph unicode="8" d="M120 372q0 224 238 392l55 39l-53 40q-172 130 -172 302q0 162 125 267q124 105 321 105q187 0 302 -91t115 -241q0 -118 -58 -197q-44 -59 -149 -153l-47 -42l68 -46q144 -97 196 -175q52 -77 52 -191q0 -186 -139 -302t-363 -116t-357 112q-134 112 -134 297zM317 377 q0 -128 87 -209q87 -82 222 -82q125 0 201 72q76 71 76 187q0 82 -39 135q-37 52 -150 128l-202 135q-113 -123 -152 -191q-43 -75 -43 -175zM372 1184q0 -97 127 -194l98 -75l85 -53q184 169 184 312q0 106 -64 163q-65 57 -190 57q-109 0 -175 -60q-65 -59 -65 -150z" />
<glyph unicode="9" d="M96 994q0 232 137 377q137 146 353 146q244 0 382 -198t138 -549q0 -385 -163 -596t-453 -211q-128 0 -326 71v317h123l24 -210q86 -55 178 -55q214 0 324 216q77 151 80 405q-64 -87 -134 -131q-103 -64 -238 -64q-190 0 -307 134q-118 133 -118 348zM296 1017 q0 -376 263 -376q134 0 227 103q92 102 92 256q0 160 -94 277t-224 117q-110 0 -178 -79q-86 -100 -86 -298z" />
<glyph unicode=":" d="M500 0v336h336v-336h-336zM500 774v336h336v-336h-336z" />
<glyph unicode=";" d="M500 0v336h336v-220q0 -511 -336 -511v99q112 12 134 67q20 48 26 229h-160zM500 774v336h336v-336h-336z" />
<glyph unicode="&#x3c;" d="M99 617l1032 617v-173l-743 -444l743 -444v-173z" />
<glyph unicode="=" d="M99 346v148h1031v-148h-1031zM99 740v148h1031v-148h-1031z" />
<glyph unicode="&#x3e;" d="M99 0v173l743 444l-743 444v173l1032 -617z" />
<glyph unicode="?" d="M222 1073v377q218 67 411 67q466 0 466 -337q0 -166 -147 -276q-59 -44 -68 -51l-19.5 -13t-55.5 -46.5t-82 -90.5q-45 -56 -45 -212v-52h-247v49q0 232 244 388l67 47q143 100 143 239q0 106 -71 169q-70 63 -194 63t-254 -62l-24 -259h-124zM435 0v222h247v-222h-247z " />
<glyph unicode="@" d="M87 719q0 355 162 577q162 221 426 221q393 0 393 -475v-628h118v-123h-241v367h-25q-38 -159 -104 -252q-86 -122 -195 -122q-104 0 -170 104q-67 104 -67 266q0 219 114 371q114 153 278 153q64 0 160 -26q-29 135 -103 191q-66 51 -170 51q-204 0 -328 -182 q-125 -183 -125 -479q0 -297 133 -472q132 -175 351 -175q117 0 251 64v-138q-151 -49 -254 -49q-276 0 -440 203t-164 553zM532 674q0 -109 31 -179q30 -69 76 -69q70 0 144 125q72 121 162 376v111q-83 48 -151 48q-121 0 -191 -112q-71 -112 -71 -300z" />
<glyph unicode="A" d="M25 0v123h74l421 1357h189l420 -1357h74v-123h-437v123h157l-100 321h-496l-99 -321h143v-123h-346zM366 568h419l-208 675h-2z" />
<glyph unicode="B" d="M74 0v123h173v1234h-173v123h618q374 0 374 -325q0 -168 -102 -273q-60 -63 -174 -111q98 -26 148 -56q174 -105 174 -338q0 -377 -444 -377h-594zM444 131h163q295 0 295 261q0 141 -97 227q-96 85 -264 85h-97v-573zM444 827h98q313 0 313 312q0 218 -211 218h-200 v-530z" />
<glyph unicode="C" d="M123 748q0 369 156 569t446 200q164 0 381 -64v-328h-123l-29 216q-113 53 -224 53q-187 0 -291 -176q-103 -175 -103 -484q0 -299 115 -472q116 -168 314 -168q176 0 362 138v-158q-207 -111 -388 -111q-289 0 -452 206q-164 206 -164 579z" />
<glyph unicode="D" d="M49 0v123h148v1234h-148v123h510q608 0 608 -705q0 -356 -160 -566q-160 -209 -430 -209h-528zM395 131h118q441 0 441 623q0 309 -111 456q-112 147 -344 147h-104v-1226z" />
<glyph unicode="E" d="M74 0v123h185v1234h-185v123h982v-355h-123v232h-476v-543h291v124h123v-371h-123v124h-291v-560h525v247h124v-378h-1032z" />
<glyph unicode="F" d="M111 0v123h222v1234h-222v123h1025v-370h-123v247h-483v-580h298v124h123v-371h-123v124h-298v-531h272v-123h-691z" />
<glyph unicode="G" d="M74 747q0 373 157 572q158 199 457 199q173 0 369 -62v-331h-123l-29 216q-114 54 -213 54q-405 0 -405 -658q0 -307 115 -473q115 -170 319 -170q78 0 162 32v411h-172v123h370v-586q-182 -111 -383 -111q-296 0 -460 206q-164 205 -164 578z" />
<glyph unicode="H" d="M62 0v123h111v1234h-111v123h407v-123h-99v-530h489v530h-99v123h408v-123h-111v-1234h111v-123h-408v123h99v580h-489v-580h99v-123h-407z" />
<glyph unicode="I" d="M160 0v123h355v1234h-355v123h908v-123h-355v-1234h355v-123h-908z" />
<glyph unicode="J" d="M111 31v413h123l39 -301q113 -49 194 -49q116 0 167 55q52 54 52 173v1035h-395v123h852v-123h-260v-995q0 -214 -92 -306q-92 -93 -304 -93q-158 0 -376 68z" />
<glyph unicode="K" d="M74 0v123h130v1234h-130v123h432v-123h-105v-601h7l430 601h-111v123h356v-123h-92l-397 -546l529 -688h74v-123h-425v123h111l-475 617h-7v-617h123v-123h-450z" />
<glyph unicode="L" d="M86 0v123h247v1234h-247v123h679v-123h-235v-1226h498v345h123v-476h-1065z" />
<glyph unicode="M" d="M25 0v123h86v1234h-86v123h285l306 -1018h2l317 1018h269v-123h-86v-1234h86v-123h-320v123h72v1005h-2l-291 -934h-135l-291 972h-2v-1043h86v-123h-296z" />
<glyph unicode="N" d="M74 0v123h111v1234h-111v123h234l610 -1075h2v952h-110v123h345v-123h-111v-1357h-124l-609 1076h-3v-953h111v-123h-345z" />
<glyph unicode="O" d="M62 741q0 343 154 559q155 217 399 217q243 0 398 -216t155 -559q0 -348 -155 -563q-155 -216 -405 -216q-214 0 -359 175q-187 225 -187 603zM275 738q0 -306 89 -475q88 -171 250 -171t246 147q95 164 95 497q0 313 -90 481q-91 167 -250 167q-161 0 -250 -167 q-90 -170 -90 -479z" />
<glyph unicode="P" d="M86 0v123h197v1234h-197v123h661q377 0 377 -361q0 -241 -140 -381q-140 -139 -385 -139h-118v-476h284v-123h-679zM481 722h111q322 0 322 367q0 268 -232 268h-201v-635z" />
<glyph unicode="Q" d="M62 740q0 343 154 560t399 217q244 0 398 -217q155 -217 155 -559q0 -320 -134 -532q-91 -143 -245 -211q162 -101 434 -161q-69 -85 -168 -158q-209 79 -440 284q-156 25 -239 66q-100 49 -178 176q-136 223 -136 535zM275 740q0 -306 89 -476q88 -172 250 -172t246 148 q95 165 95 498q0 313 -90 480q-91 168 -250 168q-161 0 -250 -169q-90 -167 -90 -477z" />
<glyph unicode="R" d="M86 0v123h130v1234h-130v123h587q176 0 277 -97q102 -97 102 -265q0 -153 -92 -271q-54 -68 -157 -138l313 -586h88v-123h-253l-339 648h-199v-525h130v-123h-457zM413 771h99q330 0 330 325q0 261 -250 261h-179v-586z" />
<glyph unicode="S" d="M151 61v358h124l24 -234q187 -91 311 -91q127 0 206 79q79 78 79 192q0 157 -200 261l-190 99q-189 98 -256 181q-66 80 -66 217q0 394 448 394q183 0 375 -73v-319h-123l-25 195q-125 74 -242 74q-241 0 -241 -246q0 -101 56 -149q49 -42 175 -110l169 -91 q195 -105 255 -178q61 -74 61 -207q0 -204 -134 -327q-135 -123 -359 -123q-205 0 -447 98z" />
<glyph unicode="T" d="M62 1125v355h1106v-355h-124v232h-330v-1234h259v-123h-716v123h259v1234h-331v-232h-123z" />
<glyph unicode="U" d="M62 1357v123h457v-123h-136v-834q0 -210 72 -323q71 -114 201 -114q265 0 265 446v825h-136v123h383v-123h-124v-861q0 -252 -111 -392q-110 -141 -312 -141q-436 0 -436 587v807h-123z" />
<glyph unicode="V" d="M26 1357v123h437v-123h-157l346 -1120h2l347 1120h-143v123h346v-123h-74l-421 -1357h-189l-420 1357h-74z" />
<glyph unicode="W" d="M23 1357v123h304v-123h-100l136 -1082h10l184 972l149 1l184 -967h9l134 1076h-100v123h274v-123h-50l-170 -1357h-178l-186 974h-8l-184 -974h-189l-170 1357h-49z" />
<glyph unicode="X" d="M49 0v123h111l350 607l-362 627h-99v123h420v-123h-100l288 -500l289 500h-128v123h361v-123h-105l-353 -611l360 -623h98v-123h-443v123h124l-286 496l-286 -496h154v-123h-393z" />
<glyph unicode="Y" d="M27 1357v123h463v-123h-149l315 -544h2l315 544h-148v123h376v-123h-86l-402 -696v-538h222v-123h-641v123h222v537l-403 697h-86z" />
<glyph unicode="Z" d="M148 0v136l700 1221h-558v-232h-123v355h901v-123l-708 -1226h597v296h124v-427h-933z" />
<glyph unicode="[" d="M395 -296v1875h543v-123h-370v-1629h370v-123h-543z" />
<glyph unicode="\" d="M99 1579h163l869 -1875h-164z" />
<glyph unicode="]" d="M291 -173h370v1629h-370v123h543v-1875h-543v123z" />
<glyph unicode="^" d="M99 494l516 986l515 -986h-168l-347 667l-349 -667h-167z" />
<glyph unicode="_" d="M0 0h1229v-148h-1229v148z" />
<glyph unicode="`" d="M392 1604h228l216 -321h-123z" />
<glyph unicode="a" d="M148 293q0 190 142 276q142 85 459 85h85v168q0 165 -204 165q-103 0 -257 -58l-25 -127h-123v216q229 93 467 93q189 0 264 -65q75 -66 75 -227v-696h136v-123h-313l-20 119q-173 -144 -351 -144q-153 0 -244 86q-91 85 -91 232zM358 283q0 -177 186 -177q147 0 290 163 v262h-53q-230 0 -327 -52q-96 -52 -96 -196z" />
<glyph unicode="b" d="M62 1456v123h321v-715q75 111 146 166q102 80 220 80q165 0 267 -143q102 -144 102 -379q0 -286 -135 -449q-134 -164 -369 -164q-88 0 -231 25h-198v1456h-123zM383 129q136 -23 212 -23q167 0 240 107t73 365q0 372 -214 372q-164 0 -311 -234v-587z" />
<glyph unicode="c" d="M110 555q0 260 158 407q157 148 444 148q213 0 385 -54v-310h-124l-35 197q-121 44 -237 44q-176 0 -280 -118q-96 -118 -96 -317q0 -220 108 -333q116 -113 322 -113q168 0 355 81v-141q-162 -71 -394 -71q-283 0 -445 158q-161 158 -161 422z" />
<glyph unicode="d" d="M111 498q0 285 135 448q134 164 372 164q87 0 228 -24v370h-246v123h444v-1456h123v-123h-321v222q-75 -111 -145 -167q-102 -80 -221 -80q-165 0 -267 144q-102 143 -102 379zM321 504q0 -381 214 -381q164 0 311 234v600q-136 22 -213 22q-165 0 -239 -107 q-73 -106 -73 -368z" />
<glyph unicode="e" d="M123 551q0 251 148 405q147 154 389 154q445 0 445 -543v-61h-771q14 -135 41 -195q91 -205 352 -205q161 0 349 105v-149q-175 -87 -375 -87q-259 0 -419 159q-159 159 -159 417zM336 629h559v46q0 312 -249 312q-154 0 -238 -123q-59 -86 -72 -235z" />
<glyph unicode="f" d="M148 905v136h271v138q0 225 91 325t293 100q171 0 364 -80v-247h-123l-31 156q-101 47 -184 47q-119 0 -165 -60q-47 -60 -47 -219v-160h444v-136h-444v-782h320v-123h-778v123h260v782h-271z" />
<glyph unicode="g" d="M111 548q0 123 33.5 219.5t101.5 178.5q134 164 373 164q67 0 120 -7t107 -17h317v-123h-119v-808q0 -70 -2.5 -139.5t-16.5 -133.5t-43 -119t-81.5 -95.5t-132.5 -64t-196 -23.5q-86 0 -187.5 13.5t-203.5 53.5v247h123l26 -136q21 -10 49.5 -20t60.5 -17.5t66 -12 t68 -4.5q67 0 113.5 15.5t76.5 43t46.5 65.5t24.5 83.5t9.5 96.5t1.5 105v199q-76 -113 -145 -167q-103 -80 -221 -80q-165 0 -267 144q-102 142 -102 339zM321 559q0 -333 214 -333q164 0 311 234v479q-69 11 -122 17t-91 6q-165 0 -239 -107q-37 -54 -55 -125t-18 -171z " />
<glyph unicode="h" d="M69 1456v123h321v-703q69 105 137 158q96 76 215 76q301 0 301 -388v-599h124v-123h-321v705q0 257 -163 257q-150 0 -293 -258v-581h111v-123h-419v123h110v1333h-123z" />
<glyph unicode="i" d="M148 0v123h390v839h-390v124h587v-963h370v-123h-957zM508 1332v247h242v-247h-242z" />
<glyph unicode="j" d="M159 -25h123l31 -218q68 -53 147 -53q132 0 188 96q57 96 57 327v835h-444v124h642v-1020q0 -230 -113 -358t-314 -128q-139 0 -317 76v319zM673 1332v247h242v-247h-242z" />
<glyph unicode="k" d="M74 0v123h123v1333h-123v123h321v-987h24l358 370h-116v124h432v-124h-141l-363 -362l488 -477h99v-123h-355v123l-402 401h-24v-401h99v-123h-420z" />
<glyph unicode="l" d="M90 1456v123h567v-1154q0 -93 7 -152t27.5 -92t58.5 -45t101 -12q124 0 264 77v-140q-166 -86 -336 -86q-92 0 -153.5 21.5t-98 68t-52 119.5t-15.5 175v1097h-370z" />
<glyph unicode="m" d="M26 962v124h253v-217q67 140 110 186q52 55 128 55q100 0 146 -93q24 -50 35 -148q42 114 89 166q66 75 156 75q187 0 187 -273v-714h70v-123h-249v752q0 210 -65 210q-48 0 -107 -88q-31 -49 -48 -91q-26 -65 -26 -92v-568h70v-123h-249v798q0 164 -66 164 q-87 0 -181 -271v-568h70v-123h-249v962h-74z" />
<glyph unicode="n" d="M72 962v124h318v-210q69 105 137 158q96 76 215 76q301 0 301 -388v-599h120v-123h-317v705q0 257 -163 257q-150 0 -293 -258v-581h100v-123h-408v123h110v839h-120z" />
<glyph unicode="o" d="M111 543q0 265 135 416t368 151q235 0 369 -151q135 -151 135 -415q0 -268 -135 -418q-135 -151 -377 -151q-205 0 -334 125q-161 155 -161 443zM324 545q0 -447 290 -447q291 0 291 447q0 442 -291 442q-290 0 -290 -442z" />
<glyph unicode="p" d="M62 -272h123v1234h-123v124h321v-222q75 111 146 166q102 80 220 80q165 0 267 -143q102 -144 102 -379q0 -286 -135 -449q-134 -164 -369 -164q-88 0 -231 25v-272h247v-123h-568v123zM383 146q136 -23 212 -23q167 0 240 107t73 359q0 373 -214 373q-164 0 -311 -246 v-570z" />
<glyph unicode="q" d="M111 498q0 285 135 448q134 164 373 164l227 -24h198v-1358h123v-123h-567v124h246v493q-75 -111 -145 -167q-102 -80 -221 -80q-165 0 -267 144q-102 143 -102 379zM321 509q0 -373 214 -373q164 0 311 234v569q-136 23 -213 23q-165 0 -239 -107q-73 -107 -73 -346z " />
<glyph unicode="r" d="M74 962v124h456v-211q74 106 141 159q96 76 207 76q118 0 228 -68v-296h-124l-20 156q-56 36 -118 36q-184 0 -314 -236v-579h360v-123h-807v123h250v839h-259z" />
<glyph unicode="s" d="M173 61v297h123l25 -183q196 -76 333 -76q238 0 238 168q0 66 -40 102q-40 37 -143 64l-204 54q-171 45 -249 118q-77 71 -77 189q0 317 432 317q221 0 402 -72v-286h-123l-25 181q-109 53 -255 53q-110 0 -171 -35q-72 -41 -72 -126q0 -112 206 -166l202 -53 q168 -44 241 -112q72 -67 72 -182q0 -157 -123 -247q-123 -91 -343 -91q-226 0 -449 86z" />
<glyph unicode="t" d="M119 925v136h278v281h197v-281h426v-136h-426v-537q0 -160 32 -212q32 -53 127 -53q106 0 279 77v-139q-165 -86 -336 -86q-161 0 -230 75q-69 74 -69 249v626h-278z" />
<glyph unicode="u" d="M68 962v124h321v-706q0 -255 163 -255q149 0 293 257v580h-111v124h309v-963h123v-123h-321v209q-69 -105 -137 -158q-96 -76 -215 -76q-302 0 -302 388v599h-123z" />
<glyph unicode="v" d="M55 962v124h447v-124h-160l311 -778h2l311 778h-160v124h367v-124h-74l-385 -962h-200l-385 962h-74z" />
<glyph unicode="w" d="M23 962v124h311v-124h-86l129 -724h2l177 685h167l178 -688h2l130 727h-98v124h272v-124h-49l-170 -962h-193l-179 703h-2l-182 -703h-190l-170 962h-49z" />
<glyph unicode="x" d="M59 962v124h438v-124h-87l261 -331l260 331h-103v124h361v-124h-117l-331 -420l330 -419h118v-123h-445v123h99l-253 321l-252 -321h100v-123h-366v123h110l331 420l-331 419h-123z" />
<glyph unicode="y" d="M55 962v124h447v-124h-160l311 -778h2l311 778h-160v124h367v-124h-74l-385 -962l-108 -271h148v-124h-479v124h198l108 271h-67l-385 962h-74z" />
<glyph unicode="z" d="M123 0v123l700 839h-540v-197h-123v321h896v-124l-691 -831h604v195h124v-326h-970z" />
<glyph unicode="{" d="M183 580v123h112q227 0 227 197q0 39 -8 86l-21 121q-13 76 -13 134q0 149 111 244q110 94 280 94h131v-123h-59q-278 0 -278 -207q0 -40 8 -86l22 -125q8 -46 8 -84q0 -129 -78 -217q-46 -51 -132 -95q94 -48 141 -106q68 -85 68 -210q0 -41 -7 -81l-22 -125 q-8 -46 -8 -91q0 -202 278 -202h59v-123h-131q-172 0 -281 95q-110 95 -110 248q0 53 13 129l21 121q8 47 8 90q0 193 -227 193h-112z" />
<glyph unicode="|" d="M540 -296v1875h148v-1875h-148z" />
<glyph unicode="}" d="M227 -173h59q278 0 278 206q0 42 -8 87l-22 125q-7 40 -7 85q0 128 77 216q45 51 132 96q-93 48 -140 106q-69 85 -69 209q0 41 7 81l22 125q8 45 8 91q0 202 -278 202h-59v123h131q172 0 281 -95q110 -96 110 -247q0 -55 -13 -130l-21 -121q-8 -46 -8 -90 q0 -193 227 -193h112v-123h-112q-227 0 -227 -197q0 -41 8 -86l21 -120q13 -74 13 -135q0 -148 -111 -243q-110 -95 -280 -95h-131v123z" />
<glyph unicode="~" d="M99 469q4 106 23 161q61 167 254 167q103 0 208 -69l117 -77l70 -46q30 -20 84 -20q123 0 127 180h148q-3 -106 -23 -161q-60 -167 -253 -167q-104 0 -208 69l-117 77l-70 46q-31 20 -87 20q-121 0 -125 -180h-148z" />
<glyph unicode="&#xa0;" />
<glyph unicode="&#xa1;" d="M491 864v222h247v-222h-247zM516 0l37 666h123l37 -666v-395h-197v395z" />
<glyph unicode="&#xa2;" d="M173 737q0 283 157 435q109 106 299 133v175h124v-172q156 -13 296 -50v-320h-123l-25 209q-71 37 -148 37v-879q116 0 308 71v-142q-146 -51 -308 -61v-173h-124v179q-201 25 -312 141q-144 149 -144 417zM383 734q0 -222 91 -328q38 -45 86 -67q23 -10 69 -22v862 q-66 -22 -100 -48q-146 -110 -146 -397z" />
<glyph unicode="&#xa3;" d="M149 0v179q202 70 204 332v217h-173v123h173v259q0 188 105 297q105 110 288 110q128 0 282 -49v-308h-123l-25 209q-80 25 -140 25q-190 0 -190 -203v-340h265v-123h-265v-169q-1 -254 -182 -386h675v-173h-894z" />
<glyph unicode="&#xa4;" d="M85 228l174 175q-89 125 -89 267q0 144 89 268l-174 174l87 88l175 -175q130 90 267 90t267 -90l175 175l87 -88l-175 -174q90 -125 90 -268q0 -142 -90 -267l175 -174l-87 -88l-175 175q-130 -90 -267 -90t-267 90l-175 -175zM318 674q0 -115 69 -197q88 -103 228 -103 q124 0 209 86q86 86 86 211q0 124 -86 210q-85 86 -210 86q-124 0 -210 -86q-86 -85 -86 -207z" />
<glyph unicode="&#xa5;" d="M49 1357v123h441v-123h-149l315 -544h2l315 544h-148v123h354v-123h-64l-285 -493h229v-124h-300l-46 -79v-130h346v-124h-346v-284h222v-123h-641v123h222v284h-345v124h345v129l-46 80h-299v124h229l-285 493h-66z" />
<glyph unicode="&#xa6;" d="M540 -296v740h148v-740h-148zM540 839v740h148v-740h-148z" />
<glyph unicode="&#xa7;" d="M154 62h123l25 -210q160 -62 315 -62q132 0 208 56q75 55 75 148q0 83 -69 131q-53 38 -163 81l-246 96q-262 102 -262 320q0 154 144 290q-138 101 -138 246q0 172 132 266q131 94 375 94q157 0 345 -44v-320h-124l-24 203q-130 37 -240 37q-132 0 -206 -42 q-85 -49 -85 -150q0 -84 87 -148q51 -36 139 -70l206 -79q277 -106 277 -334q0 -145 -129 -290q154 -111 154 -268q0 -158 -128 -252t-355 -94q-230 0 -436 74v321zM327 672q0 -131 164 -198l269 -109l51 -21q89 98 89 189q0 131 -186 199l-256 94l-48 19q-83 -88 -83 -173z " />
<glyph unicode="&#xa8;" d="M281 1283v197h197v-197h-197zM750 1283v197h197v-197h-197z" />
<glyph unicode="&#xa9;" d="M62 740q0 352 152 564q152 213 401 213t401 -213t152 -562q0 -356 -152 -567q-152 -212 -410 -212q-218 0 -361 173q-183 221 -183 604zM185 741q0 -296 118 -481q118 -186 308 -186q174 0 288 147q145 186 145 521q0 297 -119 480q-120 184 -310 184q-192 0 -311 -184 t-119 -481zM286 733q0 199 100 322q99 123 264 123q93 0 202 -27l16 -4v-185h-85v93q-73 25 -129 25q-110 0 -177 -94q-68 -94 -68 -245q0 -155 73 -247q73 -93 197 -93q97 0 193 50v-107l-20 -8q-115 -46 -201 -46q-160 0 -262 123q-103 123 -103 320z" />
<glyph unicode="&#xaa;" d="M136 932q0 263 551 263h78v55q0 78 -47 111q-46 33 -153 33q-87 0 -212 -42v-83h-149v189q251 59 393 59q177 0 259 -54t82 -176v-431h178v-123h-326l-25 84q-159 -102 -310 -102q-143 0 -231 59t-88 158zM322 937q0 -98 169 -98q136 0 274 94v145h-40q-403 0 -403 -141z " />
<glyph unicode="&#xab;" d="M82 543l444 444l87 -86l-284 -358l284 -358l-87 -86zM575 543l445 444l86 -86l-284 -358l284 -358l-86 -86z" />
<glyph unicode="&#xac;" d="M99 543v148h1031v-148v-346h-148v346h-883z" />
<glyph unicode="&#xad;" d="M148 543v148h933v-148h-933z" />
<glyph unicode="&#xae;" d="M62 740q0 352 152 564q152 213 401 213t401 -213t152 -562q0 -356 -152 -567q-152 -212 -410 -212q-218 0 -361 173q-183 221 -183 604zM185 741q0 -296 118 -481q118 -186 308 -186q174 0 288 147q145 186 145 521q0 297 -119 480q-120 184 -310 184q-192 0 -311 -184 t-119 -481zM364 317v71h62v705h-62v70h272q217 0 217 -206q0 -153 -149 -234l185 -335h25v-71h-119l-194 370h-64v-299h74v-71h-247zM537 758h7q185 0 185 188q0 82 -34 114q-34 33 -121 33h-37v-335z" />
<glyph unicode="&#xaf;" d="M0 1456v148h1229v-148h-1229z" />
<glyph unicode="&#xb0;" d="M318 1221q0 123 87 209q88 87 209 87t209 -87q87 -86 87 -208q0 -124 -87 -210q-88 -87 -213 -87q-106 0 -187 70q-105 92 -105 226zM441 1222q0 -71 51 -122q50 -51 120 -51q65 0 113 41q62 52 62 132q0 71 -51 121q-51 51 -122 51t-122 -51q-51 -50 -51 -121z" />
<glyph unicode="&#xb1;" d="M99 0v148h1031v-148h-1031zM99 691v148h442v395h148v-395h441v-148h-441v-395h-148v395h-442z" />
<glyph unicode="&#xb2;" d="M257 728v148q41 95 107 139q60 40 187 90l96 38q134 53 134 135q0 116 -192 116q-114 0 -197 -37l-12 -92h-123v203l37 9q168 41 298 41q368 0 368 -223q0 -157 -208 -233l-82 -30q-180 -66 -210 -156h512v-148h-715z" />
<glyph unicode="&#xb3;" d="M263 752v173h123l12 -68q70 -18 163 -18q226 0 226 104q0 84 -96 107q-73 17 -226 17h-91v124h95q190 0 254 22q64 21 64 83q0 98 -192 98q-118 0 -197 -30l-12 -81h-123v185q170 50 343 50q360 0 360 -192q0 -130 -212 -200q212 -46 212 -193q0 -218 -389 -218 q-146 0 -314 37z" />
<glyph unicode="&#xb4;" d="M392 1283l216 321h228l-321 -321h-123z" />
<glyph unicode="&#xb5;" d="M68 962v124h321v-701q0 -255 163 -255q149 0 293 252v580h-111v124h309v-963h123v-123h-321v209q-78 -120 -145 -172q-80 -62 -201 -62q-50 0 -110 15v-385h-198v758v599h-123z" />
<glyph unicode="&#xb6;" d="M100 1154q0 339 357 339q38 0 97 -5l70 -6q20 -2 55 -2h291v-1776h-124v1653h-172v-1653h-124v1036q-144 17 -219 50q-231 99 -231 364z" />
<glyph unicode="&#xb7;" d="M446 774v336h336v-336h-336z" />
<glyph unicode="&#xb8;" d="M441 -330q50 -15 104 -15q104 0 104 74q0 93 -187 96l95 175h97l-60 -109q72 -2 124 -39q70 -49 70 -121q0 -68 -59 -115q-58 -48 -145 -48q-67 0 -143 21v81z" />
<glyph unicode="&#xb9;" d="M266 728v123h262v494l-262 -50v124l435 98v-666h262v-123h-697z" />
<glyph unicode="&#xba;" d="M148 1117q0 184 126 292t340 108q215 0 341 -108t126 -293q0 -186 -126 -293q-127 -107 -348 -107q-189 0 -309 89q-150 111 -150 312zM333 1117q0 -121 79 -199q78 -79 200 -79q112 0 188 63q96 80 96 215q0 121 -80 199t-202 78q-123 0 -202 -78q-79 -79 -79 -199z" />
<glyph unicode="&#xbb;" d="M123 185l284 358l-284 358l86 86l444 -444l-444 -444zM616 185l284 358l-284 358l87 86l444 -444l-444 -444z" />
<glyph unicode="&#xbc;" d="M12 1304v127l346 87v-778h-173v608zM68 -37l812 1554h136l-812 -1554h-136zM540 197v141l359 427h191v-457h115v-111h-115v-197h-155v197h-395zM654 308h281v335z" />
<glyph unicode="&#xbd;" d="M16 1304v127l346 87v-778h-173v608zM50 -37l812 1554h136l-812 -1554h-136zM660 0v139q76 137 226 254l43 34q77 61 77 123q0 104 -132 104q-99 0 -214 -56v135q129 45 232 45q132 0 213.5 -60t81.5 -158q0 -125 -163 -233l-55 -37l-40 -26q-73 -51 -105 -128h381v-136 h-545z" />
<glyph unicode="&#xbe;" d="M42 749v125q122 -36 200 -36q154 0 154 104q0 133 -274 133v118h30q246 0 246 121q0 91 -138 91q-94 0 -218 -44v126q122 30 238 30q136 0 214 -49t78 -135q0 -141 -231 -200q234 -41 234 -195q0 -218 -342 -218q-94 0 -191 29zM70 -37l1017 1554h142l-1017 -1554h-142z M561 197v141l358 427h192v-457h100v-111h-100v-197h-168v197h-382zM662 308h281v335z" />
<glyph unicode="&#xbf;" d="M126 -94q0 166 147 276l56 42q3 2 12 9q9 6 17 12q13 8 33 22q70 65 107 116q45 56 45 212v52h247v-49q0 -232 -244 -388l-67 -47q-143 -100 -143 -239q0 -106 71 -169q70 -63 194 -63t254 62l24 259h124v-377q-218 -67 -411 -67q-466 0 -466 337zM543 864v222h247v-222 h-247z" />
<glyph unicode="&#xc0;" d="M25 0v123h74l421 1357h189l420 -1357h74v-123h-437v123h157l-100 321h-496l-99 -321h143v-123h-346zM294 1935h228l216 -321h-123zM366 568h419l-208 675h-2z" />
<glyph unicode="&#xc1;" d="M25 0v123h74l421 1357h189l420 -1357h74v-123h-437v123h157l-100 321h-496l-99 -321h143v-123h-346zM366 568h419l-208 675h-2zM491 1614l216 321h228l-321 -321h-123z" />
<glyph unicode="&#xc2;" d="M25 0v123h74l421 1357h189l420 -1357h74v-123h-437v123h157l-100 321h-496l-99 -321h143v-123h-346zM249 1614l256 321h219l256 -321h-123l-241 202h-3l-241 -202h-123zM366 568h419l-208 675h-2z" />
<glyph unicode="&#xc3;" d="M25 0v123h74l421 1357h189l420 -1357h74v-123h-437v123h157l-100 321h-496l-99 -321h143v-123h-346zM281 1634q6 95 31 145q45 90 154 90q72 0 135 -39l60 -37q62 -38 96 -38q68 0 79 114h111q-7 -94 -32 -144q-46 -91 -153 -91q-73 0 -136 39l-60 37q-60 37 -96 37 q-68 0 -79 -113h-110zM366 568h419l-208 675h-2z" />
<glyph unicode="&#xc4;" d="M25 0v123h74l421 1357h189l420 -1357h74v-123h-437v123h157l-100 321h-496l-99 -321h143v-123h-346zM281 1634v197h197v-197h-197zM366 568h419l-208 675h-2zM750 1634v197h197v-197h-197z" />
<glyph unicode="&#xc5;" d="M25 0v123h74l421 1357h62q-63 9 -112 52q-80 69 -80 175q0 95 67 161q66 67 160 67t160 -66q67 -66 67 -161q0 -99 -67 -164q-55 -55 -130 -64h62l420 -1357h74v-123h-437v123h157l-100 321h-496l-99 -321h143v-123h-346zM366 568h419l-208 675h-2zM476 1708 q0 -61 41 -102q41 -42 100 -42q52 0 91 33q50 43 50 111q0 59 -42 100q-41 40 -99 41q-58 -1 -99 -41q-42 -41 -42 -100z" />
<glyph unicode="&#xc6;" d="M12 0v123h44l583 1357h559v-314h-123v191h-251v-530h177v123h123v-370h-123v123h-177v-580h269v210h124v-333h-689v123h111v296h-329l-127 -296h121v-123h-292zM363 543h276v637h-1z" />
<glyph unicode="&#xc7;" d="M123 748q0 369 156 569t446 200q164 0 381 -64v-343h-123l-29 231q-113 53 -224 53q-188 0 -291 -176t-103 -484q0 -298 114 -467q113 -168 313 -168q178 0 364 135v-160q-198 -106 -372 -111l-39 -72q72 -2 124 -39q70 -49 70 -121q0 -68 -59 -115q-59 -48 -144 -48 q-67 0 -144 21v81q50 -15 104 -15q104 0 104 74q0 93 -187 96l77 142q-234 25 -374 202q-164 206 -164 579z" />
<glyph unicode="&#xc8;" d="M74 0v123h185v1234h-185v123h982v-355h-123v232h-476v-543h291v124h123v-371h-123v124h-291v-560h525v247h124v-378h-1032zM296 1935h228l216 -321h-123z" />
<glyph unicode="&#xc9;" d="M74 0v123h185v1234h-185v123h982v-355h-123v232h-476v-543h291v124h123v-371h-123v124h-291v-560h525v247h124v-378h-1032zM481 1614l216 321h228l-321 -321h-123z" />
<glyph unicode="&#xca;" d="M74 0v123h185v1234h-185v123h982v-355h-123v232h-476v-543h291v124h123v-371h-123v124h-291v-560h525v247h124v-378h-1032zM259 1614l256 321h219l256 -321h-123l-241 202h-3l-241 -202h-123z" />
<glyph unicode="&#xcb;" d="M74 0v123h185v1234h-185v123h982v-355h-123v232h-476v-543h291v124h123v-371h-123v124h-291v-560h525v247h124v-378h-1032zM259 1634v197h197v-197h-197zM728 1634v197h197v-197h-197z" />
<glyph unicode="&#xcc;" d="M160 0v123h355v1234h-355v123h908v-123h-355v-1234h355v-123h-908zM268 1935h228l216 -321h-123z" />
<glyph unicode="&#xcd;" d="M160 0v123h355v1234h-355v123h908v-123h-355v-1234h355v-123h-908zM515 1614l216 321h228l-321 -321h-123z" />
<glyph unicode="&#xce;" d="M160 0v123h355v1234h-355v123h908v-123h-355v-1234h355v-123h-908zM248 1614l256 321h219l256 -321h-123l-241 202h-3l-241 -202h-123z" />
<glyph unicode="&#xcf;" d="M160 0v123h355v1234h-355v123h908v-123h-355v-1234h355v-123h-908zM281 1634v197h197v-197h-197zM750 1634v197h197v-197h-197z" />
<glyph unicode="&#xd0;" d="M49 0v123h148v593h-148v123h148v518h-148v123h509q609 0 609 -704q0 -357 -160 -567q-160 -209 -430 -209h-528zM394 123h119q441 0 441 631q0 308 -112 456q-112 147 -343 147h-105v-518h272v-123h-272v-593z" />
<glyph unicode="&#xd1;" d="M74 0v123h111v1234h-111v123h234l610 -1075h2v952h-110v123h345v-123h-111v-1357h-124l-609 1076h-3v-953h111v-123h-345zM271 1634q6 95 31 145q45 90 154 90q72 0 135 -39l60 -37q62 -38 96 -38q69 0 79 114h111q-7 -94 -32 -144q-46 -91 -153 -91q-73 0 -136 39 l-60 37q-60 37 -96 37q-68 0 -79 -113h-110z" />
<glyph unicode="&#xd2;" d="M62 741q0 343 154 559q155 217 399 217q243 0 398 -216t155 -559q0 -348 -155 -563q-155 -216 -405 -216q-214 0 -359 175q-187 225 -187 603zM275 740q0 -306 89 -475q88 -171 250 -171t246 147q95 164 95 497q0 313 -90 481q-91 167 -250 167q-161 0 -250 -167 q-90 -170 -90 -479zM294 1935h228l216 -321h-123z" />
<glyph unicode="&#xd3;" d="M62 741q0 343 154 559q155 217 399 217q243 0 398 -216t155 -559q0 -348 -155 -563q-155 -216 -405 -216q-214 0 -359 175q-187 225 -187 603zM275 740q0 -306 89 -475q88 -171 250 -171t246 147q95 164 95 497q0 313 -90 481q-91 167 -250 167q-161 0 -250 -167 q-90 -170 -90 -479zM491 1614l216 321h228l-321 -321h-123z" />
<glyph unicode="&#xd4;" d="M62 741q0 343 154 559q155 217 399 217q243 0 398 -216t155 -559q0 -348 -155 -563q-155 -216 -405 -216q-214 0 -359 175q-187 225 -187 603zM249 1614l256 321h219l256 -321h-123l-241 202h-3l-241 -202h-123zM275 740q0 -306 89 -475q88 -171 250 -171t246 147 q95 164 95 497q0 313 -90 481q-91 167 -250 167q-161 0 -250 -167q-90 -170 -90 -479z" />
<glyph unicode="&#xd5;" d="M62 741q0 343 154 559q155 217 399 217q243 0 398 -216t155 -559q0 -348 -155 -563q-155 -216 -405 -216q-214 0 -359 175q-187 225 -187 603zM275 740q0 -306 89 -475q88 -171 250 -171t246 147q95 164 95 497q0 313 -90 481q-91 167 -250 167q-161 0 -250 -167 q-90 -170 -90 -479zM282 1634q6 95 31 145q45 90 154 90q72 0 135 -39l60 -37q62 -38 96 -38q68 0 79 114h111q-7 -94 -32 -144q-46 -91 -153 -91q-73 0 -136 39l-60 37q-60 37 -96 37q-68 0 -79 -113h-110z" />
<glyph unicode="&#xd6;" d="M62 741q0 343 154 559q155 217 399 217q243 0 398 -216t155 -559q0 -348 -155 -563q-155 -216 -405 -216q-214 0 -359 175q-187 225 -187 603zM275 740q0 -306 89 -475q88 -171 250 -171t246 147q95 164 95 497q0 313 -90 481q-91 167 -250 167q-161 0 -250 -167 q-90 -170 -90 -479zM282 1634v197h197v-197h-197zM751 1634v197h197v-197h-197z" />
<glyph unicode="&#xd7;" d="M99 206l411 411l-411 411l105 105l411 -412l411 412l105 -105l-412 -411l412 -411l-105 -105l-411 411l-411 -411z" />
<glyph unicode="&#xd8;" d="M62 -37l144 227q-144 242 -144 549q0 344 154 561t397 217q186 0 345 -146l93 146h117l-145 -227q145 -242 145 -550q0 -342 -154 -559q-154 -218 -398 -218q-185 0 -344 147l-93 -147h-117zM265 742q0 -197 56 -371l544 854q-91 159 -249 159q-163 0 -257 -167.5 t-94 -474.5zM364 254q93 -160 249 -160q168 0 260 168.5t92 475.5q0 199 -57 372z" />
<glyph unicode="&#xd9;" d="M62 1357v123h457v-123h-136v-834q0 -210 72 -323q71 -114 201 -114q265 0 265 446v825h-136v123h383v-123h-124v-861q0 -252 -111 -392q-110 -141 -312 -141q-436 0 -436 587v807h-123zM331 1935h228l216 -321h-123z" />
<glyph unicode="&#xda;" d="M62 1357v123h457v-123h-136v-834q0 -210 72 -323q71 -114 201 -114q265 0 265 446v825h-136v123h383v-123h-124v-861q0 -252 -111 -392q-110 -141 -312 -141q-436 0 -436 587v807h-123zM528 1614l216 321h228l-321 -321h-123z" />
<glyph unicode="&#xdb;" d="M62 1357v123h457v-123h-136v-834q0 -210 72 -323q71 -114 201 -114q265 0 265 446v825h-136v123h383v-123h-124v-861q0 -252 -111 -392q-110 -141 -312 -141q-436 0 -436 587v807h-123zM286 1614l256 321h219l256 -321h-123l-241 202h-3l-241 -202h-123z" />
<glyph unicode="&#xdc;" d="M62 1357v123h457v-123h-136v-834q0 -210 72 -323q71 -114 201 -114q265 0 265 446v825h-136v123h383v-123h-124v-861q0 -252 -111 -392q-110 -141 -312 -141q-436 0 -436 587v807h-123zM319 1634v197h197v-197h-197zM788 1634v197h197v-197h-197z" />
<glyph unicode="&#xdd;" d="M27 1357v123h463v-123h-149l315 -544h2l315 544h-148v123h376v-123h-86l-402 -696v-538h222v-123h-641v123h222v537l-403 697h-86zM534 1614l216 321h228l-321 -321h-123z" />
<glyph unicode="&#xde;" d="M86 0v123h197v1234h-197v123h592v-123h-197v-166h189q454 0 454 -362q0 -241 -169 -380q-168 -140 -463 -140h-11v-186h197v-123h-592zM481 432h12q201 0 311 96q110 95 110 268q0 271 -322 271h-111v-635z" />
<glyph unicode="&#xdf;" d="M62 0v123h135v980q0 190 22 270t90 139q106 92 300 92q180 0 288 -65t108 -176q0 -118 -125 -221l-130 -107q-68 -56 -68 -122q0 -69 124 -162l135 -101q163 -122 206 -182q46 -65 46 -168q0 -145 -94 -235t-252 -90q-114 0 -243 37v278h111l25 -148q72 -43 135 -43 q151 0 151 151q0 107 -110 189l-99 74l-124 93q-121 91 -155 136q-35 47 -35 112q0 107 103 211l98 99q104 105 104 195q0 122 -190 122q-122 0 -173 -51q-50 -50 -50 -174v-1133h123v-123h-456z" />
<glyph unicode="&#xe0;" d="M148 293q0 190 142 276q142 85 459 85h85v168q0 165 -204 165q-103 0 -257 -58l-25 -127h-123v216q229 93 467 93q189 0 264 -65q75 -66 75 -227v-696h136v-123h-313l-20 119q-173 -144 -351 -144q-153 0 -244 86q-91 85 -91 232zM354 1604h228l216 -321h-123zM358 283 q0 -177 186 -177q147 0 290 163v262h-53q-230 0 -327 -52q-96 -52 -96 -196z" />
<glyph unicode="&#xe1;" d="M148 293q0 190 142 276q142 85 459 85h85v168q0 165 -204 165q-103 0 -257 -58l-25 -127h-123v216q229 93 467 93q189 0 264 -65q75 -66 75 -227v-696h136v-123h-313l-20 119q-173 -144 -351 -144q-153 0 -244 86q-91 85 -91 232zM358 283q0 -177 186 -177q147 0 290 163 v262h-53q-230 0 -327 -52q-96 -52 -96 -196zM552 1283l216 321h228l-321 -321h-123z" />
<glyph unicode="&#xe2;" d="M148 293q0 190 142 276q142 85 459 85h85v168q0 165 -204 165q-103 0 -257 -58l-25 -127h-123v216q229 93 467 93q189 0 264 -65q75 -66 75 -227v-696h136v-123h-313l-20 119q-173 -144 -351 -144q-153 0 -244 86q-91 85 -91 232zM275 1283l256 321h219l256 -321h-123 l-241 202h-3l-241 -202h-123zM358 283q0 -177 186 -177q147 0 290 163v262h-53q-230 0 -327 -52q-96 -52 -96 -196z" />
<glyph unicode="&#xe3;" d="M148 293q0 190 142 276q142 85 459 85h85v168q0 165 -204 165q-103 0 -257 -58l-25 -127h-123v216q229 93 467 93q189 0 264 -65q75 -66 75 -227v-696h136v-123h-313l-20 119q-173 -144 -351 -144q-153 0 -244 86q-91 85 -91 232zM303 1293q6 94 31 145q45 90 154 90 q72 0 135 -39l60 -37q62 -38 96 -38q68 0 79 114h111q-7 -94 -32 -144q-46 -91 -153 -91q-73 0 -136 39l-60 37q-60 37 -96 37q-68 0 -79 -113h-110zM358 283q0 -177 186 -177q147 0 290 163v262h-53q-230 0 -327 -52q-96 -52 -96 -196z" />
<glyph unicode="&#xe4;" d="M148 293q0 190 142 276q142 85 459 85h85v168q0 165 -204 165q-103 0 -257 -58l-25 -127h-123v216q229 93 467 93q189 0 264 -65q75 -66 75 -227v-696h136v-123h-313l-20 119q-173 -144 -351 -144q-153 0 -244 86q-91 85 -91 232zM316 1293v197h197v-197h-197zM358 283 q0 -177 186 -177q147 0 290 163v262h-53q-230 0 -327 -52q-96 -52 -96 -196zM785 1293v197h197v-197h-197z" />
<glyph unicode="&#xe5;" d="M148 293q0 190 142 276q142 85 459 85h85v168q0 165 -204 165q-103 0 -257 -58l-25 -127h-123v216q229 93 467 93q189 0 264 -65q75 -66 75 -227v-696h136v-123h-313l-20 119q-173 -144 -351 -144q-153 0 -244 86q-91 85 -91 232zM358 283q0 -177 186 -177q147 0 290 163 v262h-53q-230 0 -327 -52q-96 -52 -96 -196zM449 1510q0 94 67 160q67 67 160 67q94 0 160 -66q67 -66 67 -160q0 -97 -67 -162q-66 -66 -162 -66q-83 0 -145 54q-80 69 -80 173zM535 1510q0 -58 41 -99q41 -42 99 -42q53 0 92 33q50 43 50 109q0 58 -42 98q-42 41 -99 41 q-58 0 -99 -41q-42 -40 -42 -99z" />
<glyph unicode="&#xe6;" d="M42 307q0 168 117 264q116 95 322 95h43v141q0 110 -21 145q-22 35 -90 35q-63 0 -124 -40l-25 -136h-123v232q153 67 298 67q97 0 158 -48q36 -29 56 -83q78 131 226 131q146 0 227 -136q80 -136 80 -382v-49h-482l3 -51q0 -386 241 -386q84 0 244 84v-147 q-176 -68 -307 -68q-166 0 -291 179q-37 -81 -81 -121q-65 -58 -161 -58q-131 0 -220 95q-90 94 -90 237zM246 307q0 -201 141 -201q85 0 137 122v315h-31q-247 0 -247 -236zM704 666h280q-3 178 -35 250q-31 71 -90 71q-134 0 -155 -321z" />
<glyph unicode="&#xe7;" d="M110 555q0 260 158 407q157 148 444 148q213 0 385 -54v-310h-124l-35 197q-121 44 -237 44q-176 0 -280 -118q-96 -118 -96 -317q0 -220 108 -333q116 -113 322 -113q168 0 355 81v-141q-162 -71 -394 -71l-46 -84q72 -2 124 -39q70 -49 70 -121q0 -68 -59 -115 q-58 -48 -145 -48q-67 0 -143 21v81q50 -15 104 -15q104 0 104 74q0 93 -187 96l84 155q-217 22 -351 153q-161 158 -161 422z" />
<glyph unicode="&#xe8;" d="M123 551q0 251 148 405q147 154 389 154q445 0 445 -543v-61h-771q14 -135 41 -195q91 -205 352 -205q161 0 349 105v-149q-175 -87 -375 -87q-259 0 -419 159q-159 159 -159 417zM328 1604h228l216 -321h-123zM336 629h559v46q0 312 -249 312q-154 0 -238 -123 q-59 -86 -72 -235z" />
<glyph unicode="&#xe9;" d="M123 551q0 251 148 405q147 154 389 154q445 0 445 -543v-61h-771q14 -135 41 -195q91 -205 352 -205q161 0 349 105v-149q-175 -87 -375 -87q-259 0 -419 159q-159 159 -159 417zM336 629h559v46q0 312 -249 312q-154 0 -238 -123q-59 -86 -72 -235zM525 1283l216 321 h228l-321 -321h-123z" />
<glyph unicode="&#xea;" d="M123 551q0 251 148 405q147 154 389 154q445 0 445 -543v-61h-771q14 -135 41 -195q91 -205 352 -205q161 0 349 105v-149q-175 -87 -375 -87q-259 0 -419 159q-159 159 -159 417zM283 1283l256 321h219l256 -321h-123l-241 202h-3l-241 -202h-123zM336 629h559v46 q0 312 -249 312q-154 0 -238 -123q-59 -86 -72 -235z" />
<glyph unicode="&#xeb;" d="M123 551q0 251 148 405q147 154 389 154q445 0 445 -543v-61h-771q14 -135 41 -195q91 -205 352 -205q161 0 349 105v-149q-175 -87 -375 -87q-259 0 -419 159q-159 159 -159 417zM315 1293v197h197v-197h-197zM336 629h559v46q0 312 -249 312q-154 0 -238 -123 q-59 -86 -72 -235zM784 1293v197h197v-197h-197z" />
<glyph unicode="&#xec;" d="M148 0v123h390v839h-390v124h587v-963h370v-123h-957zM291 1604h228l216 -321h-123z" />
<glyph unicode="&#xed;" d="M148 0v123h390v839h-390v124h587v-963h370v-123h-957zM538 1283l216 321h228l-321 -321h-123z" />
<glyph unicode="&#xee;" d="M148 0v123h390v839h-390v124h587v-963h370v-123h-957zM271 1283l256 321h219l256 -321h-123l-241 202h-3l-241 -202h-123z" />
<glyph unicode="&#xef;" d="M148 0v123h390v839h-390v124h587v-963h370v-123h-957zM293 1293v197h197v-197h-197zM762 1293v197h197v-197h-197z" />
<glyph unicode="&#xf0;" d="M111 532q0 239 139 396q138 158 342 158q95 0 193 -55q-127 185 -243 271l-247 -168l-62 92l216 145q-141 85 -335 85v123h27q254 0 448 -113l224 151l61 -91l-189 -128q192 -139 297 -330q137 -249 137 -500q0 -262 -139 -427q-139 -166 -362 -166q-219 0 -363 158 t-144 399zM321 531q1 -185 84 -309q83 -123 210 -123q125 0 209 122q85 123 85 305q0 170 -69 288q-83 162 -225 148q-127 1 -210 -123q-84 -124 -84 -308z" />
<glyph unicode="&#xf1;" d="M72 0v123h120v839h-120v124h318v-210q69 105 137 158q96 76 215 76q301 0 301 -388v-599h120v-123h-417v123h100v582q0 257 -163 257q-150 0 -293 -258v-581h100v-123h-418zM279 1283q6 94 31 145q45 90 154 90q72 0 135 -39l60 -37q62 -38 96 -38q68 0 79 114h111 q-7 -94 -32 -144q-46 -91 -153 -91q-73 0 -136 39l-60 37q-60 37 -96 37q-68 0 -79 -113h-110z" />
<glyph unicode="&#xf2;" d="M111 543q0 265 135 416t368 151q235 0 369 -151q135 -151 135 -415q0 -268 -135 -418q-135 -151 -377 -151q-205 0 -334 125q-161 155 -161 443zM294 1604h228l216 -321h-123zM324 545q0 -446 290 -446q291 0 291 446q0 442 -291 442q-290 0 -290 -442z" />
<glyph unicode="&#xf3;" d="M111 543q0 265 135 416t368 151q235 0 369 -151q135 -151 135 -415q0 -268 -135 -418q-135 -151 -377 -151q-205 0 -334 125q-161 155 -161 443zM324 545q0 -446 290 -446q291 0 291 446q0 442 -291 442q-290 0 -290 -442zM491 1283l216 321h228l-321 -321h-123z" />
<glyph unicode="&#xf4;" d="M111 543q0 265 135 416t368 151q235 0 369 -151q135 -151 135 -415q0 -268 -135 -418q-135 -151 -377 -151q-205 0 -334 125q-161 155 -161 443zM249 1283l256 321h219l256 -321h-123l-241 202h-3l-241 -202h-123zM324 545q0 -446 290 -446q291 0 291 446q0 442 -291 442 q-290 0 -290 -442z" />
<glyph unicode="&#xf5;" d="M111 543q0 265 135 416t368 151q235 0 369 -151q135 -151 135 -415q0 -268 -135 -418q-135 -151 -377 -151q-205 0 -334 125q-161 155 -161 443zM282 1293q6 94 31 145q45 90 154 90q72 0 135 -39l60 -37q62 -38 96 -38q68 0 79 114h111q-7 -94 -32 -144 q-46 -91 -153 -91q-73 0 -136 39l-60 37q-60 37 -96 37q-68 0 -79 -113h-110zM324 545q0 -446 290 -446q291 0 291 446q0 442 -291 442q-290 0 -290 -442z" />
<glyph unicode="&#xf6;" d="M111 543q0 265 135 416t368 151q235 0 369 -151q135 -151 135 -415q0 -268 -135 -418q-135 -151 -377 -151q-205 0 -334 125q-161 155 -161 443zM281 1293v197h197v-197h-197zM324 545q0 -446 290 -446q291 0 291 446q0 442 -291 442q-290 0 -290 -442zM750 1293v197h197 v-197h-197z" />
<glyph unicode="&#xf7;" d="M99 543v148h1031v-148h-1031zM491 0v247h247v-247h-247zM491 987v247h247v-247h-247z" />
<glyph unicode="&#xf8;" d="M111 -25l127 164q-127 172 -127 406q0 264 135 415q135 150 374 150q179 0 301 -92l72 92h125l-127 -163q127 -172 127 -407q0 -264 -135 -414q-135 -151 -375 -151q-180 0 -300 93l-72 -93h-125zM314 542q0 -150 43 -250l465 599q-80 96 -208 96q-300 0 -300 -445z M408 196q71 -97 206 -97q301 0 301 443q0 148 -43 252z" />
<glyph unicode="&#xf9;" d="M68 962v124h321v-706q0 -255 163 -255q149 0 293 257v580h-111v124h309v-963h123v-123h-321v209q-69 -105 -137 -158q-96 -76 -215 -76q-302 0 -302 388v599h-123zM296 1604h228l216 -321h-123z" />
<glyph unicode="&#xfa;" d="M68 962v124h321v-706q0 -255 163 -255q149 0 293 257v580h-111v124h309v-963h123v-123h-321v209q-69 -105 -137 -158q-96 -76 -215 -76q-302 0 -302 388v599h-123zM493 1283l216 321h228l-321 -321h-123z" />
<glyph unicode="&#xfb;" d="M68 962v124h321v-706q0 -255 163 -255q149 0 293 257v580h-111v124h309v-963h123v-123h-321v209q-69 -105 -137 -158q-96 -76 -215 -76q-302 0 -302 388v599h-123zM251 1283l256 321h219l256 -321h-123l-241 202h-3l-241 -202h-123z" />
<glyph unicode="&#xfc;" d="M68 962v124h321v-706q0 -255 163 -255q149 0 293 257v580h-111v124h309v-963h123v-123h-321v209q-69 -105 -137 -158q-96 -76 -215 -76q-302 0 -302 388v599h-123zM284 1293v197h197v-197h-197zM753 1293v197h197v-197h-197z" />
<glyph unicode="&#xfd;" d="M55 962v124h447v-124h-160l311 -778h2l311 778h-160v124h367v-124h-74l-385 -962l-108 -271h148v-124h-479v124h198l108 271h-67l-385 962h-74zM531 1283l216 321h228l-321 -321h-123z" />
<glyph unicode="&#xfe;" d="M62 -272h123v1728h-123v123h321v-715q75 111 146 166q102 80 220 80q165 0 267 -143q102 -144 102 -379q0 -286 -135 -449q-134 -164 -369 -164q-88 0 -231 25v-272h247v-123h-568v123zM383 146q135 -23 208 -23q317 0 317 468q0 359 -214 359q-164 0 -311 -234v-570z " />
<glyph unicode="&#xff;" d="M55 962v124h447v-124h-160l311 -778h2l311 778h-160v124h367v-124h-74l-385 -962l-108 -271h148v-124h-479v124h198l108 271h-67l-385 962h-74zM321 1293v197h197v-197h-197zM790 1293v197h197v-197h-197z" />
<glyph unicode="&#x152;" d="M37 740q0 361 107 570q107 208 291 208q117 0 174 -112v74h533v-314h-123v191h-219v-530h145v123h111v-370h-111v123h-145v-572h244v239h123v-370h-558v74q-60 -111 -173 -111q-184 0 -291 207q-108 207 -108 570zM237 746q0 -350 52 -506q51 -154 168 -154 q152 0 152 278v753q0 278 -149 278q-223 0 -223 -649z" />
<glyph unicode="&#x153;" d="M49 542q0 255 101 412q100 156 266 156q158 0 247 -159q86 160 230 160q286 0 286 -504v-76h-444v-16q0 -392 216 -392q100 0 228 87v-154q-152 -81 -276 -81q-158 0 -256 143q-83 -143 -234 -143q-164 0 -264 156t-100 411zM240 541q0 -442 181 -442q96 0 121 125 q20 100 20 314q0 247 -25 344q-26 105 -116 105q-181 0 -181 -446zM736 654h258v62q0 271 -112 271q-141 0 -146 -333z" />
<glyph unicode="&#x178;" d="M27 1357v123h463v-123h-149l315 -544h2l315 544h-148v123h376v-123h-86l-402 -696v-538h222v-123h-641v123h222v537l-403 697h-86zM324 1634v197h197v-197h-197zM793 1634v197h197v-197h-197z" />
<glyph unicode="&#x2c6;" d="M248 1283l256 321h219l256 -321h-123l-241 202h-3l-241 -202h-123z" />
<glyph unicode="&#x2dc;" d="M281 1293q6 94 31 145q45 90 154 90q72 0 135 -39l60 -37q62 -38 96 -38q68 0 79 114h111q-7 -94 -32 -144q-46 -91 -153 -91q-73 0 -136 39l-60 37q-60 37 -96 37q-68 0 -79 -113h-110z" />
<glyph unicode="&#x2000;" horiz-adv-x="967" />
<glyph unicode="&#x2001;" horiz-adv-x="1935" />
<glyph unicode="&#x2002;" horiz-adv-x="967" />
<glyph unicode="&#x2003;" horiz-adv-x="1935" />
<glyph unicode="&#x2004;" horiz-adv-x="645" />
<glyph unicode="&#x2005;" horiz-adv-x="483" />
<glyph unicode="&#x2006;" horiz-adv-x="322" />
<glyph unicode="&#x2007;" horiz-adv-x="322" />
<glyph unicode="&#x2008;" horiz-adv-x="241" />
<glyph unicode="&#x2009;" horiz-adv-x="387" />
<glyph unicode="&#x200a;" horiz-adv-x="107" />
<glyph unicode="&#x2010;" d="M99 543v148h1031v-148h-1031z" />
<glyph unicode="&#x2011;" d="M99 543v148h1031v-148h-1031z" />
<glyph unicode="&#x2012;" d="M99 543v148h1031v-148h-1031z" />
<glyph unicode="&#x2013;" d="M120 543v148h989v-148h-989z" />
<glyph unicode="&#x2014;" d="M20 543v148h1189v-148h-1189z" />
<glyph unicode="&#x2018;" d="M414 873v220q0 511 336 511v-99q-120 -12 -142 -67q-20 -48 -26 -229h168v-336h-336z" />
<glyph unicode="&#x2019;" d="M446 873v99q120 12 142 67q20 48 26 229h-168v336h336v-220q0 -511 -336 -511z" />
<glyph unicode="&#x201a;" d="M447 0v336h336v-220q0 -511 -336 -511v99q120 12 142 67q20 48 26 229h-168z" />
<glyph unicode="&#x201c;" d="M180 873v220q0 511 336 511v-99q-120 -12 -142 -67q-20 -48 -26 -229h168v-336h-336zM703 873v220q0 511 336 511v-99q-120 -12 -142 -67q-20 -48 -26 -229h168v-336h-336z" />
<glyph unicode="&#x201d;" d="M190 873v99q120 12 142 67q20 48 26 229h-168v336h336v-220q0 -511 -336 -511zM713 873v99q120 12 142 67q20 48 26 229h-168v336h336v-220q0 -511 -336 -511z" />
<glyph unicode="&#x201e;" d="M190 0v336h336v-220q0 -511 -336 -511v99q120 12 142 67q20 48 26 229h-168zM713 0v336h336v-220q0 -511 -336 -511v99q120 12 142 67q20 48 26 229h-168z" />
<glyph unicode="&#x2022;" d="M318 814q0 123 87 209q87 87 209 87q123 0 209 -87q87 -86 87 -208q0 -125 -87 -211q-86 -86 -211 -86q-109 0 -189 70q-105 91 -105 226z" />
<glyph unicode="&#x2026;" d="M81 0v247h247v-247h-247zM491 0v247h246v-247h-246zM900 0v247h247v-247h-247z" />
<glyph unicode="&#x202f;" horiz-adv-x="387" />
<glyph unicode="&#x2039;" d="M234 543l626 444l86 -86l-438 -358l438 -358l-86 -86z" />
<glyph unicode="&#x203a;" d="M283 185l438 358l-438 358l86 86l626 -444l-626 -444z" />
<glyph unicode="&#x205f;" horiz-adv-x="483" />
<glyph unicode="&#x20ac;" d="M6 537l51 123h68l-2 88l-2 11q0 1 2 9q1 4 1 23q-1 6 1 24l1 25l1 17h-121l51 124h86q39 169 87 255q155 281 495 281q164 0 381 -64v-281h-123l-29 169q-113 53 -225 53q-193 0 -291 -172q-49 -85 -79 -241h668l-51 -124h-635q-4 -55 -4 -72q-1 -24 -2 -28q-1 -14 0 -18 q1 -5 1 -6l2 -73h556l-51 -123h-492q26 -138 64 -217q106 -221 347 -221q180 0 365 135v-160q-207 -111 -387 -111q-239 0 -392 141q-106 98 -162 253q-21 59 -47 180h-133z" />
<glyph unicode="&#x2122;" d="M43 1289v191h463v-191h-89v99h-87v-555h77v-93h-265v93h77v555h-87v-99h-89zM555 740v93h58v555h-58v92h212l122 -443l106 443h201v-92h-58v-555h58v-93h-163v579h-1l-116 -443h-87l-115 413h-2v-549h-157z" />
<glyph unicode="&#x25fc;" horiz-adv-x="1085" d="M0 0v1085h1085v-1085h-1085z" />
<glyph unicode="&#xfb01;" d="M69 0v123h123v815h-117v135h117v174q0 163 86 260q87 97 230 97q94 0 215 -49v-210h-123l-25 123q-36 19 -65 19q-120 0 -120 -186v-228h654v-950h123v-123h-419v123h98v815h-456v-815h111v-123h-432zM846 1345v197h198v-197h-198z" />
<glyph unicode="&#xfb02;" d="M69 0v123h123v802h-117v136h117v186q0 357 396 357q86 0 196 -16l62 -9h197v-1190q1 -69 7 -116q7 -59 27.5 -92t58.5 -45.5t81 -12.5v-123q-21 -6 -49 -9q-104 -13 -161 7t-93.5 66.5t-52 119.5t-15.5 175v1091q-135 37 -249 37q-117 0 -163 -40q-44 -40 -44 -146v-240 h296v-136h-296v-802h111v-123h-432z" />
</font>
</defs>
</svg>
