<?xml version="1.0" standalone="no"?>
<!DOCTYPE svg PUBLIC "-//W3C//DTD SVG 1.1//EN" "http://www.w3.org/Graphics/SVG/1.1/DTD/svg11.dtd" >
<svg xmlns="http://www.w3.org/2000/svg" xmlns:xlink="http://www.w3.org/1999/xlink" version="1.1">
<metadata></metadata>
<defs>
<font id="go_monoitalic" horiz-adv-x="1229" >
<font-face units-per-em="2048" ascent="1638" descent="-410" />
<missing-glyph horiz-adv-x="500" />
<glyph />
<glyph />
<glyph unicode="&#xd;" />
<glyph unicode=" " />
<glyph unicode="!" d="M500 0l52 262h267l-52 -262h-267zM649 459l89 627l78 394h225l-78 -394l-163 -627h-151z" />
<glyph unicode="&#x22;" d="M479 952l76 627h247l-175 -627h-148zM982 952l76 627h246l-174 -627h-148z" />
<glyph unicode="#" d="M129 444l56 124h235l155 345h-284l56 123h284l199 444h136l-199 -444h259l199 444h136l-199 -444h234l-56 -123h-234l-156 -345h284l-56 -124h-283l-199 -444h-136l199 444h-259l-199 -444h-136l199 444h-235zM555 568h260l155 345h-259z" />
<glyph unicode="$" d="M160 86l59 299h123l-14 -198q113 -56 221 -64l115 575l-79 53q-225 150 -181 372q35 174 183 273q104 69 258 84l25 124h124l-25 -124q161 -1 314 -72l-57 -284h-123l15 198q-80 35 -152 35h-21l-107 -534l78 -47q133 -81 177 -163t19 -204q-39 -197 -201 -314 q-109 -80 -262 -95l-25 -123h-124l25 123q-199 16 -365 86zM584 1133q-26 -130 97 -211l47 -31l93 466q-111 -26 -168 -86q-53 -55 -69 -138zM673 123q83 9 147 69q86 80 109 196q26 132 -94 209l-60 38z" />
<glyph unicode="%" d="M53 -37l1284 1554h132l-1287 -1554h-129zM242 1110q34 168 127 269q92 101 217 101t171 -101q59 -102 25 -268q-33 -169 -126 -270t-222 -101q-110 0 -162 83q-66 105 -30 287zM384 1110q-49 -246 79 -246t177 247q50 246 -78 246t-178 -247zM741 371q33 167 126 268 q92 101 217 101t171 -101q59 -101 26 -267q-34 -170 -127 -271t-219 -101q-112 0 -165 82q-66 105 -29 289zM883 372q-50 -249 78 -249q129 0 178 247q50 247 -79 247q-128 0 -177 -245z" />
<glyph unicode="&#x26;" d="M139 413q36 178 170 315q78 80 213 161q-38 167 -12 299q30 152 132 241t249 89q152 0 209 -82q50 -71 25 -196q-29 -145 -163 -261q-81 -70 -223 -143q106 -332 206 -504q113 119 133 218l12 67h-99l24 123h324l-24 -123h-72q-27 -90 -77 -177q-48 -88 -161 -200 l87 -117h124l-24 -123h-264l-73 110q-210 -147 -385 -147q-188 0 -279 125q-92 125 -52 325zM324 441q-31 -154 26 -242q57 -89 186 -89q124 0 262 98q-132 225 -237 577q-195 -131 -237 -344zM691 1198q-28 -139 9 -248q2 -4 5 -12q92 54 144 109q75 80 96 185 q32 162 -83 162q-132 0 -171 -196z" />
<glyph unicode="'" d="M730 952l51 627h296l-199 -627h-148z" />
<glyph unicode="(" d="M449 642q84 419 388 702q122 113 260 175q86 38 200 60l-25 -123q-203 -58 -350 -232q-192 -228 -263 -582q-75 -373 40 -604q78 -156 248 -211l-25 -123q-146 30 -241 102q-159 120 -225 349q-61 217 -7 487z" />
<glyph unicode=")" d="M187 -296l25 123q205 58 351 232q193 228 264 583q74 372 -41 603q-78 156 -249 211l25 123q147 -30 243 -102q159 -120 223 -349q62 -216 8 -486q-84 -421 -388 -703q-122 -113 -260 -175q-85 -38 -201 -60z" />
<glyph unicode="*" d="M270 832l109 214l328 -170q-42 -36 -50 -76q-1 -9 -3 -26zM333 435l326 305q15 -45 73 -61l-229 -362zM735 895l28 395h222l-137 -395q-36 15 -53 15q-19 0 -60 -15zM758 678q58 7 101 56l216 -290l-208 -128zM870 875l400 172l20 -217l-406 -54q0 3 2 9l1 3l1 4 q10 49 -18 83z" />
<glyph unicode="+" d="M207 543l30 148h442l88 442h148l-88 -442h441l-30 -148h-441l-88 -442h-148l88 442h-442z" />
<glyph unicode="," d="M368 -395l19 99q115 12 148 67q29 48 72 229h-160l67 336h336l-44 -220q-102 -511 -438 -511z" />
<glyph unicode="-" d="M207 543l30 148h1031l-30 -148h-1031z" />
<glyph unicode="." d="M446 0l67 336h336l-67 -336h-336z" />
<glyph unicode="/" d="M39 -296l1243 1875h164l-1244 -1875h-163z" />
<glyph unicode="0" d="M244 741q72 361 252 568q181 208 421 208t337 -208q98 -207 26 -567q-73 -366 -254 -572q-180 -207 -428 -207q-211 0 -309 169q-124 214 -45 609zM422 376q3 -66 17 -118q44 -172 191 -172q307 0 437 654q27 135 34 241zM422 499l680 606q-3 67 -17 120 q-46 169 -193 169t-260 -170q-113 -171 -175 -482q-27 -135 -35 -243z" />
<glyph unicode="1" d="M113 0l24 123h444l236 1182l-479 -177l26 132l694 257l-279 -1394h444l-24 -123h-1086z" />
<glyph unicode="2" d="M133 0l34 173q147 186 322 320l122 93l144 112q282 218 322 421q25 125 -36 200q-60 75 -186 75q-118 0 -276 -86l-71 -235h-124l70 350q265 94 465 94q207 0 306 -108q99 -107 62 -291q-26 -132 -101 -229q-77 -101 -245 -221l-99 -71q-257 -186 -336 -268 q-70 -72 -116 -156h752l-34 -173h-975z" />
<glyph unicode="3" d="M186 10l75 374h123l-24 -246q76 -52 195 -52q153 0 260 87t137 236q64 319 -352 319h-135l25 123h114q395 0 454 296q22 114 -37 180q-59 67 -186 67q-118 0 -210 -39l-54 -209h-124l64 318q204 53 369 53q453 0 382 -353q-32 -163 -157 -263q-76 -59 -204 -103 q99 -31 147 -65q157 -111 112 -334q-39 -194 -201 -315t-391 -121q-155 0 -300 30z" />
<glyph unicode="4" d="M167 419l30 149l811 912h197l-182 -912h222l-30 -149h-222l-59 -296h198l-24 -123h-642l24 123h272l59 296h-654zM351 568h500l145 724z" />
<glyph unicode="5" d="M249 0l64 321h123l-15 -198q85 -37 152 -37q133 0 240 98q109 99 139 249q33 167 -66 266q-99 98 -300 98q-65 0 -150 -14l139 697h765l-34 -172h-620l-78 -392q49 3 75 3q261 0 392 -131q132 -130 88 -348q-41 -208 -214 -342q-173 -135 -398 -135q-115 0 -302 37z" />
<glyph unicode="6" d="M263 710q77 385 282 596q206 211 496 211q128 0 311 -71l-63 -317h-124l19 210q-76 55 -167 55q-215 0 -367 -216q-107 -151 -161 -405q82 88 160 132q116 64 250 64q190 0 281 -134q92 -133 49 -349q-47 -231 -213 -377t-382 -146q-244 0 -342 198q-99 199 -29 549z M445 480q-32 -160 38 -277t201 -117q111 0 194 79q106 100 146 298q75 376 -188 376q-135 0 -247 -103q-113 -102 -144 -256z" />
<glyph unicode="7" d="M264 0q147 432 596 949l162 184l141 162h-760l37 185h913l-37 -185l-111 -119q-325 -352 -518 -711q-133 -250 -176 -465h-247z" />
<glyph unicode="8" d="M194 372q45 224 316 392l63 39l-45 40q-146 130 -112 302q33 162 179 267q145 105 342 105q187 0 283 -91q97 -91 67 -241q-23 -118 -97 -197q-56 -59 -180 -153l-55 -42l59 -46q124 -97 161 -175q36 -77 14 -191q-38 -186 -200 -302t-386 -116t-335 112t-74 297z M392 377q-26 -128 45 -209q71 -82 206 -82q125 0 215 72q90 71 113 187q17 82 -12 135q-26 52 -124 128l-175 135q-138 -123 -190 -191q-58 -75 -78 -175zM608 1184q-19 -97 88 -194l83 -75l75 -53q218 169 246 312q21 106 -31 163q-54 57 -179 57q-109 0 -187 -60 q-77 -59 -95 -150z" />
<glyph unicode="9" d="M170 34l64 317h123l-18 -210q75 -55 167 -55q214 0 367 216q107 151 161 405q-82 -87 -160 -131q-116 -64 -251 -64q-190 0 -280 134q-92 133 -49 348q46 232 212 377q167 146 383 146q244 0 342 -198t28 -549q-77 -385 -282 -596t-495 -211q-128 0 -312 71zM499 1017 q-75 -376 188 -376q134 0 247 103q113 102 143 256q32 160 -38 277q-71 117 -201 117q-110 0 -194 -79q-106 -100 -145 -298z" />
<glyph unicode=":" d="M500 0l67 336h336l-67 -336h-336zM654 774l67 336h336l-67 -336h-336z" />
<glyph unicode=";" d="M421 -395l19 99q115 12 148 67q29 48 72 229h-160l67 336h336l-44 -220q-102 -511 -438 -511zM654 774l67 336h336l-67 -336h-336z" />
<glyph unicode="&#x3c;" d="M222 617l1155 617l-34 -173l-832 -444l654 -444l-34 -173z" />
<glyph unicode="=" d="M168 346l29 148h1031l-29 -148h-1031zM246 740l30 148h1031l-30 -148h-1031z" />
<glyph unicode="&#x3e;" d="M99 0l34 173l832 444l-654 444l34 173l909 -617z" />
<glyph unicode="?" d="M435 0l44 222h247l-44 -222h-247zM436 1073l75 377q232 67 425 67q466 0 398 -337q-33 -166 -202 -276l-64 -42q-4 -2 -14 -9q-10 -6 -19 -12q-15 -8 -38 -22q-83 -65 -130 -116q-56 -56 -87 -212l-11 -52h-247l10 49q46 232 322 388l76 47q163 100 191 239 q21 106 -38 169q-57 63 -181 63t-266 -62l-76 -259h-124z" />
<glyph unicode="@" d="M230 719q71 355 277 577q207 221 471 221q393 0 298 -475l-126 -628h118l-24 -123h-241l73 367h-25q-70 -159 -154 -252q-111 -122 -220 -122q-104 0 -149 104q-46 104 -14 266q44 219 188 371q145 153 309 153q64 0 155 -26q-2 135 -65 191q-56 51 -160 51 q-204 0 -364 -182q-162 -183 -221 -479q-59 -297 39 -472q97 -175 316 -175q117 0 263 64l-27 -138q-161 -49 -264 -49q-276 0 -399 203q-124 203 -54 553zM661 495q17 -69 63 -69q70 0 169 125q96 121 237 376l22 111q-73 48 -141 48q-121 0 -214 -112t-131 -300 q-22 -109 -5 -179z" />
<glyph unicode="A" d="M25 0l24 123h74l692 1357h189l149 -1357h74l-24 -123h-437l24 123h157l-36 321h-496l-163 -321h143l-24 -123h-346zM479 568h419l-73 675h-2z" />
<glyph unicode="B" d="M74 0l24 123h173l247 1234h-173l24 123h618q319 0 319 -236q0 -41 -10 -89q-33 -168 -156 -273q-73 -63 -196 -111q92 -26 136 -56q118 -81 117 -237q0 -47 -10 -101q-75 -377 -519 -377h-594zM470 131h163q295 0 347 261q7 37 7 69q0 94 -59 158q-79 85 -247 85h-97z M609 827h98q313 0 375 312q8 38 8 69q0 149 -175 149h-200z" />
<glyph unicode="C" d="M272 748q74 369 270 569t486 200q164 0 368 -64l-66 -328h-123l14 216q-102 53 -213 53q-187 0 -326 -176q-138 -175 -200 -484q-26 -127 -25 -232q0 -141 46 -240q82 -168 280 -168q176 0 390 138l-32 -158q-229 -111 -410 -111q-289 0 -411 206q-76 128 -76 320 q0 118 28 259z" />
<glyph unicode="D" d="M49 0l24 123h148l247 1234h-148l24 123h510q494 0 494 -465q0 -108 -27 -240q-71 -356 -273 -566q-201 -209 -471 -209h-528zM421 131h118q441 0 565 623q27 133 27 236q0 136 -47 220q-82 147 -314 147h-104z" />
<glyph unicode="E" d="M74 0l24 123h185l247 1234h-185l24 123h982l-71 -355h-123l47 232h-476l-109 -543h291l25 124h123l-74 -371h-123l25 124h-291l-112 -560h525l49 247h124l-75 -378h-1032z" />
<glyph unicode="F" d="M111 0l24 123h222l247 1234h-222l24 123h1025l-74 -370h-123l50 247h-483l-116 -580h298l25 124h123l-75 -371h-123l25 124h-298l-106 -531h272l-24 -123h-691z" />
<glyph unicode="G" d="M223 747q74 373 271 572q198 199 497 199q173 0 356 -62l-66 -331h-123l14 216q-103 54 -202 54q-405 0 -536 -658q-27 -132 -27 -238q0 -140 47 -235q81 -170 285 -170q78 0 169 32l82 411h-172l24 123h370l-117 -586q-204 -111 -405 -111q-296 0 -419 206 q-76 127 -76 320q0 117 28 258z" />
<glyph unicode="H" d="M62 0l24 123h111l247 1234h-111l24 123h407l-24 -123h-99l-106 -530h489l106 530h-99l24 123h408l-24 -123h-111l-247 -1234h111l-24 -123h-408l24 123h99l116 580h-489l-116 -580h99l-24 -123h-407z" />
<glyph unicode="I" d="M160 0l24 123h355l247 1234h-355l24 123h908l-24 -123h-355l-247 -1234h355l-24 -123h-908z" />
<glyph unicode="J" d="M117 31l82 413h123l-21 -301q103 -49 184 -49q116 0 178 55q63 54 87 173l207 1035h-395l24 123h852l-24 -123h-260l-199 -995q-43 -214 -153 -306q-111 -93 -323 -93q-158 0 -362 68z" />
<glyph unicode="K" d="M74 0l24 123h130l247 1234h-130l24 123h432l-24 -123h-105l-120 -601h7l550 601h-111l24 123h356l-24 -123h-92l-506 -546l391 -688h74l-24 -123h-425l24 123h111l-352 617h-7l-123 -617h123l-24 -123h-450z" />
<glyph unicode="L" d="M86 0l24 123h247l247 1234h-247l24 123h679l-24 -123h-235l-245 -1226h498l69 345h123l-95 -476h-1065z" />
<glyph unicode="M" d="M25 0l24 123h86l247 1234h-86l24 123h285l103 -1018h2l520 1018h269l-24 -123h-86l-247 -1234h86l-24 -123h-320l24 123h72l201 1005h-2l-478 -934h-135l-97 972h-2l-208 -1043h86l-24 -123h-296z" />
<glyph unicode="N" d="M74 0l24 123h111l247 1234h-111l24 123h234l395 -1075h2l191 952h-110l24 123h345l-24 -123h-111l-271 -1357h-124l-394 1076h-3l-191 -953h111l-24 -123h-345z" />
<glyph unicode="O" d="M210 741q68 343 265 559q199 217 443 217q243 0 354 -216q70 -134 70 -318q0 -111 -26 -241q-70 -348 -268 -563q-198 -216 -448 -216q-214 0 -324 175q-92 147 -92 358q0 113 26 245zM416 263q54 -171 216 -171t275 147q128 164 195 497q33 164 33 289q0 112 -27 192 q-58 167 -217 167q-161 0 -283 -167q-124 -170 -186 -479q-32 -161 -32 -284q0 -111 26 -191z" />
<glyph unicode="P" d="M86 0l24 123h197l247 1234h-197l24 123h661q317 0 316 -255q0 -49 -11 -106q-48 -241 -216 -381q-168 -139 -413 -139h-118l-95 -476h284l-24 -123h-679zM625 722h111q322 0 395 367q10 51 10 92q0 176 -188 176h-201z" />
<glyph unicode="Q" d="M209 740q69 343 266 560q198 217 443 217q244 0 354 -217q70 -135 70 -318q0 -112 -26 -241q-64 -320 -241 -532q-119 -143 -287 -211q142 -101 402 -161q-86 -85 -200 -158q-193 79 -383 284q-151 25 -226 66q-90 49 -143 176q-54 133 -54 297q0 112 25 238zM416 264 q54 -172 216 -172t275 148q128 165 195 498q33 164 33 288q0 113 -27 192q-58 168 -217 168q-161 0 -283 -169q-124 -167 -186 -477q-32 -161 -32 -284q0 -111 26 -192z" />
<glyph unicode="R" d="M86 0l24 123h130l247 1234h-130l24 123h587q176 0 258 -97q58 -69 59 -174q0 -42 -10 -91q-31 -153 -146 -271q-68 -68 -185 -138l196 -586h88l-24 -123h-253l-210 648h-199l-105 -525h130l-24 -123h-457zM567 771h99q330 0 395 325q9 45 9 82q0 179 -207 179h-179z" />
<glyph unicode="S" d="M163 61l71 358h124l-23 -234q169 -91 293 -91q127 0 222 79q95 78 117 192q5 24 5 46q0 126 -152 215l-171 99q-169 98 -219 181q-32 52 -32 128q0 41 9 89q79 394 527 394q183 0 360 -73l-64 -319h-123l14 195q-110 74 -227 74q-241 0 -290 -246q-6 -31 -6 -56 q0 -59 32 -93q41 -42 153 -110l151 -91q174 -105 219 -178q30 -47 30 -118q0 -41 -10 -89q-41 -204 -199 -327q-160 -123 -384 -123q-205 0 -427 98z" />
<glyph unicode="T" d="M257 0l24 123h259l247 1234h-331l-47 -232h-123l71 355h1106l-71 -355h-124l47 232h-330l-247 -1234h259l-24 -123h-716z" />
<glyph unicode="U" d="M294 550l162 807h-123l24 123h457l-24 -123h-136l-167 -834q-19 -97 -20 -173q0 -89 27 -150q49 -114 179 -114q265 0 354 446l165 825h-136l24 123h383l-24 -123h-124l-172 -861q-51 -252 -190 -392q-138 -141 -340 -141q-344 0 -344 365q0 98 25 222z" />
<glyph unicode="V" d="M297 1357l24 123h437l-24 -123h-157l122 -1120h2l571 1120h-143l24 123h346l-24 -123h-74l-692 -1357h-189l-149 1357h-74z" />
<glyph unicode="W" d="M242 0l101 1357h-49l24 123h304l-24 -123h-100l-81 -1082h10l379 972l149 1l-9 -967h9l349 1076h-100l24 123h274l-24 -123h-50l-441 -1357h-178l8 974h-8l-378 -974h-189z" />
<glyph unicode="X" d="M49 0l24 123h111l471 607l-236 627h-99l24 123h420l-24 -123h-100l188 -500l389 500h-128l24 123h361l-24 -123h-105l-475 -611l235 -623h98l-24 -123h-443l24 123h124l-187 496l-385 -496h154l-24 -123h-393z" />
<glyph unicode="Y" d="M294 0l24 123h222l107 537l-263 697h-86l24 123h463l-24 -123h-149l206 -544h2l424 544h-148l24 123h376l-24 -123h-86l-541 -696l-108 -538h222l-24 -123h-641z" />
<glyph unicode="Z" d="M148 0l27 136l944 1221h-558l-47 -232h-123l71 355h901l-24 -123l-953 -1226h597l59 296h124l-85 -427h-933z" />
<glyph unicode="[" d="M335 -296l375 1875h543l-25 -123h-370l-325 -1629h370l-25 -123h-543z" />
<glyph unicode="\" d="M414 1579h163l494 -1875h-164z" />
<glyph unicode="]" d="M231 -296l25 123h370l325 1629h-370l25 123h543l-375 -1875h-543z" />
<glyph unicode="^" d="M197 494l713 986l318 -986h-168l-214 667l-482 -667h-167z" />
<glyph unicode="_" d="M-29 -148l29 148h1229l-30 -148h-1228z" />
<glyph unicode="`" d="M712 1604h228l152 -321h-123z" />
<glyph unicode="a" d="M210 498q57 285 225 448q166 164 404 164q87 0 224 -24h198l-193 -963h123l-24 -123h-321l44 222q-97 -111 -179 -167q-117 -80 -236 -80q-165 0 -239 144q-44 87 -44 208q0 79 18 171zM421 504q-20 -100 -20 -174q0 -207 158 -207q164 0 358 234l120 600 q-132 22 -209 22q-165 0 -260 -107q-94 -106 -147 -368z" />
<glyph unicode="b" d="M185 0l290 1456h-123l25 123h321l-143 -715q97 111 179 166q118 80 236 80q165 0 239 -143q44 -88 44 -209q0 -78 -18 -170q-57 -286 -225 -449q-166 -164 -401 -164q-88 0 -226 25h-198zM408 129q132 -23 208 -23q167 0 261 107t146 365q19 96 19 167q0 205 -159 205 q-164 0 -357 -234z" />
<glyph unicode="c" d="M220 555q52 260 240 407q186 148 473 148q213 0 375 -54l-62 -310h-124l4 197q-112 44 -228 44q-176 0 -304 -118q-119 -118 -159 -317q-15 -75 -15 -138q0 -121 56 -195q94 -113 300 -113q168 0 371 81l-28 -141q-176 -71 -408 -71q-283 0 -414 158q-92 113 -92 279 q0 67 15 143z" />
<glyph unicode="d" d="M210 498q57 285 225 448q166 164 404 164q87 0 224 -24l73 370h-246l25 123h444l-291 -1456h123l-24 -123h-321l44 222q-97 -111 -179 -167q-117 -80 -236 -80q-165 0 -239 144q-44 87 -44 208q0 79 18 171zM421 504q-20 -100 -20 -174q0 -207 158 -207q164 0 358 234 l120 600q-132 22 -209 22q-165 0 -260 -107q-94 -106 -147 -368z" />
<glyph unicode="e" d="M233 551q50 251 229 405q177 154 419 154q358 0 358 -352q0 -85 -21 -191l-12 -61h-771q-6 -63 -6 -109q0 -54 8 -86q50 -205 311 -205q161 0 370 105l-30 -149q-192 -87 -392 -87q-259 0 -388 159q-90 113 -90 275q0 67 15 142zM461 629h559l9 46q13 63 13 113 q0 199 -199 199q-154 0 -263 -123q-76 -86 -119 -235z" />
<glyph unicode="f" d="M159 0l24 123h260l156 782h-271l28 136h271l27 138q45 225 156 325t313 100q171 0 348 -80l-49 -247h-123v156q-92 47 -175 47q-119 0 -177 -60q-59 -60 -91 -219l-31 -160h444l-28 -136h-444l-156 -782h320l-24 -123h-778z" />
<glyph unicode="g" d="M110 -353l49 247h123l-1 -136q19 -10 45.5 -20t57 -17.5t63.5 -12t67 -4.5q67 0 117 15.5t85.5 43t59.5 65.5t41 83.5t28.5 96.5t22.5 105l40 199q-99 -113 -179 -167q-119 -80 -237 -80q-165 0 -238 144q-48 93 -48 208q0 62 14 131q25 123 77.5 219.5t137.5 178.5 q166 164 405 164q67 0 119 -7t104 -17h317l-25 -123h-119l-162 -808q-14 -70 -30 -139.5t-43 -133.5t-67 -119t-100.5 -95.5t-145 -64t-200.5 -23.5q-86 0 -185 13.5t-193 53.5zM432 559q-16 -78 -16 -138q0 -195 164 -195t357 234l96 479q-67 11 -118.5 17t-89.5 6 q-165 0 -261 -107q-47 -54 -79.5 -125t-52.5 -171z" />
<glyph unicode="h" d="M82 0l24 123h110l266 1333h-123l25 123h321l-140 -703q90 105 168 158q111 76 230 76q240 0 240 -246q0 -63 -16 -142l-120 -599h124l-24 -123h-321l140 705q13 62 13 109q0 148 -124 148q-150 0 -345 -258l-116 -581h111l-24 -123h-419z" />
<glyph unicode="i" d="M148 0l24 123h390l168 839h-390l25 124h587l-193 -963h370l-24 -123h-957zM774 1332l49 247h242l-49 -247h-242z" />
<glyph unicode="j" d="M90 -344l64 319h123l-13 -218q57 -53 136 -53q132 0 208 96t122 327l167 835h-444l25 124h642l-204 -1020q-46 -230 -185 -358q-138 -128 -339 -128q-139 0 -302 76zM939 1332l49 247h242l-49 -247h-242z" />
<glyph unicode="k" d="M74 0l24 123h123l266 1333h-123l25 123h321l-197 -987h24l432 370h-116l25 124h432l-25 -124h-141l-436 -362l393 -477h99l-24 -123h-355l24 123l-322 401h-24l-80 -401h99l-24 -123h-420z" />
<glyph unicode="l" d="M380 1456l25 123h567l-231 -1154q-18 -93 -23 -152q-1 -16 -1 -29q0 -38 10 -63q14 -33 49.5 -45t98.5 -12q124 0 280 77l-28 -140q-183 -86 -353 -86q-92 0 -149.5 21.5t-84.5 68t-28 119.5v7q0 71 19 168l219 1097h-370z" />
<glyph unicode="m" d="M100 0l192 962h-74l25 124h253l-44 -217q95 140 147 186q63 55 139 55q100 0 128 -93q9 -30 9 -79q0 -31 -4 -69q65 114 122 166q81 75 171 75q145 0 145 -164q0 -47 -12 -109l-143 -714h70l-24 -123h-249l150 752q16 82 16 133q0 77 -39 77q-48 0 -125 -88 q-41 -49 -66 -91q-39 -65 -44 -92l-114 -568h70l-24 -123h-249l159 798q11 55 11 91q0 73 -44 73q-87 0 -235 -271l-114 -568h70l-24 -123h-249z" />
<glyph unicode="n" d="M82 0l24 123h110l168 839h-120l25 124h318l-42 -210q90 105 168 158q111 76 230 76q240 0 240 -246q0 -63 -16 -142l-120 -599h120l-24 -123h-317l140 705q13 62 13 109q0 148 -124 148q-150 0 -345 -258l-116 -581h100l-24 -123h-408z" />
<glyph unicode="o" d="M219 543q53 265 218 416t398 151q235 0 339 -151q70 -100 70 -251q0 -76 -18 -164q-53 -268 -218 -418q-165 -151 -407 -151q-205 0 -310 125q-90 107 -90 278q0 76 18 165zM432 545q-21 -105 -21 -185q0 -262 222 -262q291 0 380 447q21 104 21 183q0 259 -223 259 q-290 0 -379 -442z" />
<glyph unicode="p" d="M-16 -395l23 123h123l247 1234h-123l25 124h321l-45 -222q97 111 179 166q118 80 236 80q165 0 239 -143q44 -88 44 -209q0 -78 -18 -170q-57 -286 -225 -449q-166 -164 -401 -164q-88 0 -226 25l-55 -272h247l-24 -123h-567zM412 146q131 -23 207 -23q167 0 261 107 q95 107 145 359q19 97 19 168q0 205 -158 205q-164 0 -360 -246z" />
<glyph unicode="q" d="M210 498q57 285 225 448q166 164 405 164l223 -24h198l-272 -1358h123l-24 -123h-567l24 124h246l99 493q-97 -111 -179 -167q-117 -80 -236 -80q-165 0 -239 144q-44 87 -44 208q0 79 18 171zM422 509q-19 -96 -19 -167q0 -206 159 -206q164 0 357 234l114 569 q-131 23 -208 23q-165 0 -261 -107q-94 -107 -142 -346z" />
<glyph unicode="r" d="M83 0l24 123h250l168 839h-259l25 124h456l-43 -211q96 106 173 159q111 76 222 76q118 0 215 -68l-59 -296h-124l11 156q-49 36 -111 36q-184 0 -361 -236l-116 -579h360l-24 -123h-807z" />
<glyph unicode="s" d="M185 61l59 297h123l-12 -183q181 -76 318 -76q238 0 272 168q4 19 4 35q0 41 -24 67q-32 37 -130 64l-193 54q-162 45 -226 118q-45 52 -45 129q0 28 6 60q63 317 495 317q221 0 388 -72l-57 -286h-123l11 181q-98 53 -244 53q-110 0 -178 -35q-80 -41 -97 -126 q-2 -12 -2 -23q0 -95 174 -143l192 -53q159 -44 218 -112q42 -48 43 -121q0 -28 -7 -61q-31 -157 -172 -247q-141 -91 -361 -91q-226 0 -432 86z" />
<glyph unicode="t" d="M303 925l28 136h278l56 281h197l-56 -281h426l-28 -136h-426l-107 -537q-19 -95 -19 -152q0 -39 9 -60q21 -53 116 -53q106 0 294 77l-27 -139q-182 -86 -353 -86q-161 0 -216 75q-33 45 -33 127q0 53 14 122l125 626h-278z" />
<glyph unicode="u" d="M260 962l25 124h321l-142 -706q-12 -61 -13 -107q0 -148 125 -148q149 0 345 257l116 580h-111l25 124h309l-193 -963h123l-24 -123h-321l41 209q-90 -105 -168 -158q-111 -76 -230 -76q-241 0 -241 246q0 63 16 142l120 599h-123z" />
<glyph unicode="v" d="M247 962l25 124h447l-25 -124h-160l155 -778h2l467 778h-160l25 124h367l-25 -124h-74l-577 -962h-200l-193 962h-74z" />
<glyph unicode="w" d="M215 962l25 124h311l-25 -124h-86l-16 -724h2l314 685h167l40 -688h2l276 727h-98l25 124h272l-25 -124h-49l-362 -962h-193l-39 703h-2l-322 -703h-190l22 962h-49z" />
<glyph unicode="x" d="M72 0l24 123h110l415 420l-247 419h-123l25 124h438l-25 -124h-87l195 -331l326 331h-103l25 124h361l-25 -124h-117l-415 -420l246 -419h118l-24 -123h-445l24 123h99l-189 321l-316 -321h100l-24 -123h-366z" />
<glyph unicode="y" d="M196 -395l24 124h198l163 271h-67l-193 962h-74l25 124h447l-25 -124h-160l155 -778h2l467 778h-160l25 124h367l-25 -124h-74l-577 -962l-163 -271h148l-24 -124h-479z" />
<glyph unicode="z" d="M123 0l24 123l868 839h-540l-40 -197h-123l65 321h896l-25 -124l-857 -831h604l39 195h124l-65 -326h-970z" />
<glyph unicode="{" d="M298 580l25 123h112q227 0 266 197q8 39 10 86l3 121q2 76 13 134q30 149 160 244q129 94 299 94h131l-25 -123h-59q-278 0 -319 -207q-8 -40 -9 -86l-3 -125q-1 -46 -9 -84q-26 -129 -121 -217q-56 -51 -151 -95q84 -48 120 -106q51 -85 26 -210q-9 -41 -24 -81 l-47 -125q-17 -46 -26 -91q-40 -202 238 -202h59l-25 -123h-131q-172 0 -262 95q-91 95 -60 248q10 53 39 129l45 121q17 47 26 90q38 193 -189 193h-112z" />
<glyph unicode="|" d="M480 -296l375 1875h148l-375 -1875h-148z" />
<glyph unicode="}" d="M167 -296l25 123h59q278 0 319 206q8 42 9 87l3 125q1 40 10 85q26 128 121 216q55 51 151 96q-84 48 -119 106q-52 85 -27 209q8 41 23 81l47 125q17 45 26 91q40 202 -238 202h-59l25 123h131q172 0 262 -95q91 -96 61 -247q-11 -55 -39 -130l-45 -121q-18 -46 -26 -90 q-39 -193 188 -193h112l-25 -123h-112q-227 0 -266 -197q-8 -41 -9 -86l-3 -120q-2 -74 -14 -135q-30 -148 -160 -243q-129 -95 -299 -95h-131z" />
<glyph unicode="~" d="M192 469q25 106 55 161q95 167 288 167q103 0 194 -69l102 -77l60 -46q26 -20 80 -20q123 0 163 180h148q-24 -106 -55 -161q-93 -167 -286 -167q-104 0 -194 69l-102 77l-61 46q-27 20 -83 20q-121 0 -161 -180h-148z" />
<glyph unicode="&#xa0;" />
<glyph unicode="&#xa1;" d="M437 -395l79 395l170 666h123l-96 -666l-79 -395h-197zM663 864l45 222h247l-45 -222h-247z" />
<glyph unicode="&#xa2;" d="M320 737q56 283 244 435q130 106 325 133l35 175h124l-34 -172q153 -13 286 -50l-64 -320h-123l17 209q-64 37 -141 37l-176 -879q116 0 323 71l-29 -142q-156 -51 -320 -61l-34 -173h-124l35 179q-196 25 -284 141q-114 149 -60 417zM529 734q-44 -222 26 -328 q29 -45 72 -67q21 -10 65 -22l172 862q-70 -22 -110 -48q-167 -110 -225 -397z" />
<glyph unicode="&#xa3;" d="M149 0l35 179q216 70 271 332l43 217h-173l25 123h173l51 259q38 188 165 297q127 110 310 110q128 0 272 -49l-62 -308h-123l17 209q-75 25 -135 25q-190 0 -231 -203l-67 -340h265l-25 -123h-265l-34 -169q-52 -254 -259 -386h675l-34 -173h-894z" />
<glyph unicode="&#xa4;" d="M130 228l209 175q-64 125 -36 267q29 144 143 268l-139 174l104 88l140 -175q148 90 285 90t249 -90l210 175l70 -88l-210 -174q65 -125 36 -268q-28 -142 -143 -267l140 -174l-104 -88l-140 175q-148 -90 -285 -90t-249 90l-210 -175zM452 674q-23 -115 30 -197 q67 -103 207 -103q124 0 226 86q104 86 129 211q24 124 -44 210t-193 86q-124 0 -227 -86q-103 -85 -128 -207z" />
<glyph unicode="&#xa5;" d="M252 407l25 124h345l25 129l-30 80h-299l25 124h229l-186 493h-66l24 123h441l-24 -123h-149l206 -544h2l424 544h-148l24 123h354l-24 -123h-64l-384 -493h229l-25 -124h-300l-61 -79l-26 -130h346l-25 -124h-346l-57 -284h222l-24 -123h-641l24 123h222l57 284h-345z " />
<glyph unicode="&#xa6;" d="M480 -296l148 740h148l-148 -740h-148zM707 839l148 740h148l-148 -740h-148z" />
<glyph unicode="&#xa7;" d="M102 -259l64 321h123l-17 -210q148 -62 303 -62q132 0 219 56q86 55 104 148q17 83 -43 131q-45 38 -146 81l-227 96q-242 102 -198 320q31 154 202 290q-118 101 -89 246q34 172 185 266q150 94 394 94q157 0 336 -44l-64 -320h-124l17 203q-123 37 -233 37 q-132 0 -214 -42q-95 -49 -115 -150q-17 -84 57 -148q44 -36 125 -70l190 -79q256 -106 211 -334q-29 -145 -187 -290q131 -111 100 -268q-31 -158 -178 -252t-374 -94q-230 0 -421 74zM461 672q-26 -131 124 -198l247 -109l47 -21q109 98 127 189q26 131 -146 199l-237 94 l-45 19q-100 -88 -117 -173z" />
<glyph unicode="&#xa8;" d="M537 1283l39 197h197l-39 -197h-197zM1006 1283l39 197h197l-39 -197h-197z" />
<glyph unicode="&#xa9;" d="M209 740q71 352 265 564q195 213 444 213t358 -213q110 -213 40 -562q-71 -356 -266 -567q-194 -212 -452 -212q-218 0 -326 173q-139 221 -63 604zM333 741q-60 -296 21 -481q81 -186 271 -186q174 0 318 147q182 186 249 521q59 297 -23 480q-84 184 -274 184 q-192 0 -347 -184q-156 -184 -215 -481zM432 733q40 199 164 322t289 123q93 0 196 -27l16 -4l-37 -185h-85l18 93q-68 25 -124 25q-110 0 -195 -94q-87 -94 -117 -245q-31 -155 23 -247q55 -93 179 -93q97 0 203 50l-22 -107l-21 -8q-125 -46 -211 -46q-160 0 -237 123 q-78 123 -39 320z" />
<glyph unicode="&#xaa;" d="M322 932q52 263 603 263h78l11 55q16 78 -25 111q-39 33 -146 33q-87 0 -220 -42l-17 -83h-149l38 189q263 59 405 59q177 0 248 -54t47 -176l-86 -431h178l-25 -123h-326l-8 84q-180 -102 -331 -102q-143 0 -219 59t-56 158zM509 937q-20 -98 149 -98q136 0 293 94 l29 145h-40q-403 0 -431 -141z" />
<glyph unicode="&#xab;" d="M190 543l533 444l70 -86l-356 -358l212 -358l-104 -86zM683 543l534 444l69 -86l-356 -358l212 -358l-103 -86z" />
<glyph unicode="&#xac;" d="M207 543l30 148h1031l-30 -148l-69 -346h-148l69 346h-883z" />
<glyph unicode="&#xad;" d="M256 543l30 148h933l-30 -148h-933z" />
<glyph unicode="&#xae;" d="M209 740q71 352 265 564q195 213 444 213t358 -213q110 -213 40 -562q-71 -356 -266 -567q-194 -212 -452 -212q-218 0 -326 173q-139 221 -63 604zM333 741q-60 -296 21 -481q81 -186 271 -186q174 0 318 147q182 186 249 521q59 297 -23 480q-84 184 -274 184 q-192 0 -347 -184q-156 -184 -215 -481zM427 317l14 71h62l141 705h-62l14 70h272q217 0 176 -206q-31 -153 -196 -234l118 -335h25l-14 -71h-119l-120 370h-64l-60 -299h74l-14 -71h-247zM688 758h7q185 0 223 188q16 82 -12 114q-27 33 -114 33h-37z" />
<glyph unicode="&#xaf;" d="M290 1456l30 148h1229l-30 -148h-1229z" />
<glyph unicode="&#xb0;" d="M561 1221q25 123 129 209q106 87 227 87t191 -87q70 -86 46 -208q-25 -124 -129 -210q-106 -87 -231 -87q-106 0 -173 70q-86 92 -60 226zM685 1222q-15 -71 26 -122q40 -51 110 -51q65 0 121 41q73 52 89 132q14 71 -27 121q-41 51 -112 51t-132 -51q-61 -50 -75 -121z " />
<glyph unicode="&#xb1;" d="M99 0l29 148h1031l-29 -148h-1031zM237 691l29 148h442l79 395h148l-79 -395h441l-29 -148h-441l-79 -395h-148l79 395h-442z" />
<glyph unicode="&#xb2;" d="M402 728l30 148q60 95 134 139q68 40 205 90l104 38q144 53 161 135q23 116 -169 116q-114 0 -204 -37l-31 -92h-123l41 203l39 9q176 41 306 41q368 0 323 -223q-31 -157 -254 -233l-88 -30q-193 -66 -241 -156h512l-30 -148h-715z" />
<glyph unicode="&#xb3;" d="M413 752l34 173h123l-1 -68q66 -18 159 -18q226 0 247 104q17 84 -75 107q-69 17 -222 17h-91l24 124h95q190 0 259 22q68 21 80 83q20 98 -172 98q-118 0 -203 -30l-28 -81h-123l37 185q180 50 353 50q360 0 321 -192q-26 -130 -252 -200q203 -46 174 -193 q-44 -218 -433 -218q-146 0 -306 37z" />
<glyph unicode="&#xb4;" d="M648 1283l280 321h228l-385 -321h-123z" />
<glyph unicode="&#xb5;" d="M112 -395l151 758l120 599h-123l25 124h321l-141 -701q-51 -255 112 -255q149 0 344 252l116 580h-111l25 124h309l-193 -963h123l-24 -123h-321l41 209q-102 -120 -179 -172q-92 -62 -213 -62q-50 0 -107 15l-77 -385h-198z" />
<glyph unicode="&#xb6;" d="M330 1154q68 339 425 339q38 0 96 -5l69 -6q19 -2 54 -2h291l-355 -1776h-124l331 1653h-172l-331 -1653h-124l207 1036q-140 17 -209 50q-211 99 -158 364z" />
<glyph unicode="&#xb7;" d="M600 774l67 336h336l-67 -336h-336z" />
<glyph unicode="&#xb8;" d="M358 -411l17 81q47 -15 101 -15q104 0 118 74q19 93 -167 96l130 175h97l-82 -109q71 -2 116 -39q60 -49 46 -121q-14 -68 -82 -115q-68 -48 -155 -48q-67 0 -139 21z" />
<glyph unicode="&#xb9;" d="M411 728l25 123h262l98 494l-272 -50l25 124l455 98l-133 -666h262l-25 -123h-697z" />
<glyph unicode="&#xba;" d="M371 1117q36 184 184 292t362 108q215 0 319 -108t67 -293q-37 -186 -184 -293q-148 -107 -369 -107q-189 0 -292 89q-127 111 -87 312zM556 1117q-24 -121 39 -199q62 -79 184 -79q112 0 201 63q112 80 139 215q24 121 -41 199q-64 78 -186 78q-123 0 -218 -78 q-94 -79 -118 -199z" />
<glyph unicode="&#xbb;" d="M159 185l356 358l-212 358l103 86l355 -444l-533 -444zM652 185l356 358l-212 358l104 86l355 -444l-533 -444z" />
<glyph unicode="&#xbc;" d="M60 -37l1123 1554h136l-1123 -1554h-136zM272 1304l25 127l364 87l-156 -778h-173l122 608zM579 197l28 141l444 427h191l-91 -457h115l-22 -111h-115l-39 -197h-155l39 197h-395zM715 308h281l67 335z" />
<glyph unicode="&#xbd;" d="M42 -37l1123 1554h136l-1123 -1554h-136zM276 1304l25 127l364 87l-156 -778h-173l122 608zM660 0l27 139q104 137 277 254l50 34q89 61 101 123q21 104 -111 104q-99 0 -225 -56l27 135q138 45 241 45q132 0 201.5 -60t49.5 -158q-25 -125 -209 -233l-63 -37l-45 -26 q-83 -51 -130 -128h381l-27 -136h-545z" />
<glyph unicode="&#xbe;" d="M62 -37l1328 1554h142l-1328 -1554h-142zM191 749l25 125q115 -36 193 -36q154 0 175 104q26 133 -248 133l24 118h30q246 0 270 121q18 91 -120 91q-94 0 -227 -44l26 126q128 30 244 30q136 0 204 -49t51 -135q-28 -141 -271 -200q226 -41 195 -195q-44 -218 -386 -218 q-94 0 -185 29zM600 197l28 141l443 427h192l-91 -457h100l-22 -111h-100l-39 -197h-168l39 197h-382zM723 308h281l67 335z" />
<glyph unicode="&#xbf;" d="M107 -94q33 166 202 276l64 42q4 2 14 9q10 6 19 12q15 8 38 22q83 65 130 116q56 56 87 212l11 52h247l-10 -49q-46 -232 -322 -388l-76 -47q-163 -100 -191 -239q-21 -106 38 -169q57 -63 181 -63t266 62l76 259h124l-75 -377q-232 -67 -425 -67q-466 0 -398 337z M715 864l45 222h247l-45 -222h-247z" />
<glyph unicode="&#xc0;" d="M25 0l24 123h74l692 1357h189l149 -1357h74l-24 -123h-437l24 123h157l-36 321h-496l-163 -321h143l-24 -123h-346zM479 568h419l-73 675h-2zM680 1935h228l152 -321h-123z" />
<glyph unicode="&#xc1;" d="M25 0l24 123h74l692 1357h189l149 -1357h74l-24 -123h-437l24 123h157l-36 321h-496l-163 -321h143l-24 -123h-346zM479 568h419l-73 675h-2zM811 1614l280 321h228l-385 -321h-123z" />
<glyph unicode="&#xc2;" d="M25 0l24 123h74l692 1357h189l149 -1357h74l-24 -123h-437l24 123h157l-36 321h-496l-163 -321h143l-24 -123h-346zM479 568h419l-73 675h-2zM569 1614l320 321h219l192 -321h-123l-201 202h-3l-281 -202h-123z" />
<glyph unicode="&#xc3;" d="M25 0l24 123h74l692 1357h189l149 -1357h74l-24 -123h-437l24 123h157l-36 321h-496l-163 -321h143l-24 -123h-346zM479 568h419l-73 675h-2zM601 1634q25 95 60 145q63 90 172 90q72 0 127 -39l53 -37q54 -38 88 -38q68 0 102 114h111q-26 -94 -61 -144 q-64 -91 -171 -91q-73 0 -128 39l-53 37q-52 37 -88 37q-68 0 -102 -113h-110z" />
<glyph unicode="&#xc4;" d="M25 0l24 123h74l692 1357h189l149 -1357h74l-24 -123h-437l24 123h157l-36 321h-496l-163 -321h143l-24 -123h-346zM479 568h419l-73 675h-2zM601 1634l39 197h197l-39 -197h-197zM1070 1634l39 197h197l-39 -197h-197z" />
<glyph unicode="&#xc5;" d="M25 0l24 123h74l692 1357h62q-61 9 -101 52q-67 69 -45 175q19 95 99 161q79 67 173 67t147 -66q54 -66 35 -161q-20 -99 -100 -164q-66 -55 -143 -64h62l149 -1357h74l-24 -123h-437l24 123h157l-36 321h-496l-163 -321h143l-24 -123h-346zM479 568h419l-73 675h-2z M817 1708q-12 -61 20 -102q33 -42 90 -42q54 0 100 33q58 43 72 111q12 59 -22 100q-33 40 -91 41q-58 -1 -107 -41q-50 -41 -62 -100z" />
<glyph unicode="&#xc6;" d="M12 0l24 123h44l854 1357h559l-63 -314h-123l39 191h-251l-106 -530h177l24 123h123l-74 -370h-123l25 123h-177l-116 -580h269l42 210h124l-66 -333h-689l24 123h111l59 296h-329l-186 -296h121l-24 -123h-292zM471 543h276l127 637h-1z" />
<glyph unicode="&#xc7;" d="M272 748q74 369 270 569t486 200q164 0 368 -64l-69 -343h-123l17 231q-102 53 -213 53q-188 0 -326 -176t-200 -484q-59 -298 21 -467q79 -168 279 -168q178 0 391 135l-32 -160q-219 -106 -394 -111l-53 -72q71 -2 116 -39q60 -49 46 -121q-14 -68 -82 -115 q-69 -48 -154 -48q-67 0 -140 21l17 81q47 -15 101 -15q104 0 118 74q19 93 -167 96l105 142q-229 25 -334 202q-123 206 -48 579z" />
<glyph unicode="&#xc8;" d="M74 0l24 123h185l247 1234h-185l24 123h982l-71 -355h-123l47 232h-476l-109 -543h291l25 124h123l-74 -371h-123l25 124h-291l-112 -560h525l49 247h124l-75 -378h-1032zM680 1935h228l152 -321h-123z" />
<glyph unicode="&#xc9;" d="M74 0l24 123h185l247 1234h-185l24 123h982l-71 -355h-123l47 232h-476l-109 -543h291l25 124h123l-74 -371h-123l25 124h-291l-112 -560h525l49 247h124l-75 -378h-1032zM801 1614l280 321h228l-385 -321h-123z" />
<glyph unicode="&#xca;" d="M74 0l24 123h185l247 1234h-185l24 123h982l-71 -355h-123l47 232h-476l-109 -543h291l25 124h123l-74 -371h-123l25 124h-291l-112 -560h525l49 247h124l-75 -378h-1032zM579 1614l320 321h219l192 -321h-123l-201 202h-3l-281 -202h-123z" />
<glyph unicode="&#xcb;" d="M74 0l24 123h185l247 1234h-185l24 123h982l-71 -355h-123l47 232h-476l-109 -543h291l25 124h123l-74 -371h-123l25 124h-291l-112 -560h525l49 247h124l-75 -378h-1032zM579 1634l39 197h197l-39 -197h-197zM1048 1634l39 197h197l-39 -197h-197z" />
<glyph unicode="&#xcc;" d="M160 0l24 123h355l247 1234h-355l24 123h908l-24 -123h-355l-247 -1234h355l-24 -123h-908zM652 1935h228l152 -321h-123z" />
<glyph unicode="&#xcd;" d="M160 0l24 123h355l247 1234h-355l24 123h908l-24 -123h-355l-247 -1234h355l-24 -123h-908zM835 1614l280 321h228l-385 -321h-123z" />
<glyph unicode="&#xce;" d="M160 0l24 123h355l247 1234h-355l24 123h908l-24 -123h-355l-247 -1234h355l-24 -123h-908zM568 1614l320 321h219l192 -321h-123l-201 202h-3l-281 -202h-123z" />
<glyph unicode="&#xcf;" d="M160 0l24 123h355l247 1234h-355l24 123h908l-24 -123h-355l-247 -1234h355l-24 -123h-908zM601 1634l39 197h197l-39 -197h-197zM1070 1634l39 197h197l-39 -197h-197z" />
<glyph unicode="&#xd0;" d="M49 0l24 123h148l119 593h-148l24 123h148l104 518h-148l24 123h509q609 0 469 -704q-72 -357 -274 -567q-201 -209 -471 -209h-528zM418 123h119q441 0 567 631q62 308 -21 456q-82 147 -313 147h-105l-104 -518h272l-24 -123h-272z" />
<glyph unicode="&#xd1;" d="M74 0l24 123h111l247 1234h-111l24 123h234l395 -1075h2l191 952h-110l24 123h345l-24 -123h-111l-271 -1357h-124l-394 1076h-3l-191 -953h111l-24 -123h-345zM591 1634q25 95 60 145q63 90 172 90q72 0 127 -39l53 -37q54 -38 88 -38q69 0 102 114h111 q-26 -94 -61 -144q-64 -91 -171 -91q-73 0 -128 39l-53 37q-52 37 -88 37q-68 0 -102 -113h-110z" />
<glyph unicode="&#xd2;" d="M210 741q68 343 265 559q199 217 443 217q243 0 354 -216q112 -216 44 -559q-70 -348 -268 -563q-198 -216 -448 -216q-214 0 -324 175q-142 225 -66 603zM416 265q54 -171 216 -171t276 147q127 164 194 497q63 313 6 481q-58 167 -217 167q-161 0 -283 -167 q-124 -170 -186 -479q-61 -306 -6 -475zM678 1935h228l152 -321h-123z" />
<glyph unicode="&#xd3;" d="M210 741q68 343 265 559q199 217 443 217q243 0 354 -216q112 -216 44 -559q-70 -348 -268 -563q-198 -216 -448 -216q-214 0 -324 175q-142 225 -66 603zM416 265q54 -171 216 -171t276 147q127 164 194 497q63 313 6 481q-58 167 -217 167q-161 0 -283 -167 q-124 -170 -186 -479q-61 -306 -6 -475zM811 1614l280 321h228l-385 -321h-123z" />
<glyph unicode="&#xd4;" d="M210 741q68 343 265 559q199 217 443 217q243 0 354 -216q112 -216 44 -559q-70 -348 -268 -563q-198 -216 -448 -216q-214 0 -324 175q-142 225 -66 603zM416 265q54 -171 216 -171t276 147q127 164 194 497q63 313 6 481q-58 167 -217 167q-161 0 -283 -167 q-124 -170 -186 -479q-61 -306 -6 -475zM559 1614l320 321h219l192 -321h-123l-201 202h-3l-281 -202h-123z" />
<glyph unicode="&#xd5;" d="M210 741q68 343 265 559q199 217 443 217q243 0 354 -216q112 -216 44 -559q-70 -348 -268 -563q-198 -216 -448 -216q-214 0 -324 175q-142 225 -66 603zM416 265q54 -171 216 -171t276 147q127 164 194 497q63 313 6 481q-58 167 -217 167q-161 0 -283 -167 q-124 -170 -186 -479q-61 -306 -6 -475zM602 1634q25 95 60 145q63 90 172 90q72 0 127 -39l53 -37q54 -38 88 -38q68 0 102 114h111q-26 -94 -61 -144q-64 -91 -171 -91q-73 0 -128 39l-53 37q-52 37 -88 37q-68 0 -102 -113h-110z" />
<glyph unicode="&#xd6;" d="M210 741q68 343 265 559q199 217 443 217q243 0 354 -216q112 -216 44 -559q-70 -348 -268 -563q-198 -216 -448 -216q-214 0 -324 175q-142 225 -66 603zM416 265q54 -171 216 -171t276 147q127 164 194 497q63 313 6 481q-58 167 -217 167q-161 0 -283 -167 q-124 -170 -186 -479q-61 -306 -6 -475zM602 1634l39 197h197l-39 -197h-197zM1071 1634l39 197h197l-39 -197h-197z" />
<glyph unicode="&#xd7;" d="M140 206l493 411l-329 411l126 105l329 -412l493 412l84 -105l-494 -411l330 -411l-126 -105l-329 411l-493 -411z" />
<glyph unicode="&#xd8;" d="M54 -37l189 227q-95 242 -34 549q69 344 266 561q198 217 441 217q186 0 315 -146l123 146h117l-191 -227q97 -242 35 -550q-68 -342 -265 -559q-198 -218 -442 -218q-185 0 -315 147l-122 -147h-117zM395 371l714 854q-59 159 -217 159q-163 0 -290.5 -167.5 t-188.5 -474.5q-40 -197 -18 -371zM414 254q61 -160 217 -160q168 0 294 168.5t187 475.5q40 199 17 372z" />
<glyph unicode="&#xd9;" d="M294 550l162 807h-123l24 123h457l-24 -123h-136l-167 -834q-42 -210 7 -323q49 -114 179 -114q265 0 354 446l165 825h-136l24 123h383l-24 -123h-124l-172 -861q-51 -252 -190 -392q-138 -141 -340 -141q-436 0 -319 587zM715 1935h228l152 -321h-123z" />
<glyph unicode="&#xda;" d="M294 550l162 807h-123l24 123h457l-24 -123h-136l-167 -834q-42 -210 7 -323q49 -114 179 -114q265 0 354 446l165 825h-136l24 123h383l-24 -123h-124l-172 -861q-51 -252 -190 -392q-138 -141 -340 -141q-436 0 -319 587zM848 1614l280 321h228l-385 -321h-123z" />
<glyph unicode="&#xdb;" d="M294 550l162 807h-123l24 123h457l-24 -123h-136l-167 -834q-42 -210 7 -323q49 -114 179 -114q265 0 354 446l165 825h-136l24 123h383l-24 -123h-124l-172 -861q-51 -252 -190 -392q-138 -141 -340 -141q-436 0 -319 587zM606 1614l320 321h219l192 -321h-123l-201 202 h-3l-281 -202h-123z" />
<glyph unicode="&#xdc;" d="M294 550l162 807h-123l24 123h457l-24 -123h-136l-167 -834q-42 -210 7 -323q49 -114 179 -114q265 0 354 446l165 825h-136l24 123h383l-24 -123h-124l-172 -861q-51 -252 -190 -392q-138 -141 -340 -141q-436 0 -319 587zM639 1634l39 197h197l-39 -197h-197z M1108 1634l39 197h197l-39 -197h-197z" />
<glyph unicode="&#xdd;" d="M294 0l24 123h222l107 537l-263 697h-86l24 123h463l-24 -123h-149l206 -544h2l424 544h-148l24 123h376l-24 -123h-86l-541 -696l-108 -538h222l-24 -123h-641zM854 1614l280 321h228l-385 -321h-123z" />
<glyph unicode="&#xde;" d="M86 0l24 123h197l247 1234h-197l24 123h592l-24 -123h-197l-34 -166h189q454 0 382 -362q-48 -241 -245 -380q-196 -140 -491 -140h-11l-37 -186h197l-24 -123h-592zM567 432h12q201 0 330 96q129 95 164 268q54 271 -268 271h-111z" />
<glyph unicode="&#xdf;" d="M62 0l24 123h135l196 980q38 190 76 270t118 139q124 92 318 92q180 0 275 -65t73 -176q-24 -118 -169 -221l-152 -107q-79 -56 -92 -122q-14 -69 92 -162l114 -101q139 -122 170 -182q33 -65 12 -168q-29 -145 -141 -235q-111 -90 -269 -90q-114 0 -236 37l55 278h111 l-4 -148q63 -43 126 -43q151 0 181 151q22 107 -72 189l-84 74l-105 93q-103 91 -128 136q-26 47 -13 112q22 107 145 211l118 99q125 105 143 195q24 122 -166 122q-122 0 -183 -51q-60 -50 -85 -174l-226 -1133h123l-24 -123h-456z" />
<glyph unicode="&#xe0;" d="M210 498q57 285 225 448q166 164 404 164q87 0 224 -24h198l-193 -963h123l-24 -123h-321l44 222q-97 -111 -179 -167q-117 -80 -236 -80q-165 0 -239 144q-73 143 -26 379zM421 504q-76 -381 138 -381q164 0 358 234l120 600q-132 22 -209 22q-165 0 -260 -107 q-94 -106 -147 -368zM674 1604h228l152 -321h-123z" />
<glyph unicode="&#xe1;" d="M210 498q57 285 225 448q166 164 404 164q87 0 224 -24h198l-193 -963h123l-24 -123h-321l44 222q-97 -111 -179 -167q-117 -80 -236 -80q-165 0 -239 144q-73 143 -26 379zM421 504q-76 -381 138 -381q164 0 358 234l120 600q-132 22 -209 22q-165 0 -260 -107 q-94 -106 -147 -368zM788 1283l280 321h228l-385 -321h-123z" />
<glyph unicode="&#xe2;" d="M210 498q57 285 225 448q166 164 404 164q87 0 224 -24h198l-193 -963h123l-24 -123h-321l44 222q-97 -111 -179 -167q-117 -80 -236 -80q-165 0 -239 144q-73 143 -26 379zM421 504q-76 -381 138 -381q164 0 358 234l120 600q-132 22 -209 22q-165 0 -260 -107 q-94 -106 -147 -368zM531 1283l320 321h219l192 -321h-123l-201 202h-3l-281 -202h-123z" />
<glyph unicode="&#xe3;" d="M210 498q57 285 225 448q166 164 404 164q87 0 224 -24h198l-193 -963h123l-24 -123h-321l44 222q-97 -111 -179 -167q-117 -80 -236 -80q-165 0 -239 144q-73 143 -26 379zM421 504q-76 -381 138 -381q164 0 358 234l120 600q-132 22 -209 22q-165 0 -260 -107 q-94 -106 -147 -368zM549 1293q25 94 60 145q63 90 172 90q72 0 127 -39l53 -37q54 -38 88 -38q68 0 102 114h111q-26 -94 -61 -144q-64 -91 -171 -91q-73 0 -128 39l-53 37q-53 37 -89 37q-68 0 -101 -113h-110z" />
<glyph unicode="&#xe4;" d="M210 498q57 285 225 448q166 164 404 164q87 0 224 -24h198l-193 -963h123l-24 -123h-321l44 222q-97 -111 -179 -167q-117 -80 -236 -80q-165 0 -239 144q-73 143 -26 379zM421 504q-76 -381 138 -381q164 0 358 234l120 600q-132 22 -209 22q-165 0 -260 -107 q-94 -106 -147 -368zM562 1293l39 197h197l-39 -197h-197zM1031 1293l39 197h197l-39 -197h-197z" />
<glyph unicode="&#xe5;" d="M210 498q57 285 225 448q166 164 404 164q87 0 224 -24h198l-193 -963h123l-24 -123h-321l44 222q-97 -111 -179 -167q-117 -80 -236 -80q-165 0 -239 144q-73 143 -26 379zM421 504q-76 -381 138 -381q164 0 358 234l120 600q-132 22 -209 22q-165 0 -260 -107 q-94 -106 -147 -368zM750 1510q19 94 99 160q81 67 174 67q94 0 146 -66q54 -66 35 -160q-19 -97 -99 -162q-79 -66 -175 -66q-83 0 -134 54q-67 69 -46 173zM836 1510q-11 -58 21 -99q33 -42 91 -42q53 0 99 33q58 43 71 109q12 58 -22 98q-34 41 -91 41q-58 0 -107 -41 q-50 -40 -62 -99z" />
<glyph unicode="&#xe6;" d="M103 307q33 168 170 264q135 95 341 95h43l28 141q22 110 8 145q-15 35 -83 35q-63 0 -132 -40l-52 -136h-123l46 232q166 67 311 67q97 0 149 -48q30 -29 39 -83q104 131 252 131q146 0 200 -136q53 -136 4 -382l-10 -49h-482l-7 -51q-77 -386 164 -386q84 0 260 84 l-29 -147q-189 -68 -320 -68q-166 0 -256 179q-53 -81 -105 -121q-76 -58 -172 -58q-131 0 -202 95q-71 94 -42 237zM307 307q-40 -201 101 -201q85 0 161 122l63 315h-31q-247 0 -294 -236zM837 666h280q32 178 15 250q-17 71 -76 71q-134 0 -219 -321z" />
<glyph unicode="&#xe7;" d="M220 555q52 260 240 407q186 148 473 148q213 0 375 -54l-62 -310h-124l4 197q-112 44 -228 44q-176 0 -304 -118q-119 -118 -159 -317q-44 -220 41 -333q94 -113 300 -113q168 0 371 81l-28 -141q-176 -71 -408 -71l-63 -84q71 -2 116 -39q60 -49 46 -121 q-14 -68 -82 -115q-68 -48 -155 -48q-67 0 -139 21l17 81q47 -15 101 -15q104 0 118 74q19 93 -167 96l115 155q-213 22 -321 153q-129 158 -77 422z" />
<glyph unicode="&#xe8;" d="M233 551q50 251 229 405q177 154 419 154q445 0 337 -543l-12 -61h-771q-13 -135 2 -195q50 -205 311 -205q161 0 370 105l-30 -149q-192 -87 -392 -87q-259 0 -388 159q-127 159 -75 417zM461 629h559l9 46q63 312 -186 312q-154 0 -263 -123q-76 -86 -119 -235z M648 1604h228l152 -321h-123z" />
<glyph unicode="&#xe9;" d="M233 551q50 251 229 405q177 154 419 154q445 0 337 -543l-12 -61h-771q-13 -135 2 -195q50 -205 311 -205q161 0 370 105l-30 -149q-192 -87 -392 -87q-259 0 -388 159q-127 159 -75 417zM461 629h559l9 46q63 312 -186 312q-154 0 -263 -123q-76 -86 -119 -235z M781 1283l280 321h228l-385 -321h-123z" />
<glyph unicode="&#xea;" d="M233 551q50 251 229 405q177 154 419 154q445 0 337 -543l-12 -61h-771q-13 -135 2 -195q50 -205 311 -205q161 0 370 105l-30 -149q-192 -87 -392 -87q-259 0 -388 159q-127 159 -75 417zM461 629h559l9 46q63 312 -186 312q-154 0 -263 -123q-76 -86 -119 -235z M539 1283l320 321h219l192 -321h-123l-201 202h-3l-281 -202h-123z" />
<glyph unicode="&#xeb;" d="M233 551q50 251 229 405q177 154 419 154q445 0 337 -543l-12 -61h-771q-13 -135 2 -195q50 -205 311 -205q161 0 370 105l-30 -149q-192 -87 -392 -87q-259 0 -388 159q-127 159 -75 417zM461 629h559l9 46q63 312 -186 312q-154 0 -263 -123q-76 -86 -119 -235z M561 1293l39 197h197l-39 -197h-197zM1030 1293l39 197h197l-39 -197h-197z" />
<glyph unicode="&#xec;" d="M148 0l24 123h390l168 839h-390l25 124h587l-193 -963h370l-24 -123h-957zM611 1604h228l152 -321h-123z" />
<glyph unicode="&#xed;" d="M148 0l24 123h390l168 839h-390l25 124h587l-193 -963h370l-24 -123h-957zM794 1283l280 321h228l-385 -321h-123z" />
<glyph unicode="&#xee;" d="M148 0l24 123h390l168 839h-390l25 124h587l-193 -963h370l-24 -123h-957zM527 1283l320 321h219l192 -321h-123l-201 202h-3l-281 -202h-123z" />
<glyph unicode="&#xef;" d="M148 0l24 123h390l168 839h-390l25 124h587l-193 -963h370l-24 -123h-957zM549 1293l39 197h197l-39 -197h-197zM1018 1293l39 197h197l-39 -197h-197z" />
<glyph unicode="&#xf0;" d="M217 532q48 239 218 396q170 158 374 158q95 0 182 -55q-91 185 -189 271l-281 -168l-44 92l245 145q-124 85 -318 85l25 123h27q254 0 425 -113l255 151l42 -91l-214 -128q164 -139 231 -330q87 -249 37 -500q-52 -262 -224 -427q-172 -166 -395 -166q-219 0 -332 158 q-112 158 -64 399zM427 531q-36 -185 22 -309q58 -123 185 -123q125 0 234 122q109 123 146 305q34 170 -12 288q-50 162 -195 148q-127 1 -235 -123q-109 -124 -145 -308z" />
<glyph unicode="&#xf1;" d="M72 0l24 123h120l168 839h-120l25 124h318l-42 -210q90 105 168 158q111 76 230 76q301 0 224 -388l-120 -599h120l-24 -123h-417l24 123h100l116 582q52 257 -111 257q-150 0 -345 -258l-116 -581h100l-24 -123h-418zM515 1293q25 94 60 145q63 90 172 90q72 0 127 -39 l53 -37q54 -38 88 -38q68 0 102 114h111q-26 -94 -61 -144q-64 -91 -171 -91q-73 0 -128 39l-53 37q-53 37 -89 37q-68 0 -101 -113h-110z" />
<glyph unicode="&#xf2;" d="M219 543q53 265 218 416t398 151q235 0 339 -151q105 -151 52 -415q-53 -268 -218 -418q-165 -151 -407 -151q-205 0 -310 125q-130 155 -72 443zM432 545q-89 -446 201 -446q291 0 380 446q89 442 -202 442q-290 0 -379 -442zM614 1604h228l152 -321h-123z" />
<glyph unicode="&#xf3;" d="M219 543q53 265 218 416t398 151q235 0 339 -151q105 -151 52 -415q-53 -268 -218 -418q-165 -151 -407 -151q-205 0 -310 125q-130 155 -72 443zM432 545q-89 -446 201 -446q291 0 380 446q89 442 -202 442q-290 0 -379 -442zM747 1283l280 321h228l-385 -321h-123z" />
<glyph unicode="&#xf4;" d="M219 543q53 265 218 416t398 151q235 0 339 -151q105 -151 52 -415q-53 -268 -218 -418q-165 -151 -407 -151q-205 0 -310 125q-130 155 -72 443zM432 545q-89 -446 201 -446q291 0 380 446q89 442 -202 442q-290 0 -379 -442zM505 1283l320 321h219l192 -321h-123 l-201 202h-3l-281 -202h-123z" />
<glyph unicode="&#xf5;" d="M219 543q53 265 218 416t398 151q235 0 339 -151q105 -151 52 -415q-53 -268 -218 -418q-165 -151 -407 -151q-205 0 -310 125q-130 155 -72 443zM432 545q-89 -446 201 -446q291 0 380 446q89 442 -202 442q-290 0 -379 -442zM538 1293q25 94 60 145q63 90 172 90 q72 0 127 -39l53 -37q54 -38 88 -38q68 0 102 114h111q-26 -94 -61 -144q-64 -91 -171 -91q-73 0 -128 39l-53 37q-53 37 -89 37q-68 0 -101 -113h-110z" />
<glyph unicode="&#xf6;" d="M219 543q53 265 218 416t398 151q235 0 339 -151q105 -151 52 -415q-53 -268 -218 -418q-165 -151 -407 -151q-205 0 -310 125q-130 155 -72 443zM432 545q-89 -446 201 -446q291 0 380 446q89 442 -202 442q-290 0 -379 -442zM537 1293l39 197h197l-39 -197h-197z M1006 1293l39 197h197l-39 -197h-197z" />
<glyph unicode="&#xf7;" d="M207 543l30 148h1031l-30 -148h-1031zM491 0l49 247h247l-49 -247h-247zM688 987l49 247h247l-49 -247h-247z" />
<glyph unicode="&#xf8;" d="M106 -25l159 164q-92 172 -46 406q53 264 218 415q165 150 404 150q179 0 283 -92l90 92h125l-159 -163q92 -172 45 -407q-52 -264 -217 -414q-165 -151 -405 -151q-180 0 -282 93l-90 -93h-125zM415 292l585 599q-61 96 -189 96q-300 0 -389 -445q-30 -150 -7 -250z M447 196q51 -97 186 -97q301 0 390 443q29 148 7 252z" />
<glyph unicode="&#xf9;" d="M260 962l25 124h321l-142 -706q-51 -255 112 -255q149 0 345 257l116 580h-111l25 124h309l-193 -963h123l-24 -123h-321l41 209q-90 -105 -168 -158q-111 -76 -230 -76q-302 0 -225 388l120 599h-123zM616 1604h228l152 -321h-123z" />
<glyph unicode="&#xfa;" d="M260 962l25 124h321l-142 -706q-51 -255 112 -255q149 0 345 257l116 580h-111l25 124h309l-193 -963h123l-24 -123h-321l41 209q-90 -105 -168 -158q-111 -76 -230 -76q-302 0 -225 388l120 599h-123zM749 1283l280 321h228l-385 -321h-123z" />
<glyph unicode="&#xfb;" d="M260 962l25 124h321l-142 -706q-51 -255 112 -255q149 0 345 257l116 580h-111l25 124h309l-193 -963h123l-24 -123h-321l41 209q-90 -105 -168 -158q-111 -76 -230 -76q-302 0 -225 388l120 599h-123zM507 1283l320 321h219l192 -321h-123l-201 202h-3l-281 -202h-123z " />
<glyph unicode="&#xfc;" d="M260 962l25 124h321l-142 -706q-51 -255 112 -255q149 0 345 257l116 580h-111l25 124h309l-193 -963h123l-24 -123h-321l41 209q-90 -105 -168 -158q-111 -76 -230 -76q-302 0 -225 388l120 599h-123zM530 1293l39 197h197l-39 -197h-197zM999 1293l39 197h197l-39 -197 h-197z" />
<glyph unicode="&#xfd;" d="M196 -395l24 124h198l163 271h-67l-193 962h-74l25 124h447l-25 -124h-160l155 -778h2l467 778h-160l25 124h367l-25 -124h-74l-577 -962l-163 -271h148l-24 -124h-479zM787 1283l280 321h228l-385 -321h-123z" />
<glyph unicode="&#xfe;" d="M-16 -395l23 123h123l345 1728h-123l25 123h321l-143 -715q97 111 179 166q118 80 236 80q165 0 239 -143q73 -144 26 -379q-57 -286 -225 -449q-166 -164 -401 -164q-88 0 -226 25l-55 -272h247l-24 -123h-567zM412 146q130 -23 203 -23q317 0 411 468q71 359 -143 359 q-164 0 -357 -234z" />
<glyph unicode="&#xff;" d="M196 -395l24 124h198l163 271h-67l-193 962h-74l25 124h447l-25 -124h-160l155 -778h2l467 778h-160l25 124h367l-25 -124h-74l-577 -962l-163 -271h148l-24 -124h-479zM567 1293l39 197h197l-39 -197h-197zM1036 1293l39 197h197l-39 -197h-197z" />
<glyph unicode="&#x152;" d="M178 170q-66 207 6 570q73 361 221 570q149 208 333 208q117 0 151 -112l15 74h533l-63 -314h-123l39 191h-219l-106 -530h145l24 123h111l-74 -370h-111l25 123h-145l-114 -572h244l47 239h123l-73 -370h-558l14 74q-82 -111 -195 -111q-184 0 -250 207zM336 240 q21 -154 138 -154q152 0 207 278l151 753q55 278 -94 278q-223 0 -352 -649q-70 -350 -50 -506z" />
<glyph unicode="&#x153;" d="M157 542q51 255 183 412q131 156 297 156q158 0 216 -159q117 160 261 160q286 0 186 -504l-15 -76h-444l-4 -16q-78 -392 138 -392q100 0 245 87l-30 -154q-168 -81 -292 -81q-158 0 -228 143q-111 -143 -262 -143q-164 0 -233 156t-18 411zM348 541q-89 -442 92 -442 q96 0 146 125q40 100 83 314q49 247 44 344q-5 105 -95 105q-181 0 -270 -446zM866 654h258l13 62q54 271 -58 271q-141 0 -213 -333z" />
<glyph unicode="&#x178;" d="M294 0l24 123h222l107 537l-263 697h-86l24 123h463l-24 -123h-149l206 -544h2l424 544h-148l24 123h376l-24 -123h-86l-541 -696l-108 -538h222l-24 -123h-641zM624 1634l39 197h197l-39 -197h-197zM1093 1634l39 197h197l-39 -197h-197z" />
<glyph unicode="&#x2c6;" d="M504 1283l320 321h219l192 -321h-123l-201 202h-3l-281 -202h-123z" />
<glyph unicode="&#x2dc;" d="M527 1293q25 94 60 145q63 90 172 90q72 0 127 -39l53 -37q54 -38 88 -38q68 0 102 114h111q-26 -94 -61 -144q-64 -91 -171 -91q-73 0 -128 39l-53 37q-53 37 -89 37q-68 0 -101 -113h-110z" />
<glyph unicode="&#x2000;" horiz-adv-x="967" />
<glyph unicode="&#x2001;" horiz-adv-x="1935" />
<glyph unicode="&#x2002;" horiz-adv-x="967" />
<glyph unicode="&#x2003;" horiz-adv-x="1935" />
<glyph unicode="&#x2004;" horiz-adv-x="645" />
<glyph unicode="&#x2005;" horiz-adv-x="483" />
<glyph unicode="&#x2006;" horiz-adv-x="322" />
<glyph unicode="&#x2007;" horiz-adv-x="322" />
<glyph unicode="&#x2008;" horiz-adv-x="241" />
<glyph unicode="&#x2009;" horiz-adv-x="387" />
<glyph unicode="&#x200a;" horiz-adv-x="107" />
<glyph unicode="&#x2010;" d="M207 543l30 148h1031l-30 -148h-1031z" />
<glyph unicode="&#x2011;" d="M207 543l30 148h1031l-30 -148h-1031z" />
<glyph unicode="&#x2012;" d="M207 543l30 148h1031l-30 -148h-1031z" />
<glyph unicode="&#x2013;" d="M228 543l30 148h989l-30 -148h-989z" />
<glyph unicode="&#x2014;" d="M128 543l30 148h1189l-30 -148h-1189z" />
<glyph unicode="&#x2018;" d="M588 873l44 220q102 511 438 511l-20 -99q-122 -12 -155 -67q-30 -48 -72 -229h168l-67 -336h-336z" />
<glyph unicode="&#x2019;" d="M620 873l20 99q122 12 155 67q30 48 72 229h-168l67 336h336l-44 -220q-102 -511 -438 -511z" />
<glyph unicode="&#x201a;" d="M368 -395l19 99q123 12 156 67q29 48 72 229h-168l67 336h336l-44 -220q-102 -511 -438 -511z" />
<glyph unicode="&#x201c;" d="M354 873l44 220q102 511 438 511l-20 -99q-122 -12 -155 -67q-30 -48 -72 -229h168l-67 -336h-336zM877 873l44 220q102 511 438 511l-20 -99q-122 -12 -155 -67q-30 -48 -72 -229h168l-67 -336h-336z" />
<glyph unicode="&#x201d;" d="M364 873l20 99q122 12 155 67q30 48 72 229h-168l67 336h336l-44 -220q-102 -511 -438 -511zM887 873l20 99q122 12 155 67q30 48 72 229h-168l67 336h336l-44 -220q-102 -511 -438 -511z" />
<glyph unicode="&#x201e;" d="M111 -395l19 99q123 12 156 67q29 48 72 229h-168l67 336h336l-44 -220q-102 -511 -438 -511zM634 -395l19 99q123 12 156 67q29 48 72 229h-168l67 336h336l-44 -220q-102 -511 -438 -511z" />
<glyph unicode="&#x2022;" d="M480 814q25 123 129 209q104 87 226 87q123 0 192 -87q70 -86 45 -208q-25 -125 -129 -211q-103 -86 -228 -86q-109 0 -175 70q-87 91 -60 226z" />
<glyph unicode="&#x2026;" d="M81 0l49 247h247l-49 -247h-247zM491 0l49 247h246l-49 -247h-246zM900 0l49 247h247l-49 -247h-247z" />
<glyph unicode="&#x202f;" horiz-adv-x="387" />
<glyph unicode="&#x2039;" d="M342 543l715 444l69 -86l-510 -358l366 -358l-103 -86z" />
<glyph unicode="&#x203a;" d="M319 185l510 358l-366 358l103 86l537 -444l-715 -444z" />
<glyph unicode="&#x205f;" horiz-adv-x="483" />
<glyph unicode="&#x20ac;" d="M113 537l75 123h68l16 88v11q0 1 4 9q2 4 6 23q0 6 5 24l6 25l5 17h-121l76 124h86q72 169 137 255q212 281 552 281q164 0 368 -64l-56 -281h-123l4 169q-102 53 -214 53q-193 0 -325 -172q-66 -85 -127 -241h668l-76 -124h-635q-15 -55 -19 -72q-5 -24 -7 -28 q-4 -14 -4 -18v-6l-13 -73h556l-75 -123h-492q-2 -138 20 -217q62 -221 303 -221q180 0 392 135l-32 -160q-229 -111 -409 -111q-239 0 -364 141q-86 98 -111 253q-9 59 -11 180h-133z" />
<glyph unicode="&#x2122;" d="M289 740l19 93h77l111 555h-87l-20 -99h-89l38 191h463l-38 -191h-89l20 99h-87l-111 -555h77l-19 -93h-265zM702 740l19 93h58l111 555h-58l18 92h212l34 -443l194 443h201l-18 -92h-58l-111 -555h58l-19 -93h-163l116 579h-1l-204 -443h-87l-33 413h-2l-110 -549h-157z " />
<glyph unicode="&#x25fc;" horiz-adv-x="1085" d="M0 0v1085h1085v-1085h-1085z" />
<glyph unicode="&#xfb01;" d="M69 0l24 123h123l163 815h-117l27 135h117l35 174q32 163 138 260t249 97q94 0 205 -49l-42 -210h-123v123q-32 19 -61 19q-120 0 -158 -186l-45 -228h654l-190 -950h123l-24 -123h-419l24 123h98l163 815h-456l-163 -815h111l-24 -123h-432zM1114 1345l40 197h198 l-40 -197h-198z" />
<glyph unicode="&#xfb02;" d="M69 0l24 123h123l160 802h-117l28 136h117l37 186q71 357 467 357q86 0 193 -16l60 -9h197l-238 -1190q-13 -69 -16 -116q-5 -59 9 -92t49.5 -45.5t78.5 -12.5l-24 -123q-23 -6 -51 -9q-107 -13 -160 7t-80 66.5t-28 119.5t19 175l218 1091q-127 37 -241 37 q-117 0 -171 -40q-52 -40 -74 -146l-47 -240h296l-28 -136h-296l-160 -802h111l-24 -123h-432z" />
</font>
</defs>
</svg>
